<svg width="227" height="181" viewBox="0 0 227 181" fill="none" xmlns="http://www.w3.org/2000/svg">
<path fill-rule="evenodd" clip-rule="evenodd" d="M180.918 27.1521C179.994 27.4161 150.19 48.7063 147.724 50.5768C145.258 52.4472 140.406 59.0538 141.037 59.6571C142.014 60.5916 150.366 57.5675 151.485 56.9194C152.294 56.4499 168.858 44.7824 178.51 37.9838L178.512 37.9818C182.185 35.395 184.856 33.5134 185.277 33.2227C186.802 32.168 181.848 26.8894 180.918 27.1521ZM125.947 95.3593C118.019 95.8141 110.491 92.2033 101.657 87.9666C95.7751 85.1452 89.314 82.0463 81.7708 79.6856C73.8508 81.065 58.8463 80.302 56.6908 75.4128C28.4797 79.5919 4.68276 97.4568 0.986756 109.469C-2.5548 120.962 13.8172 143.677 21.6751 151.096C25.1441 131.369 29.9674 110.362 37.63 91.8283C38.018 90.8884 38.8853 91.464 38.5909 92.3721C30.1958 118.227 24.2486 144.813 20.8277 171.781C35.7437 180.6 83.2637 182.659 98.6602 178.886C98.7856 172.377 99.7043 150.529 100.552 133.623C93.9372 133.095 87.3385 132.325 80.7926 131.247C79.7472 131.076 80.2079 129.971 81.2322 130.108C93.5425 131.761 118.456 134.656 132.844 130.714C141.688 128.291 159.843 118.966 174.292 75.0102C170.113 71.8752 163.008 69.1692 156.008 68.4102C154.096 73.9185 132.446 94.9857 125.947 95.3593ZM120.243 53.0944C119.198 52.4463 120.14 50.8847 121.288 51.4021C127.671 54.3105 133.614 58.1022 138.941 62.6657C140.517 64.0095 138.556 66.5465 136.961 65.2146C131.678 60.7894 126.092 56.7395 120.243 53.0944ZM145.341 42.7619C140.92 42.8186 136.101 42.8872 131.705 43.3875C127.39 43.8843 127.421 44.2548 127.71 47.7395C127.728 47.9588 127.747 48.1905 127.766 48.4352C127.841 49.5223 127.981 50.6039 128.184 51.6745C128.208 51.8751 128.305 52.0598 128.456 52.1939C128.607 52.3279 128.802 52.4019 129.004 52.4019C129.206 52.4019 129.401 52.3279 129.552 52.1939C129.703 52.0598 129.8 51.8751 129.824 51.6745C129.824 51.3828 129.769 50.4359 129.708 49.3786C129.611 47.709 129.498 45.7638 129.56 45.687C129.662 45.5616 143.542 44.5874 145.024 44.4858C146.302 44.3973 146.615 42.7447 145.341 42.7619ZM130.218 62.4798C130.384 62.601 130.5 62.7782 130.544 62.9784C130.896 65.192 131.075 67.3959 131.261 69.687C131.28 69.9165 131.299 70.1469 131.318 70.3783C136.563 70.2225 142.414 70.0126 147.638 69.6167C148.746 69.5309 149.895 71.2244 148.004 71.4026C140.608 72.1022 130.495 72.3623 130.363 72.3517C130.106 72.3318 129.868 72.2108 129.7 72.0153C129.532 71.8198 129.449 71.5658 129.468 71.3089C129.13 68.5929 128.931 65.8613 128.873 63.1249C128.882 62.92 128.965 62.7253 129.107 62.5772C129.249 62.4291 129.44 62.3376 129.644 62.3196C129.849 62.3017 130.053 62.3586 130.218 62.4798Z" fill="url(#paint0_linear_13554_27903)"/>
<path d="M85.658 38.9568C83.1091 38.801 81.5937 41.9452 82.9626 42.2277C83.6727 42.3742 83.9024 40.5975 85.5432 40.6081C85.7622 40.6233 85.9782 40.5509 86.1438 40.4069C86.3094 40.2628 86.411 40.0588 86.4263 39.8398C86.4415 39.6209 86.3691 39.4048 86.225 39.2392C86.081 39.0736 85.877 38.972 85.658 38.9568Z" fill="#191919"/>
<path d="M89.2209 36.1376C88.8408 35.372 88.1649 35.9951 88.3431 36.7224C89.4638 41.1985 90.735 43.692 91.6867 48.6658C92.1989 51.3401 89.7555 49.7099 89.6803 51.8008C89.6322 53.3499 89.4752 54.8937 89.2104 56.4208C88.1508 56.2347 87.1816 55.7061 86.4516 54.916C85.9817 54.2995 85.1672 54.8539 85.554 55.6789C85.9009 56.3205 86.3973 56.8691 87.0011 57.2783C87.605 57.6875 88.2984 57.9453 89.0229 58.0298C88.1768 64.7618 84.6194 65.1473 78.9289 63.9698C77.8835 63.7547 76.8367 63.3824 75.6896 63.228C75.1352 63.1541 73.7096 64.2734 77.4347 65.3176C77.4347 67.126 77.8307 76.3528 78.3441 78.045C78.5619 78.7552 79.6826 78.6707 79.6193 77.8668C79.2893 73.6864 79.1586 69.7792 79.0913 65.6938C90.4433 68.0143 90.2611 61.0658 91.1693 52.1638C93.5096 51.8285 93.6152 49.892 93.2588 48.0361C92.4603 43.9048 91.1018 39.9017 89.2209 36.1376Z" fill="#191919"/>
<path d="M57.0923 16.985C54.0563 6.00264 42.2965 -5.3652 26.4683 2.89008C10.6402 11.1454 12.7403 33.3596 21.2543 42.762C26.603 48.6664 31.7035 55.6346 30.9194 61.0466C30.1353 66.4586 38.4658 61.7568 34.127 44.0252C30.6593 29.8564 41.9836 18.0714 50.8435 23.6194C52.468 21.017 54.5918 18.7622 57.0923 16.985Z" fill="#191919"/>
<path d="M72.8908 43.1269C75.2549 44.5301 89.9492 32.6752 89.045 29.9507C81.785 8.09546 54.7857 13.7635 50.4574 29.3963C45.6012 46.9378 60.0591 60.6961 60.9792 60.576C62.3163 60.4005 66.5232 57.7024 68.0847 52.4461C68.7724 52.8487 69.5549 53.0608 70.3518 53.0608C71.1487 53.0608 71.9312 52.8487 72.6189 52.4461C73.5165 51.9353 72.8684 50.9163 71.9193 51.2581C69.6067 52.0831 67.1132 50.2127 67.364 46.2223C67.3697 45.5793 67.5452 44.9492 67.8728 44.3959C68.2004 43.8426 68.6685 43.3856 69.2295 43.0714C69.7905 42.7572 70.4247 42.5968 71.0676 42.6066C71.7106 42.6163 72.3396 42.7958 72.8908 43.1269V43.1269Z" fill="#191919"/>
<path d="M60.236 62.6139C59.3788 66.5687 58.9202 70.5994 58.8672 74.6457C58.8837 74.8133 58.9591 74.9697 59.0801 75.0869C59.201 75.2042 59.3597 75.2747 59.5277 75.2859C59.6958 75.2972 59.8624 75.2484 59.9979 75.1483C60.1334 75.0483 60.229 74.9034 60.2677 74.7394C61.0676 70.889 61.1917 66.7363 61.8979 62.734C62.0655 61.7784 60.4155 61.6846 60.236 62.6139Z" fill="#191919"/>
<path d="M87.2235 44.2849C86.6216 42.1914 84.639 42.1003 85.4165 45.0479C86.124 47.7169 87.8584 46.4867 87.2235 44.2849Z" fill="#191919"/>
<path d="M151.756 44.0046C152.385 43.371 157.036 43.0093 157.388 42.8971C158.189 42.6331 158.005 41.4544 157.335 41.1943C155.988 40.6663 152.174 41.424 150.899 42.1183C149.624 42.8126 149.41 45.1398 148.276 47.5831C147.694 48.8371 146.914 49.9908 146.406 51.2712C146.159 51.8956 146.913 52.3272 147.451 51.8982C150.021 49.8733 151.724 44.0363 151.756 44.0046Z" fill="#191919"/>
<path d="M148.631 54.9443C148.456 54.9356 148.283 54.9895 148.143 55.0963C148.003 55.2032 147.906 55.3561 147.869 55.5279C147.831 55.6997 147.856 55.8793 147.938 56.0346C148.021 56.19 148.155 56.3111 148.319 56.3765C157.412 59.7081 156.854 65.7709 158.12 67.211C158.393 67.5225 160.181 68.1878 159.739 65.627C158.847 60.4605 153.907 55.3601 148.631 54.9443Z" fill="#191919"/>
<path d="M167.253 48.8422C170.788 57.4591 170.962 59.5857 170.732 68.9062C170.706 69.9516 172.273 70.3714 172.55 69.3022C174.156 63.114 172.275 53.1982 168.569 47.9763C168.022 47.2054 166.927 48.0489 167.253 48.8422Z" fill="#191919"/>
<path d="M161.464 51.5906C161.257 53.9323 159.778 53.9138 158.329 54.3494C156.518 54.8932 157.545 55.3935 158.329 55.5823C158.932 55.7524 159.568 55.768 160.179 55.6276C160.79 55.4873 161.355 55.1956 161.824 54.7793C162.292 54.3631 162.648 53.8356 162.859 53.2456C163.07 52.6556 163.129 52.022 163.031 51.4032C162.812 50.3709 161.552 50.5887 161.464 51.5906Z" fill="#191919"/>
<path d="M225.19 43.3679C211.503 45.1264 195.099 42.9364 182.626 45.2738C181.638 45.4592 181.886 48.0658 182.902 47.9792C194.038 46.9471 210.536 47.6884 225.245 46.6089C226.571 46.5048 226.536 43.1947 225.19 43.3679Z" fill="#191919"/>
<path d="M209.574 58.2655C203.135 57.7418 188.884 57.7992 183.487 58.1603C182.479 58.2284 182.333 60.5429 183.382 60.6302C191.42 61.3021 200.194 61.2674 209.455 61.0092C210.547 60.9793 210.777 58.3623 209.574 58.2655Z" fill="#191919"/>
<defs>
<linearGradient id="paint0_linear_13554_27903" x1="139.759" y1="79.9914" x2="19.0908" y2="180.687" gradientUnits="userSpaceOnUse">
<stop stop-color="#E41B64"/>
<stop offset="1" stop-color="#4791FF"/>
</linearGradient>
</defs>
</svg>
