<svg width="265" height="264" viewBox="0 0 265 264" fill="none" xmlns="http://www.w3.org/2000/svg">
<path d="M256.511 247.276C173.702 247.276 91.1453 247.562 7.53778 247.408C6.43822 247.408 6.56494 249.052 7.66978 249.062C90.6054 249.736 173.858 249.241 256.692 249.256C257.98 249.26 257.805 247.276 256.511 247.276Z" fill="#00020F"/>
<path d="M169.061 102.531C167.856 109.263 166.658 122.103 175.18 124.428C174.931 125.945 174.524 127.432 173.965 128.864C173.644 129.681 175.316 131.324 176.679 124.691C177.791 124.849 178.924 124.747 179.99 124.394C181.057 124.041 182.027 123.447 182.826 122.657C183.234 122.2 182.685 121.383 182.096 121.684C179.54 122.992 177.485 123.836 174.635 122.59C167.563 119.498 169.771 107.123 170.675 100.431C174.568 99.0996 178.809 99.2064 182.63 100.732C182.96 102.998 184.571 106.577 186.823 107.728C188.551 108.61 187.879 105.782 190.052 105.587C192.224 105.391 191.682 112.163 189.788 113.111C188.647 113.678 188.714 113.945 188.815 115.416C189.065 119.986 188.837 124.57 188.135 129.093C188.003 129.987 189.394 129.826 189.671 127.751C190.221 123.457 190.331 119.119 190.001 114.803C192.307 114.093 193.433 109.317 192.92 106.506C195.42 105.611 196.616 102.614 193.766 101.358C195.634 100.2 197.016 96.4933 192.793 95.968C195.974 93.2937 192.608 87.4856 188.65 89.8788C188.737 85.8713 182.05 85.0146 181.126 88.2644C179.18 83.4781 173.033 86.4257 173.812 89.6557C170.446 87.5345 164.968 92.8237 168.796 95.7343C164.372 96.6755 165.835 102.074 169.061 102.531Z" fill="#00020F"/>
<path d="M176.231 117.716C179.44 118.874 182.056 115.9 181.668 114.39C181.419 113.418 180.553 113.816 180.413 114.671C180.119 116.482 178.029 116.964 176.523 116.714C176.398 116.698 176.271 116.727 176.166 116.796C176.06 116.865 175.983 116.969 175.948 117.09C175.913 117.211 175.922 117.341 175.974 117.456C176.026 117.571 176.117 117.663 176.231 117.716Z" fill="#00020F"/>
<path d="M173.41 102.377C172.869 102.353 172.331 102.468 171.848 102.712C171.364 102.955 170.951 103.318 170.647 103.767C170.308 104.277 170.434 105.401 171.338 104.632C171.935 104.125 172.671 103.81 173.45 103.728C174.626 103.504 174.295 102.483 173.41 102.377Z" fill="#00020F"/>
<path d="M171.941 108.864C172.505 108.942 173.186 107.172 172.222 106.919C171.259 106.665 171.182 108.759 171.941 108.864Z" fill="#00020F"/>
<path d="M180.025 105.323C180.115 105.435 180.242 105.512 180.384 105.539C180.525 105.567 180.672 105.544 180.798 105.474C180.924 105.405 181.021 105.293 181.073 105.158C181.125 105.024 181.128 104.876 181.081 104.739C180.847 104.096 180.428 103.537 179.878 103.13C179.328 102.724 178.67 102.488 177.987 102.453C177.799 102.438 177.613 102.494 177.466 102.611C177.319 102.728 177.221 102.897 177.194 103.083C177.167 103.269 177.212 103.458 177.319 103.612C177.427 103.767 177.589 103.874 177.773 103.913C179.337 104.28 179.13 104.467 180.025 105.323Z" fill="#00020F"/>
<path d="M177.991 109.234C178.965 109.346 179.099 107.348 178.215 107.288C177.514 107.241 177.106 109.132 177.991 109.234Z" fill="#00020F"/>
<path d="M177.106 113.495C177.853 113.091 177.996 112.076 176.824 112.522C174.518 113.4 173.489 112.678 173.983 111.082C174.316 110.013 173.429 110.459 173.191 111.189C172.25 113.999 175.447 114.39 177.106 113.495Z" fill="#00020F"/>
<path d="M34.6967 243.832C37.9822 247.074 39.3497 245.198 41.5053 242.957C42.8174 241.593 44.0133 239.882 45.2607 238.469C45.3404 238.401 45.4058 238.317 45.4534 238.224C45.5009 238.131 45.5296 238.029 45.5378 237.925C45.5461 237.82 45.5336 237.715 45.5012 237.615C45.4689 237.516 45.4172 237.424 45.3491 237.344C45.2811 237.264 45.198 237.199 45.1047 237.151C45.0114 237.104 44.9096 237.075 44.8051 237.067C44.7007 237.059 44.5957 237.071 44.4961 237.103C44.3964 237.136 44.3042 237.187 44.2245 237.255C43.7229 237.684 40.708 241.296 38.4812 243.429C37.8212 244.063 37.1018 243.544 36.5355 242.992C30.2233 236.832 23.9057 230.496 17.7321 224.218C16.609 223.283 15.7168 222.101 15.1251 220.765C21.1628 220.379 28.6736 224.664 34.376 226.248C34.9396 226.404 35.3963 225.519 34.8908 225.177C29.5607 222.102 23.7341 219.982 17.674 218.913C14.044 218.517 11.2205 219.116 14.4928 223.281C17.3071 226.859 30.0068 239.205 34.6967 243.832Z" fill="#00020F"/>
<path d="M61.3502 245.321C63.1097 246.041 85.9022 245.471 89.1599 245.466C95.4352 245.457 94.7449 244.762 96.1837 236.712C96.3856 235.583 94.8636 235.407 94.6656 236.527C93.3258 243.965 93.9951 243.655 89.189 243.667C80.2697 243.685 71.361 243.822 62.4392 243.735C61.1363 243.722 62.4392 242.763 62.8866 242.415C68.3303 238.144 72.5028 236.717 78.0416 233.554C78.6052 233.232 78.46 232.172 77.701 232.339C73.275 233.307 64.5314 238.383 61.1654 241.491C59.9576 242.603 59.5206 244.572 61.3502 245.321Z" fill="#00020F"/>
<path d="M104.782 205.594C102.01 205.321 94.3648 204.446 92.526 204.397C89.3937 206.839 83.7718 210.944 82.527 212.043C80.5813 217.441 79.0541 226.74 78.171 230.982C81.0895 232.364 94.5324 234.668 98.0053 234.668C99.0244 228.035 104.686 206.333 104.782 205.594Z" fill="#00020F"/>
<path d="M136.63 177.408C129.106 171.669 113.177 160.497 99.0824 161.568C91.5043 162.14 87.7304 169.165 87.2249 178.27C89.4227 176.714 94.3251 175.437 96.651 175.011C103.741 173.701 126.28 175.633 136.63 177.408Z" fill="#00020F"/>
<path d="M92.4429 202.598C98.4647 203.57 103.679 203.628 105.215 204.193C109.029 201.128 141.206 186.626 177.655 195.536C162.091 186.002 150.622 181.6 142.947 179.971C132.295 177.71 107.764 174.738 96.9177 176.304C79.8171 178.774 44.4582 212.509 35.9653 222.879C38.4271 225.943 46.7893 235.778 47.7648 237.616C60.124 227.296 89.3752 204.29 92.4429 202.598Z" fill="#00020F"/>
<path d="M138.673 177.672C144.57 174.097 148.573 174.647 153.265 174.753C154.321 174.777 154.321 173.238 153.265 173.119C148.777 172.619 141.283 173.428 137.876 176.683C137.378 177.158 138.106 178.02 138.673 177.672Z" fill="#00020F"/>
<path d="M112.817 160.41C115.386 159.048 121.092 153.496 122.35 150.994C122.78 150.138 121.577 149.246 120.969 150.021C116.773 155.381 116.636 155.272 111.242 159.554C110.808 159.897 110.58 161.596 112.817 160.41Z" fill="#00020F"/>
<path d="M86.4857 167.326C68.6419 169.871 49.4438 184.618 50.5619 204.174C50.5619 205.058 51.8739 204.893 51.8951 204.042C52.3821 183.671 68.6274 172.999 86.6216 169.023C87.6908 168.794 87.5958 167.167 86.4857 167.326Z" fill="#00020F"/>
<path d="M63.8106 237.295C61.9772 235.84 60.405 234.084 59.1616 232.101C58.6745 231.624 56.2431 231.936 60.0856 235.992C63.9281 240.049 64.4825 237.772 63.8106 237.295Z" fill="#00020F"/>
<path d="M197.383 104.506C207.338 106.766 216.307 112.155 222.975 119.885C240.914 140.584 254.698 193.754 246.38 221.459C243.049 232.547 235.82 241.535 224.317 244.134C224.208 244.145 224.101 244.18 224.006 244.234C223.91 244.289 223.827 244.364 223.761 244.452C223.696 244.541 223.65 244.643 223.626 244.751C223.602 244.859 223.601 244.97 223.623 245.078C223.645 245.186 223.689 245.289 223.752 245.379C223.816 245.469 223.898 245.545 223.993 245.602C224.087 245.658 224.193 245.694 224.303 245.708C224.412 245.721 224.523 245.712 224.629 245.68C234.58 244.426 242.449 235.748 246.322 227.033C258.185 200.339 244.21 143.908 226.691 121.499C219.86 112.762 208.955 104.339 197.635 103.203C196.892 103.128 196.637 104.337 197.383 104.506Z" fill="#00020F"/>
<path d="M152.156 194.66C138.479 194.758 119.31 198.114 107.088 204.933C106.428 205.301 106.659 206.294 107.331 205.964C116.703 201.361 134.452 196.611 152.156 196.508C169.528 196.407 189.946 201.868 196.794 205.311C196.967 205.371 197.155 205.366 197.324 205.297C197.493 205.228 197.631 205.099 197.712 204.936C197.793 204.772 197.811 204.585 197.764 204.408C197.716 204.232 197.606 204.079 197.454 203.978C185.219 197.549 165.764 194.568 152.156 194.66Z" fill="#00020F"/>
<path d="M48.8829 134.253C50.1778 134.202 50.2345 131.898 48.834 131.869C46.7055 131.794 44.5743 131.853 42.4531 132.045C41.0896 132.189 41.5384 133.835 42.2301 133.991C44.438 134.244 46.6618 134.332 48.8829 134.253Z" fill="#00020F"/>
<path d="M43.451 154.044C43.1928 154.112 42.9675 154.271 42.8159 154.491C42.6644 154.711 42.5966 154.978 42.6248 155.243C42.653 155.509 42.7754 155.755 42.9699 155.939C43.1643 156.122 43.4179 156.229 43.6847 156.242C45.9128 156.116 48.1212 155.835 50.3388 155.571C51.7195 155.406 51.4186 153.004 50.0748 153.158C47.8678 153.417 45.699 153.648 43.451 154.044Z" fill="#00020F"/>
<path d="M41.8076 115.557C44.1806 115.659 46.558 115.578 48.9184 115.314C49.2461 115.304 49.5563 115.163 49.7807 114.924C50.0051 114.685 50.1254 114.367 50.115 114.039C50.1047 113.712 49.9646 113.402 49.7256 113.177C49.4866 112.953 49.1682 112.833 48.8406 112.843C47.712 112.885 42.4953 113.226 41.4868 113.738C41.3068 113.835 41.162 113.986 41.0728 114.17C40.9837 114.354 40.9549 114.562 40.9904 114.763C41.0259 114.965 41.124 115.15 41.2707 115.292C41.4174 115.435 41.6053 115.527 41.8076 115.557Z" fill="#00020F"/>
<path d="M124.012 85.762C124.39 83.9958 121.52 83.5074 121.161 85.1878C120.784 86.9526 123.653 87.4423 124.012 85.762Z" fill="#00020F"/>
<path d="M122.583 77.9312C123.016 77.8832 123.413 77.6704 123.693 77.3369C123.973 77.0034 124.114 76.5749 124.086 76.1403C124.059 75.7057 123.865 75.2986 123.545 75.0033C123.225 74.708 122.803 74.5474 122.368 74.5547C119.811 74.622 120.501 78.0276 122.583 77.9312Z" fill="#00020F"/>
<path d="M52.6343 95.2354C67.2256 95.7224 98.5294 95.4571 112.944 94.7588C114.491 94.6849 114.558 92.2508 112.944 92.3274C92.5722 93.2435 72.235 92.9399 52.6343 93.1933C52.3976 93.3525 52.2289 93.5945 52.1615 93.8717C52.0941 94.149 52.1328 94.4414 52.27 94.6915C52.365 94.8737 52.5142 95.0215 52.6343 95.2354Z" fill="#00020F"/>
<path fill-rule="evenodd" clip-rule="evenodd" d="M81.3298 14.6111C95.364 14.6111 100.278 31.288 92.196 37.1831C104.059 39.9458 119.199 49.1674 124.919 60.5814C108.927 62.7026 55.0657 64.2101 37.7407 63.0722C37.7407 53.262 52.9946 38.8463 71.7386 37.4642C62.5264 32.208 67.2955 14.6111 81.3298 14.6111ZM83.7308 34.9061C72.8078 36.4901 71.3585 22.5905 81.2902 21.7549C88.8194 21.12 91.7578 33.7405 83.7308 34.9061ZM141.277 42.4047C130.804 42.5748 117.863 42.785 111.847 42.8156C110.969 42.8195 110.923 41.3596 111.75 41.3319C115.112 41.2388 119.313 41.1358 123.834 41.025L123.834 41.025L123.834 41.025C132.005 40.8246 141.222 40.5987 148.423 40.3591C151.127 40.2693 151.224 40.7696 151.341 43.2776C151.711 51.2345 151.872 84.8721 151.544 102.616C151.525 103.757 150.057 103.757 150.057 102.484C150.081 83.6023 149.872 61.5107 149.648 42.2704C147.239 42.3078 144.38 42.3543 141.308 42.4042L141.278 42.4046L141.277 42.4047ZM170.988 128.329C172.437 137.731 184.956 135.293 192.651 129.943C220.967 134.398 227.962 187.631 207.407 195.599C193.497 200.994 185.908 197.065 174.994 191.415C169.231 188.433 162.542 184.97 153.507 182.147C153.243 180.17 153.582 178.159 154.48 176.378C159.645 166.164 188.355 171.893 196.629 174.851C199.694 175.945 200.392 175.038 197.685 174.014C196.674 173.637 195.642 173.288 194.611 172.958C195.515 169.572 194.698 162.069 193.473 158.756C193.26 158.187 192.252 158.359 192.402 158.979C193.495 163.397 193.753 167.979 193.161 172.491C185.768 170.279 164.261 166.703 156.587 171.995L156.435 171.957C152.093 170.873 146.69 169.526 140.546 172.967C144.116 162.682 147.181 153.999 152.043 145.39C152.335 144.797 151.443 144.322 151.071 144.895C148.687 149.111 146.525 153.449 144.592 157.89C144.279 157.776 143.961 157.659 143.637 157.541C132.494 153.469 115.057 147.096 115.887 134.866C117.169 115.876 158.187 102.328 164.859 101.092C165.097 101.7 165.475 102.244 165.964 102.677C166.453 103.109 167.038 103.42 167.671 103.582C166.474 107.379 166.961 115.664 167.671 117.939C161.658 120.099 154.364 124.856 150.57 127.53C149.864 127.543 148.977 127.577 147.99 127.614L147.989 127.614H147.989C144.234 127.758 139.029 127.957 136.757 127.239C135.988 126.996 135.686 127.796 136.427 128.105C140.757 129.914 148.213 129.3 155.65 128.687C161.212 128.228 166.763 127.771 170.988 128.329ZM137.506 107.989C137.506 109.177 139.012 109.058 138.994 107.882C138.813 95.8043 138.706 80.7464 138.609 66.905V66.904L138.608 66.886C138.584 63.4995 138.561 60.1859 138.537 57.0068L138.536 56.9004C138.515 54.0716 138.51 53.3517 136.28 53.4573C133.978 53.5657 130.337 53.5932 127.293 53.6162C126.22 53.6243 125.222 53.6318 124.383 53.6421C123.547 53.6514 123.712 54.9252 124.491 55.0519C128.63 55.3913 132.789 55.4173 136.932 55.1298C136.839 63.8919 137.004 73.2333 137.182 83.3366V83.3367V83.3368V83.337L137.182 83.3377C137.319 91.08 137.464 99.2697 137.506 107.989ZM33.38 203.346H33.381H33.382C37.9792 203.402 42.5694 203.456 47.1088 203.395C48.3245 203.379 48.3443 204.818 47.1721 204.835C44.8551 204.868 42.5371 204.906 40.2186 204.944H40.2182H40.2177C31.6451 205.086 23.0655 205.229 14.4982 205.078C14.0309 205.07 13.363 204.825 13.3498 203.648C13.1393 184.48 12.8245 165.194 12.5091 145.877C11.9581 112.121 11.4054 78.2685 11.4054 44.7706C11.4054 42.3774 11.5717 41.9748 13.5174 41.9299C22.0564 41.7332 31.0034 41.8655 39.6939 41.994H39.6939H39.694L39.6945 41.994L39.695 41.994C42.7846 42.0397 45.8418 42.0849 48.8366 42.1147C49.8385 42.1253 49.6696 43.5364 48.6136 43.5443C36.8216 43.6226 25.0296 43.6618 13.2376 43.6618C13.297 99.5743 14.0731 151.762 15.2611 203.395C21.246 203.201 27.3188 203.274 33.3792 203.346H33.3796H33.38ZM50.5619 189.699C50.3178 189.695 50.0147 189.689 49.6608 189.683H49.6606C44.9059 189.6 30.9682 189.354 27.4104 189.943C26.9995 159.555 27.2751 129.331 27.551 99.0677V99.0676L27.551 99.0672C27.6802 84.8974 27.8095 70.7189 27.8684 56.5107C27.8684 56.1318 34.7945 56.3457 35.4743 56.3787C37.6443 56.4737 37.214 55.1564 36.8853 54.9584C35.8122 54.3163 31.3423 54.5393 28.4051 54.6859L28.3938 54.6864C26.4481 54.7828 26.0759 55.1247 26.0006 57.2248C24.8577 89.1777 25.056 121.189 25.2543 153.182C25.3292 165.269 25.4041 177.353 25.4066 189.431C25.4066 191.512 25.6112 191.78 27.6506 191.706C35.5574 191.425 42.7171 191.31 50.6358 191.279C51.9439 191.268 51.8264 189.72 50.5619 189.699Z" fill="url(#paint0_linear_11680_176210)"/>
<path d="M47.5478 87.095C47.3071 87.1077 47.0918 87.019 46.9018 86.829C46.7118 86.639 46.6168 86.4237 46.6168 86.183V75.106C46.6168 74.8527 46.7055 74.6373 46.8828 74.46C47.0728 74.27 47.3008 74.175 47.5668 74.175C47.8201 74.175 48.0355 74.27 48.2128 74.46C48.4028 74.6373 48.4978 74.8527 48.4978 75.106V85.176L53.6658 84.834C53.9318 84.8213 54.1535 84.9037 54.3308 85.081C54.5081 85.2457 54.5968 85.4673 54.5968 85.746C54.5968 85.974 54.5081 86.1893 54.3308 86.392C54.1661 86.582 53.9698 86.6833 53.7418 86.696L47.5478 87.095ZM59.7004 87.114C58.763 87.114 57.9207 86.8543 57.1734 86.335C56.426 85.803 55.837 85.081 55.4064 84.169C54.9884 83.257 54.7794 82.2373 54.7794 81.11C54.7794 79.8307 55.039 78.659 55.5584 77.595C56.0777 76.531 56.768 75.695 57.6294 75.087C58.5034 74.4663 59.4407 74.156 60.4414 74.156C61.3787 74.156 62.221 74.4157 62.9684 74.935C63.7284 75.4543 64.3174 76.17 64.7354 77.082C65.166 77.994 65.3814 79.02 65.3814 80.16C65.3814 81.452 65.1217 82.63 64.6024 83.694C64.083 84.7453 63.3864 85.5813 62.5124 86.202C61.651 86.81 60.7137 87.114 59.7004 87.114ZM59.7004 85.309C60.3844 85.309 61.0114 85.0937 61.5814 84.663C62.164 84.2323 62.6264 83.6307 62.9684 82.858C63.3104 82.0853 63.4814 81.2113 63.4814 80.236C63.4814 79.3493 63.3294 78.583 63.0254 77.937C62.734 77.291 62.3414 76.8033 61.8474 76.474C61.366 76.132 60.8594 75.961 60.3274 75.961C59.6687 75.961 59.0607 76.1827 58.5034 76.626C57.946 77.0693 57.5027 77.6837 57.1734 78.469C56.844 79.2417 56.6794 80.122 56.6794 81.11C56.6794 81.9967 56.8187 82.7567 57.0974 83.39C57.376 84.0233 57.7434 84.5047 58.1994 84.834C58.668 85.1507 59.1684 85.309 59.7004 85.309ZM72.1206 87.114C71.0693 87.114 70.1636 86.8227 69.4036 86.24C68.6563 85.6573 68.0736 84.8403 67.6556 83.789C67.2503 82.7377 67.0223 81.5217 66.9716 80.141C66.9463 79.077 66.9336 78.355 66.9336 77.975L66.9526 76.512C66.9653 76.1953 66.9716 75.714 66.9716 75.068C66.9716 74.8653 67.0476 74.669 67.1996 74.479C67.3643 74.2763 67.6176 74.175 67.9596 74.175C68.2889 74.175 68.5233 74.2763 68.6626 74.479C68.8019 74.669 68.8716 74.8717 68.8716 75.087L68.8526 76.455C68.8399 76.721 68.8336 77.1263 68.8336 77.671C68.8336 78.0763 68.8463 78.811 68.8716 79.875C68.9223 81.4837 69.1946 82.801 69.6886 83.827C70.1953 84.853 71.0186 85.366 72.1586 85.366C73.0453 85.366 73.7989 85.0873 74.4196 84.53C75.0403 83.96 75.4203 83.0607 75.5596 81.832C75.6736 80.7427 75.7306 79.5203 75.7306 78.165L75.7116 75.125C75.7116 74.897 75.7813 74.6817 75.9206 74.479C76.0599 74.2763 76.3069 74.175 76.6616 74.175C77.0163 74.175 77.2569 74.2763 77.3836 74.479C77.5229 74.669 77.5926 74.8717 77.5926 75.087L77.6116 75.619C77.6496 76.911 77.6686 77.7913 77.6686 78.26C77.6686 79.5647 77.5926 80.806 77.4406 81.984C77.2253 83.5927 76.6869 84.853 75.8256 85.765C74.9643 86.6643 73.7293 87.114 72.1206 87.114ZM80.8215 87.114C80.5809 87.114 80.3655 87.019 80.1755 86.829C79.9855 86.639 79.8905 86.4237 79.8905 86.183L79.9095 75.106C79.9095 74.8527 79.9919 74.6373 80.1565 74.46C80.3339 74.27 80.5555 74.175 80.8215 74.175C80.9735 74.175 81.1192 74.213 81.2585 74.289C81.3979 74.3523 81.5119 74.4473 81.6005 74.574L87.5475 83.181V75.106C87.5475 74.8527 87.6362 74.631 87.8135 74.441C88.0035 74.251 88.2315 74.156 88.4975 74.156C88.7509 74.156 88.9662 74.251 89.1435 74.441C89.3335 74.631 89.4285 74.8527 89.4285 75.106V86.183C89.4285 86.449 89.3399 86.6707 89.1625 86.848C88.9852 87.0253 88.7635 87.114 88.4975 87.114C88.3582 87.114 88.2125 87.076 88.0605 87C87.9212 86.924 87.8072 86.8227 87.7185 86.696L81.7905 78.127L81.7715 86.183C81.7715 86.449 81.6765 86.6707 81.4865 86.848C81.3092 87.0253 81.0875 87.114 80.8215 87.114ZM97.2061 87.133C96.0661 87.133 95.0527 86.8353 94.1661 86.24C93.2921 85.6447 92.6144 84.8657 92.1331 83.903C91.6644 82.9277 91.4301 81.8953 91.4301 80.806C91.4301 79.7293 91.6834 78.678 92.1901 77.652C92.6967 76.6133 93.4061 75.771 94.3181 75.125C95.2427 74.4663 96.3004 74.137 97.4911 74.137C98.6057 74.137 99.5431 74.3777 100.303 74.859C101.076 75.3277 101.652 75.866 102.032 76.474C102.412 77.082 102.602 77.5633 102.602 77.918C102.602 78.184 102.52 78.3993 102.355 78.564C102.19 78.716 101.969 78.792 101.69 78.792C101.234 78.792 100.93 78.5893 100.778 78.184C100.55 77.576 100.17 77.0693 99.6381 76.664C99.1061 76.246 98.3904 76.037 97.4911 76.037C96.5537 76.037 95.7684 76.3157 95.1351 76.873C94.5144 77.4177 94.0584 78.0637 93.7671 78.811C93.4757 79.5583 93.3301 80.2233 93.3301 80.806C93.3301 81.49 93.4757 82.174 93.7671 82.858C94.0584 83.542 94.4954 84.112 95.0781 84.568C95.6734 85.0113 96.3827 85.233 97.2061 85.233C98.0167 85.233 98.7261 85.0303 99.3341 84.625C99.9421 84.207 100.392 83.6243 100.683 82.877H100.398C99.9674 82.9023 99.4924 82.9783 98.9731 83.105C98.7577 83.1683 98.5867 83.2 98.4601 83.2C98.2067 83.2 97.9851 83.1177 97.7951 82.953C97.6177 82.7757 97.5291 82.5413 97.5291 82.25C97.5291 81.8193 97.7571 81.509 98.2131 81.319C98.4284 81.2303 98.7767 81.1543 99.2581 81.091C99.7521 81.0277 100.252 80.996 100.759 80.996C101.481 80.996 102.184 81.1037 102.868 81.319C103.273 81.4457 103.476 81.7433 103.476 82.212C103.476 82.4273 103.413 82.6173 103.286 82.782C103.159 82.934 103.001 83.0417 102.811 83.105C102.71 83.1303 102.634 83.143 102.583 83.143C102.228 84.321 101.576 85.2837 100.626 86.031C99.6887 86.7657 98.5487 87.133 97.2061 87.133ZM106.27 87C106.004 87 105.776 86.9113 105.586 86.734C105.409 86.544 105.32 86.316 105.32 86.05V75.22C105.32 74.954 105.409 74.7323 105.586 74.555C105.776 74.365 106.004 74.27 106.27 74.27H113.851C114.117 74.27 114.339 74.365 114.516 74.555C114.693 74.7323 114.782 74.954 114.782 75.22C114.782 75.486 114.693 75.714 114.516 75.904C114.339 76.0813 114.117 76.17 113.851 76.17H107.201V79.438H112.977C113.243 79.438 113.465 79.5267 113.642 79.704C113.819 79.8813 113.908 80.103 113.908 80.369C113.908 80.635 113.819 80.863 113.642 81.053C113.465 81.2303 113.243 81.319 112.977 81.319H107.201V85.1H113.813C114.079 85.1 114.301 85.195 114.478 85.385C114.655 85.5623 114.744 85.784 114.744 86.05C114.744 86.316 114.655 86.544 114.478 86.734C114.301 86.9113 114.079 87 113.813 87H106.27Z" fill="#00020F"/>
<defs>
<linearGradient id="paint0_linear_11680_176210" x1="147.175" y1="41.5002" x2="25.8004" y2="178.347" gradientUnits="userSpaceOnUse">
<stop stop-color="#E41B64"/>
<stop offset="1" stop-color="#4791FF"/>
</linearGradient>
</defs>
</svg>
