<svg width="132" height="177" viewBox="0 0 132 177" fill="none" xmlns="http://www.w3.org/2000/svg">
<path d="M105.5 35.1105L111.972 35.1104C114.154 35.1103 115.933 36.8589 115.971 39.0406L116.993 97.6008L118.014 156.092C118.053 158.301 116.293 160.123 114.085 160.161L19.0991 161.819C16.8903 161.858 15.0685 160.098 15.0299 157.89L12.9892 40.9777C12.9502 38.7416 14.7522 36.9079 16.9886 36.9079L23 36.9079" stroke="url(#paint0_linear_19598_474614)" stroke-width="2" stroke-linecap="round" stroke-linejoin="round"/>
<path d="M32.5 25.7979L5.07043 25.7979C2.83398 25.7979 1.03201 27.6316 1.07104 29.8677L3.53843 171.224C3.57698 173.433 5.39882 175.192 7.60763 175.154L127.001 173.07C129.209 173.031 130.969 171.209 130.93 169.001L128.462 27.6246C128.424 25.396 126.571 23.6291 124.343 23.6962L91.5005 24.6856" stroke="url(#paint1_linear_19598_474614)" stroke-width="2" stroke-linecap="round" stroke-linejoin="round"/>
<path d="M35.2812 108.765C36.4584 108.718 36.51 106.624 35.2368 106.598C33.3017 106.53 31.3643 106.583 29.436 106.758C28.1964 106.888 28.6044 108.385 29.2332 108.526C31.2404 108.757 33.262 108.837 35.2812 108.765Z" fill="#EAECF3"/>
<path d="M30.3428 126.757C30.108 126.819 29.9032 126.963 29.7654 127.163C29.6276 127.363 29.566 127.606 29.5916 127.847C29.6173 128.089 29.7286 128.313 29.9053 128.479C30.0821 128.646 30.3126 128.744 30.5552 128.755C32.5808 128.641 34.5884 128.385 36.6044 128.145C37.8596 127.995 37.586 125.811 36.3644 125.952C34.358 126.187 32.3864 126.397 30.3428 126.757Z" fill="#EAECF3"/>
<path d="M28.8482 91.7685C31.0055 91.8618 33.1667 91.788 35.3126 91.5477C35.6105 91.5383 35.8924 91.411 36.0964 91.1937C36.3004 90.9765 36.4098 90.687 36.4004 90.3891C36.391 90.0912 36.2637 89.8093 36.0464 89.6053C35.8291 89.4013 35.5397 89.292 35.2418 89.3013C34.2158 89.3397 29.4734 89.6493 28.5566 90.1149C28.3929 90.2031 28.2612 90.3407 28.1802 90.508C28.0992 90.6753 28.0729 90.8639 28.1052 91.047C28.1375 91.2301 28.2267 91.3984 28.3601 91.5279C28.4934 91.6574 28.6642 91.7416 28.8482 91.7685Z" fill="#EAECF3"/>
<path d="M103.58 64.6823C103.923 63.0767 101.314 62.6327 100.988 64.1603C100.645 65.7647 103.254 66.2098 103.58 64.6823Z" fill="#EAECF3"/>
<path d="M102.28 57.564C102.673 57.5203 103.035 57.3268 103.289 57.0236C103.544 56.7204 103.672 56.3309 103.647 55.9358C103.622 55.5408 103.445 55.1706 103.154 54.9022C102.863 54.6338 102.48 54.4877 102.084 54.4944C99.7599 54.5556 100.388 57.6516 102.28 57.564Z" fill="#EAECF3"/>
<path d="M38.6916 73.2946C51.9564 73.7374 80.4144 73.4962 93.5184 72.8614C94.9248 72.7942 94.986 70.5814 93.5184 70.651C74.9988 71.4838 56.5104 71.2078 38.6916 71.4382C38.4764 71.583 38.3231 71.803 38.2619 72.055C38.2006 72.307 38.2357 72.5728 38.3604 72.8002C38.4468 72.9658 38.5824 73.1002 38.6916 73.2946Z" fill="white"/>
<path d="M74.6562 20.52C82.0038 15.1608 77.5362 0 64.7778 0C52.0194 0 47.6838 15.9972 56.0586 20.7756C39.0186 22.032 25.1514 35.1372 25.1514 44.0556C40.9014 45.09 89.8662 43.7196 104.404 41.7912C99.2046 31.4148 85.4406 23.0316 74.6562 20.52ZM66.9606 18.45C57.0306 19.89 55.713 7.254 64.7418 6.4944C71.5866 5.9172 74.2578 17.3904 66.9606 18.45Z" fill="url(#paint2_linear_19598_474614)"/>
<path d="M34.2483 65.6323C34.0295 65.6438 33.8337 65.5632 33.661 65.3904C33.4883 65.2177 33.4019 65.022 33.4019 64.8032V54.7332C33.4019 54.5029 33.4825 54.3071 33.6437 54.1459C33.8164 53.9732 34.0237 53.8868 34.2655 53.8868C34.4958 53.8868 34.6916 53.9732 34.8528 54.1459C35.0255 54.3071 35.1119 54.5029 35.1119 54.7332V63.8877L39.8101 63.5768C40.0519 63.5653 40.2534 63.6401 40.4146 63.8014C40.5758 63.951 40.6564 64.1526 40.6564 64.4059C40.6564 64.6132 40.5758 64.8089 40.4146 64.9932C40.2649 65.1659 40.0864 65.258 39.8792 65.2695L34.2483 65.6323ZM45.2961 65.6495C44.4439 65.6495 43.6782 65.4135 42.9988 64.9414C42.3194 64.4577 41.7839 63.8014 41.3924 62.9723C41.0124 62.1432 40.8224 61.2162 40.8224 60.1914C40.8224 59.0283 41.0585 57.9632 41.5306 56.9959C42.0027 56.0286 42.6303 55.2686 43.4133 54.7159C44.2079 54.1517 45.06 53.8695 45.9697 53.8695C46.8218 53.8695 47.5876 54.1056 48.267 54.5777C48.9579 55.0498 49.4933 55.7004 49.8733 56.5295C50.2648 57.3586 50.4606 58.2914 50.4606 59.3277C50.4606 60.5023 50.2245 61.5732 49.7524 62.5404C49.2803 63.4962 48.647 64.2562 47.8524 64.8204C47.0694 65.3732 46.2173 65.6495 45.2961 65.6495ZM45.2961 64.0086C45.9179 64.0086 46.4879 63.8129 47.0061 63.4214C47.5358 63.0298 47.9561 62.4829 48.267 61.7804C48.5779 61.078 48.7333 60.2835 48.7333 59.3968C48.7333 58.5907 48.5952 57.8941 48.3188 57.3068C48.0539 56.7195 47.697 56.2762 47.2479 55.9768C46.8103 55.6659 46.3497 55.5104 45.8661 55.5104C45.2673 55.5104 44.7145 55.712 44.2079 56.115C43.7012 56.518 43.2982 57.0765 42.9988 57.7904C42.6994 58.4929 42.5497 59.2932 42.5497 60.1914C42.5497 60.9974 42.6764 61.6883 42.9297 62.2641C43.183 62.8398 43.517 63.2774 43.9315 63.5768C44.3576 63.8647 44.8124 64.0086 45.2961 64.0086ZM56.5872 65.6495C55.6314 65.6495 54.8081 65.3847 54.1172 64.855C53.4378 64.3253 52.9081 63.5826 52.5281 62.6268C52.1596 61.671 51.9523 60.5656 51.9063 59.3104C51.8832 58.3432 51.8717 57.6868 51.8717 57.3414L51.889 56.0114C51.9005 55.7235 51.9063 55.2859 51.9063 54.6986C51.9063 54.5144 51.9753 54.3359 52.1135 54.1632C52.2632 53.9789 52.4935 53.8868 52.8044 53.8868C53.1038 53.8868 53.3169 53.9789 53.4435 54.1632C53.5702 54.3359 53.6335 54.5201 53.6335 54.7159L53.6163 55.9595C53.6047 56.2014 53.599 56.5698 53.599 57.065C53.599 57.4335 53.6105 58.1014 53.6335 59.0686C53.6796 60.531 53.9272 61.7286 54.3763 62.6614C54.8369 63.5941 55.5853 64.0604 56.6217 64.0604C57.4278 64.0604 58.1129 63.8071 58.6772 63.3004C59.2414 62.7823 59.5869 61.9647 59.7135 60.8477C59.8172 59.8574 59.869 58.7462 59.869 57.5141L59.8517 54.7504C59.8517 54.5432 59.915 54.3474 60.0417 54.1632C60.1684 53.9789 60.3929 53.8868 60.7153 53.8868C61.0378 53.8868 61.2566 53.9789 61.3717 54.1632C61.4984 54.3359 61.5617 54.5201 61.5617 54.7159L61.579 55.1995C61.6135 56.3741 61.6308 57.1744 61.6308 57.6004C61.6308 58.7865 61.5617 59.915 61.4235 60.9859C61.2278 62.4483 60.7384 63.5941 59.9553 64.4232C59.1723 65.2407 58.0496 65.6495 56.5872 65.6495ZM64.4971 65.6495C64.2783 65.6495 64.0826 65.5632 63.9099 65.3904C63.7371 65.2177 63.6508 65.022 63.6508 64.8032L63.668 54.7332C63.668 54.5029 63.7429 54.3071 63.8926 54.1459C64.0538 53.9732 64.2553 53.8868 64.4971 53.8868C64.6353 53.8868 64.7677 53.9214 64.8944 53.9904C65.0211 54.048 65.1247 54.1344 65.2053 54.2495L70.6117 62.0741V54.7332C70.6117 54.5029 70.6923 54.3014 70.8535 54.1286C71.0262 53.9559 71.2335 53.8695 71.4753 53.8695C71.7056 53.8695 71.9014 53.9559 72.0626 54.1286C72.2353 54.3014 72.3217 54.5029 72.3217 54.7332V64.8032C72.3217 65.045 72.2411 65.2465 72.0799 65.4077C71.9186 65.5689 71.7171 65.6495 71.4753 65.6495C71.3486 65.6495 71.2162 65.615 71.078 65.5459C70.9514 65.4768 70.8477 65.3847 70.7671 65.2695L65.378 57.4795L65.3608 64.8032C65.3608 65.045 65.2744 65.2465 65.1017 65.4077C64.9405 65.5689 64.7389 65.6495 64.4971 65.6495ZM79.3922 65.6668C78.3558 65.6668 77.4346 65.3962 76.6285 64.855C75.834 64.3138 75.2179 63.6056 74.7803 62.7304C74.3543 61.8438 74.1412 60.9053 74.1412 59.915C74.1412 58.9362 74.3716 57.9804 74.8322 57.0477C75.2928 56.1035 75.9376 55.3377 76.7667 54.7504C77.6073 54.1517 78.5688 53.8523 79.6513 53.8523C80.6646 53.8523 81.5167 54.071 82.2076 54.5086C82.91 54.9347 83.434 55.4241 83.7794 55.9768C84.1249 56.5295 84.2976 56.9671 84.2976 57.2895C84.2976 57.5314 84.2228 57.7271 84.0731 57.8768C83.9234 58.015 83.7219 58.0841 83.4685 58.0841C83.054 58.0841 82.7776 57.8998 82.6394 57.5314C82.4322 56.9786 82.0867 56.518 81.6031 56.1495C81.1194 55.7695 80.4688 55.5795 79.6513 55.5795C78.7991 55.5795 78.0852 55.8329 77.5094 56.3395C76.9452 56.8347 76.5306 57.422 76.2658 58.1014C76.0009 58.7807 75.8685 59.3853 75.8685 59.915C75.8685 60.5368 76.0009 61.1586 76.2658 61.7804C76.5306 62.4023 76.9279 62.9204 77.4576 63.335C77.9988 63.738 78.6437 63.9395 79.3922 63.9395C80.1291 63.9395 80.774 63.7553 81.3267 63.3868C81.8794 63.0068 82.2882 62.4771 82.5531 61.7977H82.294C81.9025 61.8207 81.4706 61.8898 80.9985 62.005C80.8028 62.0626 80.6473 62.0914 80.5322 62.0914C80.3019 62.0914 80.1003 62.0165 79.9276 61.8668C79.7664 61.7056 79.6858 61.4926 79.6858 61.2277C79.6858 60.8362 79.8931 60.5541 80.3076 60.3814C80.5034 60.3007 80.82 60.2317 81.2576 60.1741C81.7067 60.1165 82.1616 60.0877 82.6222 60.0877C83.2785 60.0877 83.9176 60.1856 84.5394 60.3814C84.9079 60.4965 85.0922 60.7671 85.0922 61.1932C85.0922 61.3889 85.0346 61.5617 84.9194 61.7114C84.8043 61.8495 84.6603 61.9474 84.4876 62.005C84.3955 62.028 84.3264 62.0395 84.2803 62.0395C83.9579 63.1104 83.3649 63.9856 82.5013 64.665C81.6491 65.3329 80.6128 65.6668 79.3922 65.6668ZM87.6322 65.5459C87.3904 65.5459 87.1831 65.4653 87.0104 65.3041C86.8492 65.1314 86.7686 64.9241 86.7686 64.6823V54.8368C86.7686 54.595 86.8492 54.3935 87.0104 54.2323C87.1831 54.0595 87.3904 53.9732 87.6322 53.9732H94.524C94.7658 53.9732 94.9673 54.0595 95.1286 54.2323C95.2898 54.3935 95.3704 54.595 95.3704 54.8368C95.3704 55.0786 95.2898 55.2859 95.1286 55.4586C94.9673 55.6198 94.7658 55.7004 94.524 55.7004H88.4786V58.6714H93.7295C93.9713 58.6714 94.1728 58.752 94.334 58.9132C94.4952 59.0744 94.5758 59.2759 94.5758 59.5177C94.5758 59.7595 94.4952 59.9668 94.334 60.1395C94.1728 60.3007 93.9713 60.3814 93.7295 60.3814H88.4786V63.8186H94.4895C94.7313 63.8186 94.9328 63.905 95.094 64.0777C95.2552 64.2389 95.3358 64.4404 95.3358 64.6823C95.3358 64.9241 95.2552 65.1314 95.094 65.3041C94.9328 65.4653 94.7313 65.5459 94.4895 65.5459H87.6322Z" fill="#EAECF3"/>
<defs>
<linearGradient id="paint0_linear_19598_474614" x1="-4" y1="18" x2="139" y2="181.5" gradientUnits="userSpaceOnUse">
<stop stop-color="#37A1FF"/>
<stop offset="1" stop-color="#D4145A"/>
</linearGradient>
<linearGradient id="paint1_linear_19598_474614" x1="-2" y1="20" x2="136.5" y2="175" gradientUnits="userSpaceOnUse">
<stop stop-color="#37A1FF"/>
<stop offset="1" stop-color="#D4145A"/>
</linearGradient>
<linearGradient id="paint2_linear_19598_474614" x1="76.9201" y1="6.26752" x2="53.041" y2="50.31" gradientUnits="userSpaceOnUse">
<stop stop-color="#E41B64"/>
<stop offset="1" stop-color="#4791FF"/>
</linearGradient>
</defs>
</svg>
