<svg width="281" height="224" viewBox="0 0 281 224" fill="none" xmlns="http://www.w3.org/2000/svg">
<path d="M65.812 68.9429C66.1111 68.3432 66.3269 67.7055 66.4532 67.0473C69.3638 67.6661 71.5576 65.9623 73.2292 63.7489C75.8889 60.2066 77.9092 56.2267 79.1988 51.9889C79.2261 51.8682 79.2066 51.7416 79.1442 51.6348C79.0817 51.5279 78.9811 51.4487 78.8626 51.4132C78.744 51.3776 78.6164 51.3884 78.5055 51.4433C78.3946 51.4982 78.3086 51.5931 78.265 51.7089C75.6806 57.6855 71.7732 67.6395 66.0052 65.6039C63.8492 64.8423 62.592 62.8921 61.2298 61.1239C60.8952 60.6899 60.3422 61.2205 60.4836 61.6461C61.4116 63.8772 63.1461 65.6768 65.3416 66.6861C65.1444 67.3295 65.0167 67.9923 64.9608 68.6629C64.9475 68.768 64.9712 68.8745 65.0277 68.9641C65.0843 69.0536 65.1703 69.1207 65.271 69.1538C65.3716 69.1869 65.4806 69.184 65.5794 69.1455C65.6781 69.107 65.7603 69.0354 65.812 68.9429Z" fill="#191919"/>
<path d="M56.2068 62.0472C57.2661 60.0894 58.5563 58.2657 60.0498 56.6152C60.8016 55.6716 59.5066 55.1298 58.9298 54.7644C57.7776 54.0336 57.8952 52.7722 58.437 51.6144C59.2406 49.9008 61.7228 49.3744 62.168 51.1454C62.2884 51.6228 62.6454 51.6732 63.148 51.4254C65.2311 50.4386 66.8589 48.694 67.6994 46.5478C70.9012 48.8536 82.328 51.7656 88.4292 46.7788C93.5672 42.5788 86.2662 39.8544 80.557 41.1788C84.9894 37.97 77.3566 35.2078 71.597 38.5734C70.9628 33.0812 60.1422 31.7386 60.4712 48.6856C56.5036 49.0692 55.315 54.8274 58.9032 56.1994C57.4451 57.8071 56.2808 59.6585 55.4634 61.6692C55.266 62.169 55.9394 62.568 56.2068 62.0472Z" fill="#191919"/>
<path d="M65.9599 59.4203C65.9329 60.0181 66.096 60.609 66.4257 61.1083C66.7555 61.6076 67.235 61.9896 67.7953 62.1993C68.3777 62.3253 68.6241 61.8409 68.1915 61.4083C67.4453 60.6621 67.0099 60.3934 67.0575 59.237C67.0911 58.4194 66.0873 58.4347 65.9599 59.4203Z" fill="#191919"/>
<path d="M76.1077 53.5195C76.3611 53.9297 76.7405 53.5713 76.6747 53.0785C76.6415 52.8256 76.5479 52.5843 76.4016 52.3752C76.2554 52.1661 76.0609 51.9953 75.8347 51.8773C75.0367 51.5483 74.6797 52.4261 75.2299 52.7285C75.5802 52.9201 75.8809 53.191 76.1077 53.5195Z" fill="#191919"/>
<path d="M74.5863 56.0014C73.9829 55.5814 72.8839 57.4938 73.6161 57.8214C74.3483 58.149 75.0273 56.3192 74.5863 56.0014Z" fill="#191919"/>
<path d="M71.0196 59.7354C72.0402 59.37 72.8928 55.9428 72.4 55.3688C72.12 55.0482 71.896 55.1966 71.7 56.115C71.3038 57.9574 71 58.6896 70.678 58.698C70.356 58.7064 69.6784 58.1758 69.4012 58.7876C69.124 59.3994 70.5254 59.9104 71.0196 59.7354Z" fill="#191919"/>
<path d="M69.6917 53.7498C68.9511 52.7908 67.7821 55.2422 68.4835 55.7098C69.1848 56.1774 70.0808 54.2552 69.6917 53.7498Z" fill="#191919"/>
<path d="M70.5265 50.0987C69.5787 49.6311 67.1875 50.1421 67.7727 51.1445C68.0429 51.6051 68.5721 51.1333 70.2927 51.1963C70.8177 51.2159 70.9815 50.3241 70.5265 50.0987Z" fill="#191919"/>
<path d="M67.8181 126.74C67.1769 126.74 67.1629 127.849 67.7593 127.934C69.6787 128.207 73.3397 127.593 75.9675 129.375C77.0553 130.111 77.2653 130.775 77.7357 130.993C78.2061 131.212 79.3541 130.791 76.8257 128.473C74.9805 126.796 71.7605 126.513 67.8181 126.74Z" fill="#191919"/>
<path d="M72.0938 138.296C74.7538 138.889 77.439 137.617 82.1234 138.436C83.0194 138.591 83.1538 137.369 82.2424 137.204C75.6008 136.001 73.9586 138.419 69.3414 135.496C68.1668 134.752 67.2008 133.778 66.0878 132.959C65.9824 132.871 65.8492 132.823 65.7119 132.824C65.5746 132.825 65.4422 132.875 65.3381 132.965C65.2341 133.054 65.1652 133.178 65.1438 133.313C65.1224 133.449 65.1498 133.588 65.2212 133.705C66.8604 136.038 69.3111 137.675 72.0938 138.296Z" fill="#191919"/>
<path d="M122.516 173.846C122.204 174.079 122.18 174.746 122.583 174.741C124.504 174.685 126.421 174.937 128.262 175.487C128.802 175.658 129.008 175.003 128.822 174.741C128.321 173.876 123.444 173.156 122.516 173.846Z" fill="#191919"/>
<path d="M126.499 163.345C125.44 163.271 123.725 162.816 123.699 163.703C123.666 165.033 130.352 164.991 129.407 163.264C128.961 162.439 128.319 163.472 126.499 163.345Z" fill="#191919"/>
<path d="M115.44 154.46C114.827 152.969 118.52 151.955 119.581 157.505C119.795 158.625 120.726 158.079 120.701 157.505C120.613 155.931 119.992 154.433 118.94 153.259C116.14 150.168 112.92 153.259 114.626 154.982C114.957 155.287 115.634 154.936 115.44 154.46Z" fill="#191919"/>
<path d="M104.592 181.569C105.949 182.921 107.653 183.872 109.517 184.316C110.526 184.569 110.748 183.973 110.622 183.666C110.291 182.861 107.705 183.072 105.323 180.898C104.868 180.481 104.159 181.128 104.592 181.569Z" fill="#191919"/>
<path d="M118.121 189.083C109.475 188.424 105.884 187.348 100.681 189.471C98.325 190.431 97.4878 189.843 100.144 188.18C105.184 185.022 112.219 187.068 117.03 184.53C117.135 184.473 117.216 184.379 117.257 184.266C117.297 184.153 117.296 184.03 117.252 183.918C117.208 183.807 117.125 183.715 117.019 183.66C116.912 183.605 116.79 183.591 116.673 183.62C111.106 185.643 103.761 184.375 99.368 187.217C95.9772 189.411 97.3688 191.747 100.018 190.769C107.361 188.056 109.833 190.244 118.113 190.023C118.845 190.003 118.829 189.136 118.121 189.083Z" fill="#191919"/>
<path d="M108.642 177.405C106.755 182.046 113.6 181.725 116.53 176.972C116.797 176.538 116.292 175.778 115.598 176.331C114.903 176.884 113.871 178.782 111.501 179.316C108.512 179.988 109.851 177.755 110.285 176.853C110.626 176.143 109.359 175.643 108.642 177.405Z" fill="#191919"/>
<path d="M146.014 95.2917C146.121 95.3465 146.243 95.362 146.36 95.3353C146.477 95.3087 146.58 95.2417 146.653 95.1461C146.725 95.0505 146.761 94.9324 146.754 94.8128C146.748 94.6932 146.7 94.5797 146.618 94.4923C144.624 92.3923 140.246 96.1569 139.275 98.2233C138.792 99.2537 139.405 99.8893 140.066 99.0633C141.211 97.6451 143.895 94.1563 146.014 95.2917Z" fill="#191919"/>
<path d="M148.481 98.7221C147.727 98.5473 146.936 98.6491 146.251 99.0088C145.565 99.3686 145.032 99.9624 144.748 100.682C144.727 100.787 144.74 100.896 144.787 100.993C144.834 101.089 144.911 101.167 145.007 101.215C145.103 101.263 145.212 101.278 145.317 101.258C145.422 101.237 145.518 101.182 145.588 101.102C145.949 100.683 146.389 100.339 146.884 100.092C147.379 99.8447 147.918 99.6983 148.47 99.6615C148.948 99.6321 148.932 98.9419 148.481 98.7221Z" fill="#191919"/>
<path d="M146.1 102.985C146.074 103.085 146.08 103.191 146.118 103.286C146.156 103.382 146.224 103.464 146.311 103.518C146.399 103.573 146.501 103.599 146.604 103.592C146.707 103.584 146.805 103.545 146.884 103.478C147.361 102.947 147.823 101.986 148.548 101.986C149.651 101.986 148.333 104.035 148.645 104.269C149.395 104.829 150.441 102.666 149.734 101.508C148.839 100.047 146.707 101.298 146.1 102.985Z" fill="#191919"/>
<path d="M147.305 97.5085C148.126 97.7255 148.246 96.8645 147.521 96.4711C146.401 95.8635 143.947 96.9555 143.447 98.5711C143.387 98.7643 143.493 99.7583 144.545 98.7279C145.4 97.8893 146.1 97.1879 147.305 97.5085Z" fill="#191919"/>
<path d="M138.649 104.156C137.559 100.894 138.306 98.3503 135.962 95.4551C135.063 94.3305 133.938 93.4075 132.659 92.7461C132.548 92.6977 132.422 92.6899 132.305 92.7241C132.188 92.7583 132.087 92.8323 132.019 92.9334C131.951 93.0344 131.92 93.1561 131.932 93.2773C131.944 93.3986 131.999 93.5118 132.085 93.5973C134.624 96.1019 136.038 96.3147 136.565 100.925C136.861 103.53 138.02 107.424 139.909 109.312C140.438 109.842 141.142 109.083 140.841 108.499C139.926 107.152 139.189 105.692 138.649 104.156Z" fill="#191919"/>
<path d="M233.601 169.167C232.012 166.402 230.713 163.72 227.556 164.316C222.332 165.303 224.39 166.556 224.862 166.436C230.478 165.056 228.774 163.511 237.175 178.616C238.935 181.78 240.794 184.282 241.265 187.943C241.361 188.706 231.974 182.747 226.31 176.667C225.629 175.936 224.733 177.02 225.4 177.742C228.327 180.911 231.595 183.746 235.145 186.197C236.639 187.232 240.79 190.477 242.338 189.137C244.059 187.649 240.223 181.087 239.405 179.609C237.479 176.111 235.583 172.611 233.601 169.167Z" fill="#191919"/>
<path d="M240.372 145.61C235.247 143.54 229.791 141.069 224.604 139.273C220.785 137.952 217.613 140.445 216.784 144.012C216.738 144.162 216.753 144.323 216.824 144.462C216.895 144.602 217.017 144.708 217.165 144.759C217.313 144.81 217.475 144.802 217.617 144.736C217.758 144.671 217.869 144.553 217.926 144.407C219.022 141.699 220.908 139.542 224.12 140.676C229.28 142.496 234.62 144.911 239.745 146.976C242.051 147.903 242.825 148.355 238.477 148.961C233.603 149.639 228.621 149.341 223.724 150.624C223.565 150.688 223.435 150.807 223.358 150.959C223.282 151.111 223.263 151.286 223.306 151.451C223.349 151.617 223.451 151.76 223.593 151.855C223.734 151.951 223.906 151.991 224.075 151.968C229.343 150.589 234.784 151.228 240.035 150.223C244.379 149.39 244.679 147.347 240.372 145.61Z" fill="#191919"/>
<path d="M80.7198 188.187C78.232 186.13 70.1176 183.406 66.9998 182.479C66.0674 182.199 65.5676 183.301 66.5084 183.591C70.9931 185.167 75.3724 187.029 79.6194 189.164C79.6194 189.455 63.553 189.847 55.4862 189.366C53.9938 189.277 53.8748 189.255 54.2178 187.075C54.4514 185.753 54.7789 184.448 55.1978 183.172C55.3742 182.601 54.7078 181.993 54.3326 182.627C53.5161 184.036 52.9625 185.581 52.6988 187.187C52.3012 189.497 52.8262 190.547 54.474 190.791C58.863 191.452 75.3704 190.889 80.0772 190.642C82.1198 190.535 82.1198 189.346 80.7198 188.187Z" fill="#191919"/>
<path d="M31.7317 181.778C30.8917 181.378 30.4087 182.528 31.2613 182.934C32.2735 183.416 43.9439 188.827 43.6555 189.307C43.5043 189.559 24.6351 189.422 22.9635 189.382C20.3735 189.319 17.2235 189.933 18.2777 186.695C18.8974 185.127 19.5983 183.593 20.3777 182.099C20.6297 181.508 19.6441 178.975 16.9827 186.18C15.2299 190.929 19.6315 190.671 22.8935 190.784C24.5945 190.843 33.6231 191.027 39.6935 190.957C43.9327 190.906 45.0527 190.665 45.3201 190.257C47.1849 187.452 33.6693 182.699 31.7317 181.778Z" fill="#191919"/>
<path d="M100.159 167.48C106.284 165.356 107.274 158.143 103.345 153.302C99.7055 148.822 89.0333 147.034 83.0455 156.414C77.6135 164.927 80.9245 174.653 86.1129 179.934C89.1341 183.014 89.4561 181.583 88.5601 179.412C86.3761 174.12 87.5675 166.301 90.9177 165.084C94.2679 163.868 94.0607 169.595 100.159 167.48Z" fill="#191919"/>
<path d="M122.121 162.368C119.894 158.063 111.092 153.197 105.891 155.816C108.331 161.868 105.681 167.755 98.9355 168.703C100.912 178.038 114.778 176.123 118.979 174.592C124.151 172.706 124.348 166.675 122.121 162.368Z" fill="#191919"/>
<path d="M198.451 168.152C197.801 169.494 197.037 170.777 196.167 171.987C195.858 172.415 195.376 172.127 195.593 171.689C199.102 164.706 202.766 156.131 202.549 148.191C202.171 134.446 188.829 123.088 167.059 132.52C177.259 144.183 174.164 160.559 169.819 175.01C168.188 180.436 170.288 190.68 178.779 190.68C189.032 190.68 219.343 179.226 224.089 178.375C224.022 175.935 223.47 167.532 222.597 165.399C213.928 165.869 205.854 166.36 198.451 168.152Z" fill="#191919"/>
<path d="M216.075 164.607C218.441 161.764 223.246 154.645 224.104 153.674C222.269 151.906 216.329 145.966 215.486 144.832C211.563 148.116 207.463 151.183 203.204 154.019C202.376 158.523 200.965 162.9 199.004 167.039C204.627 165.81 210.333 164.997 216.075 164.607Z" fill="#191919"/>
<path d="M45.0879 124.199C48.2155 129.603 51.1989 139.504 51.1079 143.81C50.9889 149.585 48.4367 156.056 46.1911 161.347C49.4517 168.681 53.1449 177.447 53.9443 181.203C58.6662 181.448 63.3976 181.447 68.1194 181.2C68.1194 164.933 64.492 144.636 59.9993 134.607C53.5901 129.726 46.4935 123.981 41.3443 114.727C29.4051 113.593 16.0995 105.026 14.0177 101.295C11.9653 129.539 25.8155 142.517 26.7031 146.815C27.5907 151.113 21.2865 174.61 19.0255 179.909C23.777 180.468 28.5619 180.692 33.3447 180.58C39.9247 171.917 50.1447 153.799 49.7611 142.71C49.5539 136.569 46.8141 130.412 44.3963 124.472C44.3716 124.383 44.3806 124.288 44.4218 124.205C44.4629 124.122 44.5333 124.058 44.6192 124.024C44.7051 123.99 44.8006 123.989 44.8872 124.021C44.9737 124.054 45.0453 124.117 45.0879 124.199Z" fill="#191919"/>
<path fill-rule="evenodd" clip-rule="evenodd" d="M59.1329 26.5349C59.2001 26.5913 59.2794 26.6315 59.3646 26.6524C59.4499 26.6733 59.5388 26.6744 59.6245 26.6556C59.7102 26.6368 59.7905 26.5986 59.8591 26.544C59.9278 26.4893 59.983 26.4196 60.0205 26.3403C60.4405 25.4611 59.3891 20.5009 59.0405 19.6203C58.9159 19.3137 57.7035 18.6277 57.9205 20.6199L57.934 20.7432C58.0706 21.9931 58.4921 25.8495 59.1329 26.5349ZM49.5961 29.638C49.6786 30.0636 49.2012 30.2932 48.8498 30.2274C48.1492 30.097 45.387 26.84 43.9559 25.1526L43.9559 25.1525C43.62 24.7564 43.3574 24.4468 43.2121 24.2844C42.7178 23.7244 43.5131 22.8844 44.0521 23.4444C44.2347 23.6342 44.5572 23.9493 44.9582 24.3408C46.5862 25.9306 49.5062 28.7821 49.5961 29.638ZM39.0972 40.3318C41.438 40.36 43.775 40.1323 46.0663 39.6528C46.141 39.5984 46.2005 39.5258 46.239 39.4419C46.2776 39.3579 46.2939 39.2655 46.2865 39.1734C46.279 39.0814 46.248 38.9928 46.1965 38.9161C46.145 38.8395 46.0746 38.7774 45.9921 38.7358C43.652 38.534 41.2966 38.5941 38.9698 38.915C37.7616 39.1376 37.8512 40.2688 39.0972 40.3318ZM104.31 76.3298C109.63 67.185 112.249 62.7498 116.63 56.3378C124.121 45.3996 132.003 43.4004 144.06 47.0922C164.614 53.3875 185.241 60.3794 205.804 67.3493L205.804 67.3494C216.241 70.8871 226.661 74.4192 237.046 77.8516C246.746 81.0576 253.053 83.4264 254.462 94.8882C255.265 101.402 254.135 110.782 252.97 118.767C252.942 118.857 252.934 118.953 252.946 119.047C252.958 119.141 252.989 119.232 253.038 119.313C253.088 119.394 253.154 119.463 253.232 119.517C253.31 119.571 253.399 119.607 253.492 119.624C253.585 119.641 253.681 119.639 253.773 119.616C253.865 119.593 253.952 119.551 254.026 119.493C254.101 119.434 254.163 119.361 254.207 119.277C254.251 119.193 254.277 119.101 254.283 119.006C255.402 112.13 256.01 105.181 256.103 98.216C255.79 82.4148 247.689 79.7744 235.318 75.7423L235.317 75.742C234.585 75.5033 233.838 75.2597 233.076 75.0082L148.396 47.0404C133.896 42.2496 124.983 41.8142 115.636 55.4124C111.193 61.8778 107.146 68.6064 103.517 75.5612C103.223 76.1114 103.988 76.8814 104.31 76.3298ZM140.625 78.9857C140.625 77.6725 140.155 71.8457 139.521 71.1065C139.47 71.0524 139.408 71.009 139.34 70.979C139.271 70.949 139.198 70.9329 139.123 70.9317C139.048 70.9305 138.974 70.9443 138.905 70.9721C138.836 71 138.773 71.0414 138.72 71.0939C138.14 71.6539 139.094 78.3333 139.26 79.1425C139.598 80.7805 140.623 80.4781 140.625 78.9857ZM131.075 82.7323C131.917 83.9334 131.507 84.8351 130.194 83.8145C128.673 82.6702 127.229 81.4256 125.874 80.0891C125.062 79.2659 125.294 78.3825 126.448 78.9999C128.201 79.9574 129.768 81.2215 131.075 82.7323ZM70.3803 192.352H70.3813H70.3822H70.3831H70.384H70.3849H70.3858H70.3867H70.3876H70.3885H70.3893H70.3902H70.391H70.3918H70.3926H70.3934H70.3941C137.541 192.594 203.722 192.833 272.491 192.074C273.685 192.062 273.901 193.754 272.699 193.768C183.848 194.824 96.6395 195.125 8.48714 193.813C7.32234 193.796 7.10534 192.157 8.28554 192.157C29.1425 192.203 49.8067 192.278 70.3803 192.352ZM153.129 76.897C152.087 78.3982 150.965 79.8427 149.769 81.2244C149.041 82.0392 148.081 81.6094 148.762 80.516C149.74 78.9634 150.865 77.4794 152.002 75.994C152.815 74.9286 153.891 75.8358 153.129 76.897ZM235.7 126.856C234.293 131.073 233.132 135.369 232.222 139.721C232.082 140.465 233.103 140.601 233.32 139.938C233.939 138.037 234.585 135.682 235.242 133.283L235.242 133.283C235.875 130.972 236.519 128.62 237.163 126.594C238.666 121.859 239.823 119.842 245.454 121.162C249.794 122.177 261.292 126.09 264.295 128.788C266.889 131.119 266.115 134.676 265.275 137.639L264.981 138.682C260.179 155.733 255.38 172.775 250.261 189.449C249.549 189.264 248.841 189.073 248.133 188.882C246.948 188.562 245.765 188.242 244.567 187.956C243.076 187.601 242.514 188.565 244.157 189.173C245.627 189.677 247.122 190.103 248.637 190.448L248.787 190.486L248.906 190.517C250.685 190.972 251.225 191.11 251.763 189.344C256.35 174.306 260.737 158.807 265.054 143.474C265.263 142.729 265.508 141.946 265.761 141.14L265.761 141.139L265.761 141.139L265.761 141.138C267.125 136.784 268.699 131.76 265.979 128.512C263.039 125.004 251.324 121.262 246.533 119.983C239.128 118.007 237.675 120.664 235.7 126.856ZM219.943 180.351C220.066 180.283 220.209 180.262 220.345 180.293C221.075 180.512 221.805 180.728 222.536 180.943L222.536 180.943L222.536 180.943L222.536 180.943L222.537 180.943L222.537 180.943L222.537 180.944L222.538 180.944L222.538 180.944L222.538 180.944L222.539 180.944L222.539 180.944L222.539 180.944C224.722 181.587 226.904 182.23 229.06 182.972C229.769 183.215 229.553 184.369 228.807 184.241C227.382 183.996 221.33 181.86 219.98 181.36C219.853 181.301 219.752 181.197 219.698 181.068C219.643 180.94 219.638 180.795 219.683 180.663C219.728 180.53 219.821 180.419 219.943 180.351ZM115.53 100.515C120.278 102.139 125.584 103.693 130.648 105.175L130.651 105.176L130.661 105.179L130.663 105.18L130.67 105.182L130.675 105.183C132.344 105.672 133.987 106.153 135.574 106.626C135.663 106.652 135.756 106.661 135.848 106.652C135.94 106.642 136.029 106.614 136.111 106.57C136.192 106.526 136.264 106.467 136.323 106.395C136.381 106.323 136.425 106.241 136.451 106.152C136.478 106.063 136.486 105.97 136.477 105.878C136.467 105.786 136.44 105.697 136.396 105.615C136.352 105.534 136.292 105.462 136.22 105.403C136.149 105.345 136.066 105.301 135.977 105.275C134.534 104.846 133.036 104.395 131.509 103.935L131.507 103.935C126.256 102.353 120.668 100.67 115.829 99.462C115.701 99.4542 115.575 99.4902 115.47 99.5642C115.366 99.6381 115.29 99.7454 115.256 99.8683C115.221 99.9913 115.229 100.122 115.279 100.24C115.329 100.358 115.418 100.455 115.53 100.515ZM177.512 118.132C195.645 123.798 213.599 129.95 231.292 136.787C232.114 137.1 231.527 138.332 230.684 137.998C213.064 131.119 195.127 125.092 177.084 119.395C176.384 121.499 175.66 123.587 174.844 125.641C174.649 126.133 173.823 125.895 173.963 125.387C174.564 123.254 175.236 121.141 175.923 119.03C173.751 118.363 171.5 117.709 169.228 117.049L169.228 117.049L169.228 117.049L169.227 117.049C164.483 115.671 159.646 114.266 155.23 112.657C154.656 112.448 154.977 111.527 155.551 111.649C160.391 112.678 165.56 114.336 170.553 115.939C172.517 116.569 174.454 117.19 176.334 117.761C180.72 103.469 184.815 89.4605 188.84 75.0615C189.064 74.2621 190.331 74.4343 190.131 75.2547C186.626 89.6145 182.117 104.163 177.512 118.132ZM229.08 153.508C229.761 151.719 230.54 152.196 230.62 152.668C230.706 153.166 227.801 161.712 227.498 162.587C227.298 163.05 226.493 163.05 226.552 162.468C227.012 159.386 227.862 156.375 229.08 153.508ZM116.954 148.379L116.955 148.38L116.957 148.38L116.963 148.382C122.242 150.197 127.49 152.002 132.66 153.802C133.458 154.082 133.72 152.787 132.929 152.511C125.199 149.809 117.094 147.004 109.006 144.204C96.8366 139.992 84.703 135.793 73.9331 131.974C73.3549 131.769 72.9895 132.791 73.5803 133.012C87.622 138.292 102.405 143.376 116.954 148.379ZM79.5 111.075C78.1287 115.523 76.7571 119.971 75.3332 124.424C75.1512 124.991 74.1628 124.751 74.3098 124.141C77.3086 111.775 82.6636 95.5919 87.1366 83.0983C87.2099 82.8935 87.2817 82.691 87.3524 82.4912C88.6294 78.8859 89.5941 76.1624 94.2262 76.3083C99.3516 76.4679 113.409 79.4695 115.568 84.6201C116.892 87.7828 115.743 91.3026 114.734 94.3941L114.732 94.3989L114.731 94.4021C114.658 94.6265 114.586 94.8487 114.515 95.0683C110.302 108.092 106.106 121.121 101.926 134.155C101.642 135.043 100.304 134.505 100.584 133.624C104.892 120.296 109.193 106.959 113.486 93.6123L113.571 93.3476C114.542 90.3366 115.803 86.429 113.374 83.7325C110.874 80.9563 100.852 78.7233 97.1214 78.0765C91.898 77.1707 90.617 77.5081 88.9132 82.2177C85.4255 91.8566 82.4633 101.464 79.5 111.075L79.5 111.075ZM149.921 107.514C152.49 113.163 154.475 133.101 154.401 136.774C150.588 139.042 139.341 147.31 134.348 154.481C137.668 146.011 142.197 117.476 140.219 111.684C143.292 109.945 146.545 108.547 149.921 107.514ZM150.827 165.292C157.08 166.531 164.071 171.098 167.161 176.772C167.262 175.515 167.911 173.609 168.726 171.213C171.716 162.43 176.948 147.057 165.669 132.881C153.438 137.443 138.959 149.139 133.079 158.83C128.22 166.836 128.739 173.65 130.326 176.866C135.443 175.854 140.668 175.488 145.877 175.777C146.385 175.822 146.37 176.468 145.877 176.442C136.592 176.229 127.357 177.86 118.707 181.24C119.738 184.189 120.417 187.249 120.73 190.358C125.245 190.778 159.175 191.636 163.263 189.938C167.921 188.006 168.562 183.908 167.043 179.677C164.312 172.05 156.29 167.604 150.672 165.991C150.618 165.989 150.565 165.976 150.517 165.952C150.469 165.927 150.427 165.893 150.394 165.85C150.361 165.807 150.337 165.758 150.326 165.705C150.314 165.653 150.314 165.598 150.326 165.546C150.337 165.493 150.361 165.444 150.394 165.401C150.427 165.359 150.469 165.324 150.517 165.3C150.565 165.275 150.618 165.262 150.672 165.26C150.726 165.259 150.779 165.269 150.829 165.291L150.827 165.292ZM34.8793 83.6442C34.403 93.812 36.3844 103.945 40.6557 113.184C35.1103 112.214 19.1797 108.006 13.9395 98.8118C15.2093 78.7316 32.6701 55.199 54.5241 60.421C53.9935 68.1966 65.1347 75.6586 67.4251 68.1966C74.1949 72.844 73.3114 83.5106 72.4596 93.7941C71.7179 102.748 71.0003 111.412 75.3799 115.559C74.1045 120.089 73.5375 122.655 72.9257 125.507L72.5519 125.488C70.4507 125.38 69.4232 125.328 67.7023 125.328C67.9851 124.506 68.2903 123.637 68.6347 122.85C68.7943 122.484 68.7411 122.251 68.3435 121.924C62.6581 116.969 58.9274 110.148 57.8225 102.687C60.3327 100.65 65.5407 90.7212 66.3625 87.0616C66.4731 86.538 65.8795 86.4568 65.6625 86.9048C65.0906 88.084 64.5988 89.1278 64.1463 90.088C62.2781 94.0527 61.0818 96.5916 57.7007 101.344C57.3706 93.6367 57.7549 85.9149 58.8487 78.278C58.9047 77.7866 58.2663 77.7264 58.1557 78.1968C56.5246 86.2967 56 94.5804 56.5961 102.821C57.1337 108.725 62.6258 120.148 67.558 122.865C65.9444 126.66 64.6792 130.594 63.778 134.618C58.3909 133.648 44.6302 118.626 42.0108 113.208C37.5337 104.01 35.3281 93.8713 35.5793 83.6442C35.5793 83.0982 34.9199 83.0996 34.8793 83.6442Z" fill="#37A1FF"/>
<path fill-rule="evenodd" clip-rule="evenodd" d="M59.1329 26.5349C59.2001 26.5913 59.2794 26.6315 59.3646 26.6524C59.4499 26.6733 59.5388 26.6744 59.6245 26.6556C59.7102 26.6368 59.7905 26.5986 59.8591 26.544C59.9278 26.4893 59.983 26.4196 60.0205 26.3403C60.4405 25.4611 59.3891 20.5009 59.0405 19.6203C58.9159 19.3137 57.7035 18.6277 57.9205 20.6199L57.934 20.7432C58.0706 21.9931 58.4921 25.8495 59.1329 26.5349ZM49.5961 29.638C49.6786 30.0636 49.2012 30.2932 48.8498 30.2274C48.1492 30.097 45.387 26.84 43.9559 25.1526L43.9559 25.1525C43.62 24.7564 43.3574 24.4468 43.2121 24.2844C42.7178 23.7244 43.5131 22.8844 44.0521 23.4444C44.2347 23.6342 44.5572 23.9493 44.9582 24.3408C46.5862 25.9306 49.5062 28.7821 49.5961 29.638ZM39.0972 40.3318C41.438 40.36 43.775 40.1323 46.0663 39.6528C46.141 39.5984 46.2005 39.5258 46.239 39.4419C46.2776 39.3579 46.2939 39.2655 46.2865 39.1734C46.279 39.0814 46.248 38.9928 46.1965 38.9161C46.145 38.8395 46.0746 38.7774 45.9921 38.7358C43.652 38.534 41.2966 38.5941 38.9698 38.915C37.7616 39.1376 37.8512 40.2688 39.0972 40.3318ZM104.31 76.3298C109.63 67.185 112.249 62.7498 116.63 56.3378C124.121 45.3996 132.003 43.4004 144.06 47.0922C164.614 53.3875 185.241 60.3794 205.804 67.3493L205.804 67.3494C216.241 70.8871 226.661 74.4192 237.046 77.8516C246.746 81.0576 253.053 83.4264 254.462 94.8882C255.265 101.402 254.135 110.782 252.97 118.767C252.942 118.857 252.934 118.953 252.946 119.047C252.958 119.141 252.989 119.232 253.038 119.313C253.088 119.394 253.154 119.463 253.232 119.517C253.31 119.571 253.399 119.607 253.492 119.624C253.585 119.641 253.681 119.639 253.773 119.616C253.865 119.593 253.952 119.551 254.026 119.493C254.101 119.434 254.163 119.361 254.207 119.277C254.251 119.193 254.277 119.101 254.283 119.006C255.402 112.13 256.01 105.181 256.103 98.216C255.79 82.4148 247.689 79.7744 235.318 75.7423L235.317 75.742C234.585 75.5033 233.838 75.2597 233.076 75.0082L148.396 47.0404C133.896 42.2496 124.983 41.8142 115.636 55.4124C111.193 61.8778 107.146 68.6064 103.517 75.5612C103.223 76.1114 103.988 76.8814 104.31 76.3298ZM140.625 78.9857C140.625 77.6725 140.155 71.8457 139.521 71.1065C139.47 71.0524 139.408 71.009 139.34 70.979C139.271 70.949 139.198 70.9329 139.123 70.9317C139.048 70.9305 138.974 70.9443 138.905 70.9721C138.836 71 138.773 71.0414 138.72 71.0939C138.14 71.6539 139.094 78.3333 139.26 79.1425C139.598 80.7805 140.623 80.4781 140.625 78.9857ZM131.075 82.7323C131.917 83.9334 131.507 84.8351 130.194 83.8145C128.673 82.6702 127.229 81.4256 125.874 80.0891C125.062 79.2659 125.294 78.3825 126.448 78.9999C128.201 79.9574 129.768 81.2215 131.075 82.7323ZM70.3803 192.352H70.3813H70.3822H70.3831H70.384H70.3849H70.3858H70.3867H70.3876H70.3885H70.3893H70.3902H70.391H70.3918H70.3926H70.3934H70.3941C137.541 192.594 203.722 192.833 272.491 192.074C273.685 192.062 273.901 193.754 272.699 193.768C183.848 194.824 96.6395 195.125 8.48714 193.813C7.32234 193.796 7.10534 192.157 8.28554 192.157C29.1425 192.203 49.8067 192.278 70.3803 192.352ZM153.129 76.897C152.087 78.3982 150.965 79.8427 149.769 81.2244C149.041 82.0392 148.081 81.6094 148.762 80.516C149.74 78.9634 150.865 77.4794 152.002 75.994C152.815 74.9286 153.891 75.8358 153.129 76.897ZM235.7 126.856C234.293 131.073 233.132 135.369 232.222 139.721C232.082 140.465 233.103 140.601 233.32 139.938C233.939 138.037 234.585 135.682 235.242 133.283L235.242 133.283C235.875 130.972 236.519 128.62 237.163 126.594C238.666 121.859 239.823 119.842 245.454 121.162C249.794 122.177 261.292 126.09 264.295 128.788C266.889 131.119 266.115 134.676 265.275 137.639L264.981 138.682C260.179 155.733 255.38 172.775 250.261 189.449C249.549 189.264 248.841 189.073 248.133 188.882C246.948 188.562 245.765 188.242 244.567 187.956C243.076 187.601 242.514 188.565 244.157 189.173C245.627 189.677 247.122 190.103 248.637 190.448L248.787 190.486L248.906 190.517C250.685 190.972 251.225 191.11 251.763 189.344C256.35 174.306 260.737 158.807 265.054 143.474C265.263 142.729 265.508 141.946 265.761 141.14L265.761 141.139L265.761 141.139L265.761 141.138C267.125 136.784 268.699 131.76 265.979 128.512C263.039 125.004 251.324 121.262 246.533 119.983C239.128 118.007 237.675 120.664 235.7 126.856ZM219.943 180.351C220.066 180.283 220.209 180.262 220.345 180.293C221.075 180.512 221.805 180.728 222.536 180.943L222.536 180.943L222.536 180.943L222.536 180.943L222.537 180.943L222.537 180.943L222.537 180.944L222.538 180.944L222.538 180.944L222.538 180.944L222.539 180.944L222.539 180.944L222.539 180.944C224.722 181.587 226.904 182.23 229.06 182.972C229.769 183.215 229.553 184.369 228.807 184.241C227.382 183.996 221.33 181.86 219.98 181.36C219.853 181.301 219.752 181.197 219.698 181.068C219.643 180.94 219.638 180.795 219.683 180.663C219.728 180.53 219.821 180.419 219.943 180.351ZM115.53 100.515C120.278 102.139 125.584 103.693 130.648 105.175L130.651 105.176L130.661 105.179L130.663 105.18L130.67 105.182L130.675 105.183C132.344 105.672 133.987 106.153 135.574 106.626C135.663 106.652 135.756 106.661 135.848 106.652C135.94 106.642 136.029 106.614 136.111 106.57C136.192 106.526 136.264 106.467 136.323 106.395C136.381 106.323 136.425 106.241 136.451 106.152C136.478 106.063 136.486 105.97 136.477 105.878C136.467 105.786 136.44 105.697 136.396 105.615C136.352 105.534 136.292 105.462 136.22 105.403C136.149 105.345 136.066 105.301 135.977 105.275C134.534 104.846 133.036 104.395 131.509 103.935L131.507 103.935C126.256 102.353 120.668 100.67 115.829 99.462C115.701 99.4542 115.575 99.4902 115.47 99.5642C115.366 99.6381 115.29 99.7454 115.256 99.8683C115.221 99.9913 115.229 100.122 115.279 100.24C115.329 100.358 115.418 100.455 115.53 100.515ZM177.512 118.132C195.645 123.798 213.599 129.95 231.292 136.787C232.114 137.1 231.527 138.332 230.684 137.998C213.064 131.119 195.127 125.092 177.084 119.395C176.384 121.499 175.66 123.587 174.844 125.641C174.649 126.133 173.823 125.895 173.963 125.387C174.564 123.254 175.236 121.141 175.923 119.03C173.751 118.363 171.5 117.709 169.228 117.049L169.228 117.049L169.228 117.049L169.227 117.049C164.483 115.671 159.646 114.266 155.23 112.657C154.656 112.448 154.977 111.527 155.551 111.649C160.391 112.678 165.56 114.336 170.553 115.939C172.517 116.569 174.454 117.19 176.334 117.761C180.72 103.469 184.815 89.4605 188.84 75.0615C189.064 74.2621 190.331 74.4343 190.131 75.2547C186.626 89.6145 182.117 104.163 177.512 118.132ZM229.08 153.508C229.761 151.719 230.54 152.196 230.62 152.668C230.706 153.166 227.801 161.712 227.498 162.587C227.298 163.05 226.493 163.05 226.552 162.468C227.012 159.386 227.862 156.375 229.08 153.508ZM116.954 148.379L116.955 148.38L116.957 148.38L116.963 148.382C122.242 150.197 127.49 152.002 132.66 153.802C133.458 154.082 133.72 152.787 132.929 152.511C125.199 149.809 117.094 147.004 109.006 144.204C96.8366 139.992 84.703 135.793 73.9331 131.974C73.3549 131.769 72.9895 132.791 73.5803 133.012C87.622 138.292 102.405 143.376 116.954 148.379ZM79.5 111.075C78.1287 115.523 76.7571 119.971 75.3332 124.424C75.1512 124.991 74.1628 124.751 74.3098 124.141C77.3086 111.775 82.6636 95.5919 87.1366 83.0983C87.2099 82.8935 87.2817 82.691 87.3524 82.4912C88.6294 78.8859 89.5941 76.1624 94.2262 76.3083C99.3516 76.4679 113.409 79.4695 115.568 84.6201C116.892 87.7828 115.743 91.3026 114.734 94.3941L114.732 94.3989L114.731 94.4021C114.658 94.6265 114.586 94.8487 114.515 95.0683C110.302 108.092 106.106 121.121 101.926 134.155C101.642 135.043 100.304 134.505 100.584 133.624C104.892 120.296 109.193 106.959 113.486 93.6123L113.571 93.3476C114.542 90.3366 115.803 86.429 113.374 83.7325C110.874 80.9563 100.852 78.7233 97.1214 78.0765C91.898 77.1707 90.617 77.5081 88.9132 82.2177C85.4255 91.8566 82.4633 101.464 79.5 111.075L79.5 111.075ZM149.921 107.514C152.49 113.163 154.475 133.101 154.401 136.774C150.588 139.042 139.341 147.31 134.348 154.481C137.668 146.011 142.197 117.476 140.219 111.684C143.292 109.945 146.545 108.547 149.921 107.514ZM150.827 165.292C157.08 166.531 164.071 171.098 167.161 176.772C167.262 175.515 167.911 173.609 168.726 171.213C171.716 162.43 176.948 147.057 165.669 132.881C153.438 137.443 138.959 149.139 133.079 158.83C128.22 166.836 128.739 173.65 130.326 176.866C135.443 175.854 140.668 175.488 145.877 175.777C146.385 175.822 146.37 176.468 145.877 176.442C136.592 176.229 127.357 177.86 118.707 181.24C119.738 184.189 120.417 187.249 120.73 190.358C125.245 190.778 159.175 191.636 163.263 189.938C167.921 188.006 168.562 183.908 167.043 179.677C164.312 172.05 156.29 167.604 150.672 165.991C150.618 165.989 150.565 165.976 150.517 165.952C150.469 165.927 150.427 165.893 150.394 165.85C150.361 165.807 150.337 165.758 150.326 165.705C150.314 165.653 150.314 165.598 150.326 165.546C150.337 165.493 150.361 165.444 150.394 165.401C150.427 165.359 150.469 165.324 150.517 165.3C150.565 165.275 150.618 165.262 150.672 165.26C150.726 165.259 150.779 165.269 150.829 165.291L150.827 165.292ZM34.8793 83.6442C34.403 93.812 36.3844 103.945 40.6557 113.184C35.1103 112.214 19.1797 108.006 13.9395 98.8118C15.2093 78.7316 32.6701 55.199 54.5241 60.421C53.9935 68.1966 65.1347 75.6586 67.4251 68.1966C74.1949 72.844 73.3114 83.5106 72.4596 93.7941C71.7179 102.748 71.0003 111.412 75.3799 115.559C74.1045 120.089 73.5375 122.655 72.9257 125.507L72.5519 125.488C70.4507 125.38 69.4232 125.328 67.7023 125.328C67.9851 124.506 68.2903 123.637 68.6347 122.85C68.7943 122.484 68.7411 122.251 68.3435 121.924C62.6581 116.969 58.9274 110.148 57.8225 102.687C60.3327 100.65 65.5407 90.7212 66.3625 87.0616C66.4731 86.538 65.8795 86.4568 65.6625 86.9048C65.0906 88.084 64.5988 89.1278 64.1463 90.088C62.2781 94.0527 61.0818 96.5916 57.7007 101.344C57.3706 93.6367 57.7549 85.9149 58.8487 78.278C58.9047 77.7866 58.2663 77.7264 58.1557 78.1968C56.5246 86.2967 56 94.5804 56.5961 102.821C57.1337 108.725 62.6258 120.148 67.558 122.865C65.9444 126.66 64.6792 130.594 63.778 134.618C58.3909 133.648 44.6302 118.626 42.0108 113.208C37.5337 104.01 35.3281 93.8713 35.5793 83.6442C35.5793 83.0982 34.9199 83.0996 34.8793 83.6442Z" fill="url(#paint0_linear_20353_2081)"/>
<defs>
<linearGradient id="paint0_linear_20353_2081" x1="123.926" y1="79.3348" x2="31.8746" y2="120.13" gradientUnits="userSpaceOnUse">
<stop stop-color="#E41B64"/>
<stop offset="1" stop-color="#4791FF"/>
</linearGradient>
</defs>
</svg>
