<svg width="617" height="617" viewBox="0 0 617 617" fill="none" xmlns="http://www.w3.org/2000/svg">
<path d="M294.043 131.73C290.983 133.273 289.844 134.168 289.844 138.73C290.027 140.121 290.577 141.438 291.438 142.546C292.299 143.653 293.44 144.511 294.743 145.03C291.766 146.52 287.031 141.852 287.031 138.73C287.077 136.886 287.831 135.131 289.136 133.828C290.442 132.524 292.199 131.773 294.043 131.73Z" fill="#00020F"/>
<path d="M239.441 248.632C240.142 247.935 239.441 247.935 239.441 248.632V248.632Z" fill="#00020F"/>
<path d="M186.238 194.735C187.808 185.298 182.959 181.654 179.936 178.631C177.785 176.569 175.122 175.119 172.223 174.432C169.521 173.382 166.524 173.382 163.823 174.432L163.122 175.133V175.848C164.354 178.051 165.296 180.404 165.923 182.848C166.929 185.532 167.404 188.384 167.324 191.249C167.324 191.949 167.324 194.05 168.024 192.649C170.637 187.405 168.722 185.72 168.722 182.848C168.577 181.36 168.1 179.924 167.324 178.646C166.879 178.109 166.552 177.485 166.362 176.814C176.9 175.287 182.65 188.821 181.324 195.45C181.202 198.145 180.484 200.779 179.223 203.163C178.652 204.485 178.412 205.926 178.523 207.362C180.744 211.804 180.219 210.524 193.226 221.364L207.926 231.853C212.825 234.655 218.415 238.156 223.326 240.954C261.299 259.942 225.689 243.197 182.993 205.477C184.717 202.123 185.817 198.483 186.238 194.735Z" fill="#00020F"/>
<path d="M239.441 248.633L240.842 249.333C240.842 249.333 240.842 248.633 239.441 248.633Z" fill="#00020F"/>
<path d="M252.046 215.731C249.531 212.603 246.442 209.985 242.945 208.018C232.659 201.848 219.743 206.442 216.105 215.574C213.942 216.059 211.988 217.215 210.521 218.877C209.053 220.539 208.149 222.622 207.936 224.829C209.337 222.027 212.835 220.63 217.037 219.93C223.398 218.338 228.973 223.271 235.238 226.229C241.504 229.188 243.639 234.63 243.639 232.529C242.328 224.668 229.102 213.652 218.342 215.105C220.887 210.289 226.483 209.135 231.743 209.428C233.893 209.64 236.009 210.11 238.046 210.829C242.904 212.474 247.085 215.672 249.945 219.93C261.032 235.777 256.732 258.43 258.345 258.43C259.045 258.43 260.446 250.718 260.446 247.941C260.443 236.638 259.005 224.684 252.046 215.731Z" fill="#00020F"/>
<path d="M247.842 273.837C230.834 283.113 211.063 276.53 196.039 265.436C184.778 257.107 175.607 245.23 167.348 233.932C163.791 229.073 160.327 224.215 154.046 222.731C148.428 221.407 124.615 215.259 114.845 213.63C114.144 213.63 114.144 212.933 115.545 212.232C131.525 212.232 147.012 213.321 161.045 221.333C163.545 222.376 165.721 224.067 167.348 226.232C172.247 231.831 176.359 237.499 180.648 243.033C190.717 256.055 206.145 270.585 221.94 274.537C230.373 277.457 239.58 277.208 247.842 273.837Z" fill="#00020F"/>
<path d="M147.033 203.134C147.033 200.74 136.319 194.033 129.532 194.033C122.849 194.033 114.64 194.224 109.929 198.932C109.929 199.821 120.357 198.932 121.131 198.932C138.49 198.932 148.035 206.142 147.033 203.134Z" fill="#00020F"/>
<path d="M154.034 174.431C152.29 174.632 150.619 175.244 149.159 176.217C147.698 177.191 146.49 178.498 145.634 180.03C144.819 181.659 147.886 183.954 149.835 186.333C151.572 188.188 152.99 190.316 154.034 192.632V193.333C152.633 192.632 151.933 191.932 150.536 191.232C147.772 189.646 145.187 187.769 142.823 185.633C137.785 179.592 145.708 172.33 152.624 172.33C154.7 172.33 156.12 174.449 154.034 174.431Z" fill="#00020F"/>
<path d="M511.676 200.885C511.367 200.975 484.296 203.831 475.356 203.831C474.656 203.131 476.756 202.431 477.457 202.431C488.483 199.037 503.824 196.285 511.759 198.929C512.459 198.929 512.376 200.885 511.676 200.885Z" fill="#00020F"/>
<path d="M469.054 173.03C471.756 170.328 478.867 169.541 484.454 175.131C485.876 177.184 486.612 179.634 486.555 182.131C486.555 187.628 474.138 193.333 469.054 193.333V192.632C471.938 191.189 480.641 185.176 481.656 182.143C481.656 176.242 475.489 174.641 469.054 173.03Z" fill="#00020F"/>
<path d="M312.243 129.629C312.944 129.629 312.944 131.73 312.944 133.831C313.091 134.782 313.494 135.675 314.111 136.415C314.727 137.155 315.533 137.713 316.442 138.029C317.594 137.727 318.764 137.494 319.944 137.329C319.243 138.73 318.629 140.476 316.442 140.831C315.574 141.05 314.664 141.036 313.804 140.79C312.944 140.544 312.164 140.075 311.543 139.43C309.208 137.095 310.121 131.751 312.243 129.629Z" fill="#00020F"/>
<path d="M308.744 130.324C308.74 131.251 308.37 132.139 307.715 132.795C307.06 133.45 306.172 133.821 305.245 133.826C304.16 133.826 301.744 132.382 301.744 131.025C303.845 130.324 306.649 131.025 308.744 130.324Z" fill="#00020F"/>
<path d="M329.046 130.324C329.042 131.252 328.671 132.14 328.016 132.796C327.36 133.451 326.472 133.822 325.544 133.826C324.461 133.826 322.046 132.382 322.046 131.025C324.147 130.324 326.244 131.025 329.046 130.324Z" fill="#00020F"/>
<path d="M324.85 144.326C323.976 146.069 321.885 148.528 319.947 148.528C318.666 148.657 317.375 148.39 316.249 147.764C315.123 147.138 314.215 146.183 313.648 145.026C317.535 146.325 321.863 144.326 324.85 144.326Z" fill="#00020F"/>
<path d="M401.851 479.65L364.047 481.75C366.848 484.549 373.324 488.966 364.747 495.75C362.859 497.243 359.244 497.647 352.87 496.423C354.987 496.675 357.133 496.445 359.148 495.75C360.571 495.207 361.799 494.25 362.672 493.002C363.545 491.754 364.024 490.273 364.047 488.75C364.047 481.75 357.047 480.35 351.445 478.261C346.515 476.497 341.815 474.146 337.445 471.261C334.644 469.861 331.146 465.662 330.445 465.662C328.344 467.06 337.445 475.46 338.846 475.46C343.576 478.767 348.764 481.365 354.246 483.173C364.926 486.952 359.123 492.964 352.845 490.885C345.646 488.443 338.025 487.49 330.445 488.084C325.528 488.658 322.733 488.084 321.345 483.185C320.878 479.207 321.115 475.179 322.045 471.283C322.045 470.583 323.445 464.283 321.345 464.283C320.644 464.283 318.543 481.784 318.543 483.185C318.67 483.682 318.793 484.181 318.926 484.675L314.048 485.119C315.313 478.098 312.889 472.452 310.843 464.283C309.443 464.283 311.543 474.772 311.543 480.384C311.706 481.525 311.601 482.688 311.237 483.782C310.872 484.875 310.258 485.869 309.443 486.684C308.628 487.499 307.634 488.113 306.541 488.478C305.447 488.842 304.284 488.947 303.143 488.784C300.522 488.659 297.928 488.189 295.431 487.384C287.295 485.351 286 486.767 277.929 488.784C267.545 491.379 266.487 491.413 263.229 490.885C260.175 490.388 259.728 489.75 259.728 488.084C259.728 485.434 261.381 485.508 263.229 484.582C268.085 482.966 279.41 480.708 286.789 477.407C294.875 473.791 300.329 466.384 298.232 465.684C294.73 470.583 291.269 471.437 287.03 473.396C280.518 476.386 268.249 477.839 263.229 479.696C261.517 480.306 259.982 481.329 258.761 482.674C257.539 484.019 256.669 485.646 256.226 487.408C256.07 488.443 256.181 489.501 256.548 490.481C256.916 491.461 257.528 492.331 258.327 493.008C261.372 496.052 270.55 496.241 272.33 495.809C273.441 495.54 285.565 492.563 288.431 491.61C292.876 490.126 295.952 492.15 301.292 492.844C295.921 494.232 290.457 495.226 284.941 495.818C280.743 497.219 273.74 499.32 269.541 500.72C256.239 504.919 249.939 496.518 247.838 488.818L223.337 490.219L210.738 518.909L421.443 512.607L401.851 479.65Z" fill="url(#paint0_linear_8915_315490)"/>
<path d="M508.958 214.33C507.825 214.33 491.537 211.402 482.359 212.929C473.608 214.537 464.956 216.642 456.445 219.232L455.047 220.633C453.677 222.456 448.029 232.649 447.335 233.932C439.206 246.282 429.568 257.57 418.644 267.534C411.514 273.901 402.815 278.252 393.443 280.136C388.923 281.037 384.282 281.151 379.724 280.475C374.788 280.124 371.049 277.671 366.199 275.456C364.166 274.531 363.524 276.342 365.048 277.409C367.32 278.99 369.773 280.294 372.354 281.293C372.27 281.602 371.802 305.276 371.805 305.587C351.672 313.482 329.324 315.839 308.735 315.839C297.911 315.75 287.123 314.577 276.534 312.337C266.657 309.462 257.003 305.87 247.649 301.589C247.112 294.253 247.032 281.537 245.033 281.537C243.632 281.537 244.332 296.237 245.733 303.937V304.637L246.433 305.337C254.21 309.49 262.391 312.838 270.848 315.33C283.108 361.383 291.394 404.924 301.035 457.946C305.431 458.723 309.876 459.191 314.337 459.347C314.337 453.047 313.042 413.164 311.536 342.441C311.536 341.74 309.66 341.404 308.735 341.04C305.227 339.658 304.416 336.971 303.49 333.522C302.355 329.243 300.359 322.459 301.723 322.138C303.247 321.777 304.808 327.664 305.002 329.052C305.27 332.631 306.561 336.058 308.723 338.924C310.281 339.623 311.932 340.095 313.625 340.324C316.67 373.837 318.055 436.336 317.126 458.631C321.83 458.684 326.525 458.215 331.126 457.234C332.492 422.373 343.861 354.87 350.253 316.505C358.57 314.421 366.689 311.616 374.519 308.123L375.22 306.723C375.417 298.438 375.053 290.149 374.131 281.913C379.928 283.68 386.065 284.026 392.024 282.922C399.989 281.784 413.557 277.187 420.026 271.02C431.453 260.821 441.354 249.033 449.426 236.018C452.227 231.816 454.328 226.917 457.139 222.715C465.485 219.411 474.178 217.063 483.053 215.715C492.154 214.315 507.378 216.462 508.779 215.761C509.868 215.234 509.797 214.472 508.958 214.33Z" fill="#00020F"/>
<path d="M459.257 171.629C449.517 170.238 439.895 171.966 434.055 180.73C431.729 185.008 430.752 189.889 431.254 194.733C431.505 198.125 432.351 201.447 433.753 204.546C429.671 208.217 425.667 212.222 422.153 215.732C410.242 227.647 411.297 225.975 408.271 228.902C408.036 226.092 404.044 221.032 394.947 221.156C393.928 213.846 392.255 206.643 389.949 199.632C387.148 193.332 382.949 184.932 377.347 180.03C371.973 175.093 365.824 171.073 359.145 168.131C348.473 164.574 337.436 162.225 326.241 161.128C326.162 159.887 326.258 158.64 326.527 157.426C333.731 154.649 337.479 143.833 337.442 137.315C337.442 136.241 337.569 135.353 337.578 133.496C338.641 133.734 339.603 134.297 340.331 135.107C341.059 135.917 341.517 136.933 341.641 138.015C341.455 139.405 340.904 140.72 340.043 141.827C339.182 142.934 338.043 143.792 336.742 144.315C340.533 145.58 344.454 140.73 344.454 138.015C344.48 137.095 344.306 136.181 343.944 135.335C343.581 134.489 343.04 133.732 342.357 133.116C341.083 132.073 339.448 131.575 337.809 131.731C338.966 123.093 339.602 118.543 340.237 112.829C340.937 105.117 343.736 96.7286 338.136 91.8265C333.237 88.3281 328.335 88.3281 322.036 88.3281C315.364 88.9832 308.788 90.3918 302.434 92.5268C300.38 93.028 298.467 93.9854 296.834 95.328C295.077 97.2955 293.837 99.6693 293.226 102.235C292.614 104.802 292.651 107.48 293.333 110.028C294.033 114.23 294.733 123.331 295.434 132.431C293.327 145.058 298.519 154.501 304.38 157.552C304.04 158.716 303.855 159.919 303.831 161.131C302.006 161.058 300.18 161.21 298.392 161.585C298.137 161.23 297.803 160.94 297.415 160.738C297.028 160.536 296.599 160.428 296.162 160.421C283.088 161.663 270.553 166.242 259.759 173.721C254.258 177.472 249.51 182.22 245.759 187.721C242.258 193.323 237.356 201.023 235.958 207.323C237.664 205.614 247.144 185.277 261.872 177.923C271.635 171.832 282.638 168.004 294.073 166.721C293.908 171.62 295.652 176.392 298.938 180.03C311.655 193.267 331.331 184.42 335.033 166.363C338.389 166.823 341.354 167.375 345.133 168.131C353.728 169.793 361.813 173.444 368.743 178.793C375.672 184.141 381.253 191.038 385.038 198.932C388.518 206.051 391.184 213.54 392.985 221.258C388.538 221.753 384.199 222.961 380.135 224.833C374.654 227.181 369.714 230.629 365.62 234.964C361.525 239.299 358.365 244.428 356.335 250.035C363.098 240.995 372.003 233.778 382.249 229.035C389.585 225.382 402.301 221.662 406.963 230.13C405.211 231.717 403.378 233.211 401.471 234.606C393.7 229.63 380.185 234.946 376.649 240.234C384.235 240.234 387.037 238.278 398.821 236.485C390.578 242.134 384.63 244.778 377.347 249.334C383.286 247.914 388.959 245.551 394.151 242.334C399.808 239.305 405.194 235.796 410.251 231.845C420.74 224.133 429.15 214.344 438.251 205.931C436.359 202.465 435.171 198.659 434.752 194.733C434.011 190.868 434.761 186.865 436.853 183.531C439.109 180.533 442.105 178.172 445.546 176.678C448.988 175.184 452.759 174.608 456.489 175.007C454.263 176.688 452.6 179.005 451.718 181.652C450.837 184.299 450.779 187.151 451.553 189.831C452.087 191.312 453.654 192.632 453.654 191.932V191.231C453.19 188.536 453.542 185.763 454.664 183.269C455.787 180.774 457.628 178.672 459.954 177.232C459.954 177.232 463.455 175.131 463.455 173.73C463.455 172.33 459.257 171.629 459.257 171.629ZM298.938 103.725C299.639 101.624 306.651 93.9243 314.342 95.3249C310.829 96.7242 307.53 98.6089 304.541 100.924C301.746 103.04 298.247 105.126 298.938 103.725ZM302.44 177.232C298.346 173.132 298.938 168.985 298.938 164.562C300.805 164.611 302.671 164.626 304.538 164.629C305.095 164.629 305.63 164.408 306.024 164.014C306.419 163.62 306.641 163.086 306.642 162.529C306.674 161.123 306.583 159.717 306.37 158.327C311.05 159.706 318.454 159.561 317.84 158.327C317.84 156.926 312.941 159.027 305.941 154.825C304.231 153.76 302.778 152.328 301.688 150.633C300.598 148.938 299.898 147.023 299.639 145.024C298.71 140.892 298.474 136.635 298.938 132.425V128.226C300.339 126.129 304.541 119.126 305.241 119.826C312.201 120.879 319.28 120.879 326.241 119.826C327.641 119.826 332.543 128.927 333.953 131.728V137.327C333.65 142.477 332.217 147.497 329.754 152.03C328.253 154.229 326.354 156.128 324.155 157.63C323.682 159.933 323.447 162.278 323.455 164.629C323.455 165.604 325.145 165.145 333.327 166.141C327.095 180.813 314.055 188.844 302.446 177.232H302.44Z" fill="#00020F"/>
<defs>
<linearGradient id="paint0_linear_8915_315490" x1="431.077" y1="424.496" x2="249.268" y2="559.414" gradientUnits="userSpaceOnUse">
<stop stop-color="#37A1FF"/>
<stop offset="1" stop-color="#EB2C72"/>
</linearGradient>
</defs>
</svg>
