<svg width="20" height="20" viewBox="0 0 20 20" fill="none" xmlns="http://www.w3.org/2000/svg">
<path d="M6.99878 3.39355H19.004" stroke="black" stroke-width="1.5" stroke-linecap="round" stroke-linejoin="round"/>
<path d="M6.99878 10.5967H19.004" stroke="black" stroke-width="1.5" stroke-linecap="round" stroke-linejoin="round"/>
<path d="M6.99878 17.7998H19.004" stroke="black" stroke-width="1.5" stroke-linecap="round" stroke-linejoin="round"/>
<path d="M3.9974 0.992188H1.59635C1.26484 0.992188 0.996094 1.26093 0.996094 1.59245V3.99349C0.996094 4.325 1.26484 4.59375 1.59635 4.59375H3.9974C4.32891 4.59375 4.59766 4.325 4.59766 3.99349V1.59245C4.59766 1.26093 4.32891 0.992188 3.9974 0.992188Z" stroke="black" stroke-width="1.5" stroke-linecap="round" stroke-linejoin="round"/>
<path d="M3.9974 8.19531H1.59635C1.26484 8.19531 0.996094 8.46406 0.996094 8.79557V11.1966C0.996094 11.5281 1.26484 11.7969 1.59635 11.7969H3.9974C4.32891 11.7969 4.59766 11.5281 4.59766 11.1966V8.79557C4.59766 8.46406 4.32891 8.19531 3.9974 8.19531Z" stroke="black" stroke-width="1.5" stroke-linecap="round" stroke-linejoin="round"/>
<path d="M3.9974 15.3984H1.59635C1.26484 15.3984 0.996094 15.6672 0.996094 15.9987V18.3997C0.996094 18.7313 1.26484 19 1.59635 19H3.9974C4.32891 19 4.59766 18.7313 4.59766 18.3997V15.9987C4.59766 15.6672 4.32891 15.3984 3.9974 15.3984Z" stroke="black" stroke-width="1.5" stroke-linecap="round" stroke-linejoin="round"/>
</svg>
