<svg width="251" height="155" viewBox="0 0 251 155" fill="none" xmlns="http://www.w3.org/2000/svg">
<path d="M65.2874 64.127C65.2874 63.9765 65.0841 63.9501 65.0102 64.0517C64.5251 64.7372 64.3267 65.5849 64.4571 66.4145C64.5324 67.0428 64.6604 68.0434 65.3626 68.2744C65.4393 68.2946 65.5207 68.2851 65.5905 68.2476C65.6604 68.2101 65.7134 68.1475 65.7388 68.0724C65.8906 67.4943 65.4445 66.891 65.3428 66.3142C65.2287 65.5907 65.21 64.8553 65.2874 64.127Z" fill="#00020F"/>
<path d="M70.7408 54.0487C70.7308 53.274 70.6126 52.5045 70.3897 51.7625C70.3157 51.5605 69.9831 51.5104 69.9369 51.7625C69.8049 52.507 69.9871 53.9524 69.9871 56.4868C69.9871 60.5246 70.0953 62.4136 68.9561 63.0973C68.4297 63.3612 67.8356 63.4592 67.2523 63.3784C66.669 63.2975 66.124 63.0417 65.6891 62.6446C65.2931 62.2921 65.0357 61.7655 64.6081 61.4632C64.563 61.4373 64.5126 61.422 64.4608 61.4184C64.409 61.4147 64.357 61.4229 64.3087 61.4422C64.2605 61.4615 64.2172 61.4914 64.1822 61.5298C64.1472 61.5682 64.1213 61.614 64.1065 61.6638C63.8794 62.9455 65.5888 63.9765 66.6145 64.2523C67.2813 64.4733 68.0004 64.4807 68.6716 64.2737C69.3428 64.0667 69.9328 63.6555 70.3593 63.0973C70.9924 61.6256 71.2014 60.0061 70.9625 58.4219C70.9762 58.4236 70.99 58.4222 71.003 58.4178C71.016 58.4135 71.0279 58.4063 71.0378 58.3968C71.4589 58.1869 71.4232 57.721 72.1928 56.7389C72.5347 56.3099 71.9077 56.3904 70.7408 54.0487ZM70.8913 57.288C70.8662 56.628 70.8411 55.9561 70.816 55.308C71.0346 55.7296 71.2867 56.1331 71.5697 56.5145C71.3131 56.7439 71.0853 57.0036 70.8913 57.288Z" fill="#00020F"/>
<path d="M130.606 100.142C127.788 92.037 119.659 85.5941 112.46 80.714C104.721 75.4675 96.2525 71.386 87.327 68.6004C81.5085 66.858 75.2834 65.9063 69.4582 67.7714C69.3438 67.8095 69.2484 67.8902 69.1917 67.9967C69.1351 68.1032 69.1216 68.2273 69.154 68.3435C69.1864 68.4597 69.2622 68.559 69.3658 68.6208C69.4693 68.6826 69.5927 68.7023 69.7103 68.6756C79.2526 66.9346 87.9171 69.7316 96.8271 73.7022C104.975 77.3011 112.559 82.0583 119.346 87.8262C125.371 92.9861 132.018 100.996 129.525 109.791C127.677 116.336 120.153 123.86 114.647 127.837C108.236 132.388 100.913 135.492 93.1839 136.934C92.8064 137.007 92.7311 136.959 92.6559 136.884C92.1794 136.543 91.0785 136.741 91.2039 137.544C91.2213 137.716 91.304 137.874 91.435 137.986C91.566 138.099 91.7352 138.156 91.9074 138.147C95.5347 138.151 99.131 137.48 102.512 136.167C116.372 131.151 126.601 120.74 130.133 113.045C131.983 108.974 132.153 104.337 130.606 100.142Z" fill="#00020F"/>
<path d="M110.876 106.5C108.952 107.028 104.47 110.017 102.849 111.147C99.1442 108.866 89.2429 104.784 87.5282 105.194C87.4196 105.232 87.3237 105.3 87.2511 105.389C87.1784 105.479 87.1317 105.587 87.1162 105.701C87.1007 105.815 87.1168 105.931 87.163 106.037C87.2091 106.143 87.2834 106.233 87.3777 106.3C87.8681 106.588 88.4036 106.792 88.9617 106.903C93.367 108.224 97.66 109.893 101.8 111.896C97.8142 114.864 94.0134 118.073 90.419 121.505C88.8178 122.991 86.3719 125.102 84.6862 126.966C84.2295 127.471 85.2446 129.078 85.6195 129.648C87.1246 132.197 88.4594 134.843 89.6151 137.568C89.6656 137.693 89.7621 137.794 89.8849 137.85C90.0077 137.907 90.1473 137.914 90.2751 137.87C90.3867 137.794 90.4729 137.687 90.5221 137.561C90.5713 137.436 90.5814 137.298 90.551 137.167C89.481 133.677 87.8781 130.373 85.799 127.373C91.9013 122.72 98.2717 115.166 109.072 109.068C109.916 108.636 110.716 108.122 111.46 107.535C111.56 107.442 111.626 107.317 111.647 107.182C111.668 107.046 111.643 106.908 111.575 106.788C111.508 106.669 111.402 106.575 111.276 106.523C111.149 106.471 111.008 106.463 110.876 106.5Z" fill="#00020F"/>
<path d="M87.8769 106.953C87.8268 106.392 86.9107 106.269 86.7972 106.878C86.3908 109.95 85.7693 112.99 84.9373 115.975C84.4555 117.736 83.381 121.336 82.725 123.037C82.4206 123.642 82.233 124.298 82.1719 124.972C82.1922 125.136 82.2732 125.286 82.3988 125.393C82.5243 125.5 82.6855 125.556 82.8504 125.55C83.4998 125.55 83.9618 124.349 84.1822 123.741C85.5167 120.633 88.1845 110.352 87.8769 106.953Z" fill="#00020F"/>
<path d="M99.6431 146.235C98.034 147.878 96.6427 150.459 93.9882 152.065C92.889 152.829 91.5784 153.23 90.2398 153.212C88.9013 153.194 87.6019 152.758 86.5236 151.965C80.9281 147.573 78.9428 137.606 81.7993 133.221C83.0824 131.241 84.1423 131.23 85.0914 130.507C85.2907 130.355 85.3171 129.959 85.0162 129.904C84.3596 129.89 83.7085 130.025 83.1119 130.299C82.5153 130.574 81.9889 130.98 81.5723 131.488C78.5798 134.516 78.8174 140.415 80.1652 144.531C81.4706 148.516 84.8287 153.707 88.8112 154.383C91.2941 154.804 94.3235 153.987 97.1549 151.065C98.4268 149.792 99.4874 148.325 100.296 146.718C100.35 146.631 100.368 146.527 100.349 146.427C100.329 146.327 100.273 146.238 100.191 146.177C100.109 146.117 100.007 146.089 99.9059 146.1C99.8044 146.11 99.7107 146.159 99.6431 146.235Z" fill="#00020F"/>
<path d="M91.8766 147.84C93.097 147.756 94.2666 147.319 95.2439 146.583C96.0003 146.055 97.4299 145.076 97.4299 144.045C97.4284 144.003 97.4174 143.962 97.3977 143.926C97.378 143.889 97.3501 143.857 97.3162 143.833C97.2822 143.809 97.2431 143.793 97.202 143.786C97.1608 143.779 97.1186 143.782 97.0787 143.794C96.6888 144.019 96.3538 144.328 96.098 144.698C94.9352 145.948 93.4326 146.83 91.775 147.237C91.7057 147.261 91.6472 147.309 91.6099 147.372C91.5725 147.435 91.5587 147.509 91.5708 147.581C91.583 147.654 91.6204 147.719 91.6764 147.767C91.7324 147.814 91.8033 147.84 91.8766 147.84Z" fill="#00020F"/>
<path d="M91.749 144.878C92.7211 144.73 93.6438 144.352 94.4398 143.775C95.2358 143.197 95.8819 142.438 96.3241 141.559C96.4495 141.208 95.9769 140.987 95.7459 141.208C94.6706 142.597 93.2366 143.666 91.5985 144.3C91.5218 144.32 91.4562 144.369 91.4161 144.438C91.376 144.506 91.3647 144.587 91.3846 144.664C91.4046 144.741 91.4542 144.806 91.5225 144.846C91.5908 144.887 91.6723 144.898 91.749 144.878Z" fill="#00020F"/>
<path d="M130.027 1.98006C129.414 1.25407 128.555 0.779809 127.614 0.648181C123.544 0.337982 121.472 8.95758 125.528 10.6511C126.733 11.1541 129.173 11.0023 129.173 9.46974C129.161 9.39063 129.13 9.31557 129.083 9.25113C129.035 9.18669 128.973 9.13482 128.901 9.10005C128.829 9.06528 128.75 9.04868 128.67 9.05169C128.59 9.05469 128.512 9.07722 128.443 9.1173C128.089 9.38136 127.67 9.54237 127.231 9.58245C126.791 9.62253 126.35 9.5401 125.954 9.34433C123.762 7.98209 125.234 2.05134 127.388 1.85466C128.157 1.8799 128.904 2.11449 129.549 2.53314C129.924 2.73378 130.308 2.24406 130.027 1.98006Z" fill="#00020F"/>
<path d="M110.674 1.87441C110.057 1.14928 109.201 0.668119 108.261 0.517452C104.161 0.204612 102.14 8.96545 106.175 10.6458C107.382 11.1487 109.82 11.022 109.82 9.43933C109.811 9.35894 109.782 9.28212 109.735 9.21607C109.688 9.15001 109.626 9.09688 109.553 9.06166C109.48 9.02645 109.4 9.01029 109.319 9.0147C109.238 9.01911 109.16 9.04395 109.091 9.08689C108.74 9.35463 108.32 9.51793 107.88 9.55809C107.44 9.59824 106.997 9.51363 106.603 9.31393C104.407 7.91605 105.885 1.96417 108.035 1.72393C108.811 1.73455 109.564 1.97985 110.197 2.42749C110.574 2.60305 110.95 2.12653 110.674 1.87441Z" fill="#00020F"/>
<path d="M148.473 2.25065C147.857 0.963645 145.965 1.20784 145.031 2.05C143.989 3.33125 143.335 4.88325 143.146 6.52349C143.029 7.30097 143.126 8.09559 143.427 8.82191C143.728 9.54824 144.221 10.1788 144.854 10.6458C145.887 11.3454 148.439 11.756 148.876 10.2182C148.891 10.1489 148.89 10.077 148.872 10.0083C148.855 9.93952 148.822 9.87579 148.775 9.82212C148.729 9.76845 148.671 9.72632 148.605 9.69906C148.54 9.6718 148.469 9.66017 148.398 9.66508C147.606 9.66508 146.669 10.2485 145.634 9.43937C144.01 8.16953 144.676 5.22724 145.582 3.55876C145.965 2.85652 147.026 2.01172 147.87 2.7034C147.936 2.76328 148.021 2.79827 148.11 2.80237C148.199 2.80647 148.287 2.77942 148.358 2.72587C148.43 2.67232 148.48 2.5956 148.501 2.50889C148.522 2.42217 148.512 2.33087 148.473 2.25065Z" fill="#00020F"/>
<path d="M168.58 3.30657C167.35 1.08105 163.192 1.97864 162.825 7.32728C162.721 8.20223 162.803 9.08942 163.067 9.93006C163.332 10.7707 163.771 11.5456 164.358 12.2034C164.684 12.484 165.065 12.6929 165.477 12.8166C165.889 12.9404 166.322 12.9762 166.748 12.9216C167.175 12.8671 167.585 12.7235 167.953 12.5002C168.32 12.2768 168.637 11.9787 168.881 11.6252C168.92 11.5588 168.941 11.4832 168.942 11.4062C168.942 11.3292 168.922 11.2534 168.884 11.1864C168.846 11.1195 168.791 11.0638 168.724 11.025C168.658 10.9861 168.582 10.9655 168.505 10.9652C167.424 10.9784 166.21 11.9539 165.288 10.9903C163.999 9.64257 163.877 5.89509 165.313 4.20417C165.609 3.80652 166.049 3.54171 166.539 3.46753C167.028 3.39334 167.527 3.51579 167.927 3.80816C168 3.87425 168.093 3.91272 168.191 3.91683C168.289 3.92095 168.386 3.89045 168.464 3.83068C168.541 3.7709 168.596 3.68565 168.617 3.58984C168.639 3.49403 168.626 3.39376 168.58 3.30657Z" fill="#00020F"/>
<path d="M187.328 4.28738C187.2 4.00633 186.983 3.77523 186.71 3.62971C186.438 3.48419 186.125 3.43235 185.821 3.48218C185.429 3.53821 185.054 3.67703 184.72 3.88939C184.387 4.10175 184.102 4.38277 183.885 4.71374C183.465 5.34036 183.18 6.04784 183.048 6.79096C182.916 7.53407 182.941 8.29648 183.121 9.02944C183.301 9.7624 183.631 10.4498 184.092 11.0477C184.552 11.6456 185.133 12.1408 185.795 12.5017C187.102 13.1037 189.242 12.9294 189.716 11.6715C189.868 11.2755 189.107 10.8861 188.736 11.2451C188.401 11.5464 187.976 11.7292 187.526 11.7654C187.077 11.8017 186.628 11.6894 186.248 11.4457C185.398 10.8434 184.785 9.96346 184.514 8.95753C183.439 5.77897 186.03 3.59834 186.549 4.50914C186.767 4.89458 187.43 4.62002 187.328 4.28738Z" fill="#00020F"/>
<path d="M208.617 3.58251C207.879 3.32101 207.074 3.31523 206.332 3.56611C205.59 3.81698 204.954 4.30996 204.525 4.96587C204.097 5.70393 203.829 6.52377 203.738 7.37221C203.647 8.22064 203.735 9.07873 203.997 9.89079C204.325 11.1224 205.077 12.672 206.987 12.5308C208.439 12.4226 209.891 11.2728 209.677 10.0928C209.58 9.53835 208.665 9.78915 208.546 10.2683C208.426 10.6451 208.182 10.9699 207.853 11.1892C207.524 11.4085 207.13 11.5092 206.736 11.4748C205.58 11.2992 205.304 9.76539 205.152 8.98659C204.896 7.88113 204.984 6.72379 205.403 5.66943C205.653 5.12846 206.074 4.68492 206.601 4.40759C207.128 4.13026 207.732 4.03465 208.319 4.13559C208.693 4.23591 208.945 3.73167 208.617 3.58251Z" fill="#00020F"/>
<path d="M86.4461 24.519C85.364 27.9612 84.7057 31.5224 84.4859 35.1239C84.1836 38.0187 83.9922 41.0811 83.9328 42.9911C83.909 43.7448 83.6318 44.851 84.2601 45.4793C84.3654 45.5489 84.4898 45.5839 84.6159 45.5794C84.7421 45.5749 84.8637 45.5312 84.9637 45.4542C85.5669 44.8761 85.3597 43.8465 85.3901 43.1416C85.992 31.0926 86.9173 30.0855 87.1998 24.5692C87.2169 24.1917 86.5728 24.1666 86.4461 24.519Z" fill="#00020F"/>
<path d="M112.033 145.304C119.841 146.714 127.792 146.865 135.709 147.164C143.7 147.468 151.643 148.097 159.635 148.27C175.066 148.604 227.947 149.099 232.594 148.823C232.754 148.823 232.908 148.76 233.021 148.647C233.134 148.534 233.198 148.38 233.198 148.22C233.198 148.06 233.134 147.907 233.021 147.794C232.908 147.681 232.754 147.617 232.594 147.617C224.602 147.353 216.585 147.544 208.593 147.492C201.333 147.444 154.156 146.652 149.833 146.385C133.424 145.376 130.351 145.604 112.11 144.576C111.73 144.555 111.628 145.232 112.033 145.304Z" fill="#00020F"/>
<path d="M228.855 29.143C228.801 28.6401 227.968 28.615 227.951 29.143C227.77 34.3742 232.007 144.895 232.022 145.028C232.096 145.707 233.223 145.732 233.228 145.028C233.223 144.894 228.903 29.6459 228.855 29.143Z" fill="#00020F"/>
<path d="M41.6122 46.8111C36.8866 45.8634 28.5508 48.1206 21.23 47.3392C20.3141 47.0888 19.3581 47.0202 18.4158 47.1372C18.3354 47.1609 18.2626 47.2052 18.2045 47.2657C18.1465 47.3262 18.1052 47.4008 18.0848 47.4821C18.0644 47.5634 18.0656 47.6487 18.0882 47.7294C18.1108 47.8101 18.1541 47.8835 18.2138 47.9424C18.9553 48.466 19.8447 48.7389 20.7522 48.7212C25.9979 49.3654 30.973 48.5245 35.7316 48.0427C37.6918 47.8434 39.652 47.7655 41.6122 47.4896C41.9646 47.4646 41.9646 46.8811 41.6122 46.8111Z" fill="#00020F"/>
<path d="M68.4298 67.9721C64.4593 68.2282 54.0181 71.8212 46.5891 67.5761C40.8801 64.3078 33.2769 54.285 24.4725 49.0961C24.3549 49.0288 24.2168 49.0063 24.0839 49.0328C23.951 49.0594 23.8322 49.1332 23.7494 49.2405C23.6667 49.3479 23.6256 49.4816 23.6338 49.6169C23.642 49.7522 23.6989 49.8799 23.794 49.9765C25.2301 51.3561 26.7402 52.6565 28.3177 53.8718C40.8062 63.8827 42.9829 71.3896 55.7882 71.3896C60.1561 71.2753 64.4903 70.5906 68.6806 69.3528C68.8389 69.2957 68.9719 69.1844 69.0558 69.0386C69.1398 68.8928 69.1694 68.7219 69.1393 68.5563C69.1093 68.3908 69.0215 68.2412 68.8916 68.1343C68.7617 68.0273 68.5981 67.9699 68.4298 67.9721Z" fill="#00020F"/>
<path d="M75.4711 38.9942C74.6501 35.0883 70.5528 32.6159 66.8251 32.4852C64.3925 32.5491 62.0358 33.3465 60.0641 34.7728C61.7268 35.0236 63.3538 35.4707 64.9111 36.1047C65.2977 36.2102 65.656 36.4001 65.9602 36.6608C66.2645 36.9214 66.5072 37.2464 66.6707 37.6121C66.7088 37.6887 66.7291 37.7728 66.7301 37.8583C66.7311 37.9439 66.7127 38.0285 66.6764 38.1059C66.6401 38.1833 66.5868 38.2515 66.5205 38.3055C66.4541 38.3594 66.3764 38.3976 66.2932 38.4173C65.8093 38.6345 65.2901 38.762 64.7607 38.7935C64.7105 38.7935 64.6854 38.8938 64.7607 38.8938C65.8615 39.131 66.9266 39.5113 67.9287 40.0251C68.0822 40.1035 68.2174 40.2135 68.3257 40.3476C68.4339 40.4818 68.5127 40.6372 68.557 40.8039C68.8619 42.0922 66.7842 42.5199 65.4655 42.6888C65.3401 42.7139 65.3151 42.8908 65.4405 42.9159C66.1189 43.0914 66.771 43.2723 67.4508 43.4676C68.4289 43.7514 69.6249 44.1963 69.7384 45.2021C69.779 45.4318 69.7344 45.6684 69.6128 45.8675C69.4913 46.0665 69.3012 46.2144 69.0784 46.2832C68.3134 46.6949 67.4779 46.9591 66.6153 47.062C66.5651 47.0649 66.5174 47.0846 66.4798 47.118C66.4422 47.1514 66.4171 47.1966 66.4084 47.2461C66.3997 47.2956 66.4079 47.3465 66.4318 47.3908C66.4557 47.435 66.4938 47.4698 66.54 47.4897C66.7422 47.5839 66.9525 47.6594 67.1683 47.7154C67.3485 47.7641 67.5065 47.873 67.6161 48.0241C67.7256 48.1752 67.78 48.3593 67.7703 48.5457C67.7082 49.6756 66.3658 49.8657 65.9869 49.9277C62.8321 50.4808 60.4825 49.7759 57.2908 49.5502C57.9191 49.9277 58.5171 50.3132 59.1507 50.7065C59.5242 50.9375 59.9545 51.2094 59.8793 51.7625C59.8512 51.9484 59.7765 52.1242 59.6623 52.2735C59.5481 52.4228 59.398 52.5408 59.2259 52.6166C55.5471 54.3022 50.4307 51.7282 47.1875 49.3496C47.4474 51.5895 47.9702 53.791 48.7451 55.9086C49.3819 58.0652 50.2679 60.1401 51.3851 62.0915C51.7259 62.7649 52.2157 63.3518 52.8173 63.8075C53.6147 64.2194 54.5108 64.4022 55.4058 64.3355C55.3807 64.9638 55.3543 65.5922 55.3306 66.2205C55.1818 66.9103 55.199 67.6255 55.3807 68.3074C55.4124 68.359 55.4567 68.4016 55.5095 68.4312C55.5623 68.4608 55.6218 68.4763 55.6824 68.4763C55.7429 68.4763 55.8024 68.4608 55.8552 68.4312C55.908 68.4016 55.9524 68.359 55.984 68.3074C56.2995 67.6156 56.4042 66.8461 56.2849 66.0951C56.294 65.4811 56.2521 64.8673 56.1595 64.2603C57.0146 64.1536 57.8623 63.9944 58.6979 63.7838C62.0415 62.9601 61.9583 63.6399 62.7199 59.6918C62.9405 58.5051 63.0728 57.3036 63.1159 56.0974C63.77 56.498 64.5464 56.6498 65.3032 56.5251C65.8813 56.43 65.7823 55.6156 65.3032 55.444C64.5759 55.18 63.8697 54.9424 63.141 54.6903C62.9285 54.3996 62.8065 54.0526 62.7903 53.6929C62.7741 53.3332 62.8644 52.9767 63.0499 52.668C63.2342 52.371 63.4979 52.1316 63.8113 51.9768C64.1246 51.8219 64.4751 51.7579 64.8229 51.792C65.1707 51.8261 65.5021 51.9568 65.7794 52.1695C66.0568 52.3822 66.269 52.6683 66.3922 52.9954C66.4606 53.1079 66.5643 53.1946 66.6871 53.242C66.81 53.2894 66.945 53.2948 67.0713 53.2575C67.1975 53.2201 67.3079 53.142 67.3851 53.0354C67.4624 52.9288 67.5022 52.7996 67.4983 52.668C67.8257 52.2153 67.9511 52.0648 68.2771 51.612C72.0299 51.315 73.5426 49.2994 74.7623 45.804C75.6077 43.6394 75.8526 41.2865 75.4711 38.9942Z" fill="#00020F"/>
<path d="M57.8473 51.2346C57.4262 51.1446 56.9962 51.1025 56.5656 51.1091C51.8756 51.1091 48.3169 46.047 43.6468 45.2774C43.5371 45.2561 43.4235 45.2718 43.3236 45.322C43.2238 45.3721 43.1434 45.4539 43.095 45.5546C43.0936 45.1395 43.0426 44.7261 42.9432 44.323C42.5312 41.8731 42.5652 39.3689 43.0435 36.931C43.0509 36.8242 43.0213 36.7181 42.9598 36.6304C42.8983 36.5428 42.8085 36.4789 42.7055 36.4496C42.6026 36.4202 42.4926 36.4271 42.3941 36.4691C42.2956 36.5111 42.2145 36.5856 42.1644 36.6802C41.2447 38.9321 40.9918 41.4008 41.4358 43.7924C41.4369 44.6316 41.72 45.446 42.2396 46.105C42.3077 46.1638 42.3897 46.2039 42.4779 46.2215C42.566 46.2391 42.6572 46.2335 42.7426 46.2053C42.8367 46.1763 42.9202 46.1203 42.9828 46.0443C43.0454 45.9683 43.0844 45.8756 43.095 45.7777C43.1755 46.3479 44.25 46.2001 47.0154 48.1154C48.3935 49.0697 52.5884 52.6892 56.3386 52.6892C57.1306 52.6892 58.4796 52.3816 58.3186 51.6081C58.2128 51.4298 58.045 51.2968 57.8473 51.2346Z" fill="#00020F"/>
<path d="M66.3395 47.7906C65.3037 47.5847 64.2484 47.4939 63.1926 47.52C59.3211 47.0092 56.5926 46.1485 53.7929 46.7914C53.6816 46.8253 53.5855 46.8969 53.5211 46.9938C53.4568 47.0908 53.4282 47.2072 53.4402 47.3229C53.4522 47.4387 53.5041 47.5467 53.587 47.6284C53.6699 47.7101 53.7786 47.7605 53.8945 47.7708C59.1099 47.7998 64.3437 50.0385 66.4596 48.8519C66.5523 48.7912 66.6263 48.7061 66.6734 48.6058C66.7205 48.5056 66.7389 48.3943 66.7264 48.2842C66.714 48.1742 66.6712 48.0698 66.6029 47.9826C66.5346 47.8955 66.4434 47.829 66.3395 47.7906Z" fill="#00020F"/>
<path d="M68.2751 44.6741C67.0224 44.0828 65.5757 44.5421 59.1275 43.3422C58.1198 43.0671 57.0806 42.9238 56.036 42.9159C55.9267 42.9221 55.8221 42.9629 55.7372 43.0322C55.6524 43.1016 55.5918 43.196 55.5639 43.302C55.5361 43.4079 55.5425 43.52 55.5822 43.6221C55.622 43.7241 55.6931 43.811 55.7852 43.8702C56.7063 44.3375 57.7005 44.6438 58.7249 44.7758C60.7394 45.2236 62.7789 45.5507 64.8325 45.7552C65.9049 46.0038 67.0169 46.0295 68.0995 45.8304C68.2162 45.7944 68.3204 45.7262 68.4001 45.6337C68.4798 45.5412 68.5318 45.4281 68.5501 45.3074C68.5684 45.1866 68.5523 45.0632 68.5037 44.9512C68.4551 44.8392 68.3758 44.7431 68.2751 44.6741Z" fill="#00020F"/>
<path d="M56.7144 39.9248C56.5855 39.9361 56.4655 39.9953 56.3781 40.0907C56.2907 40.1862 56.2422 40.3109 56.2422 40.4403C56.2422 40.5697 56.2907 40.6944 56.3781 40.7898C56.4655 40.8852 56.5855 40.9444 56.7144 40.9557C59.9194 41.229 66.2184 43.2406 67.6968 41.4837C67.7549 41.4156 67.7947 41.3338 67.8125 41.2461C67.8302 41.1583 67.8254 41.0675 67.7985 40.9821C67.5754 40.202 66.2672 40.7498 64.8324 40.73C62.2003 40.6917 59.629 39.6305 56.7144 39.9248Z" fill="#00020F"/>
<path d="M43.9743 37.6623C47.5792 38.0979 50.8818 36.9812 54.2531 36.6578C59.5595 36.1483 62.9651 37.9897 64.7339 37.9897C64.8639 37.99 64.9905 37.9483 65.0947 37.8706C65.1989 37.7929 65.2751 37.6835 65.3118 37.5589C65.3486 37.4342 65.3439 37.301 65.2985 37.1792C65.253 37.0574 65.1693 36.9537 65.0599 36.8835C64.3877 36.5113 63.657 36.2564 62.8991 36.1298C60.2049 35.3641 57.4022 35.0519 54.6055 35.2058C51.7675 35.4592 48.5982 36.3225 44.0997 36.7396C43.6324 36.7766 43.3486 37.587 43.9743 37.6623Z" fill="#00020F"/>
<path d="M81.446 124.722C79.3643 123.165 76.298 122.888 73.2778 122.761C66.394 122.471 51.2338 123.206 42.9072 125.393L42.8808 125.415C42.6302 123.437 42.2224 121.482 41.6611 119.57C39.9477 112.897 37.5037 106.434 34.3734 100.298C26.1261 84.3058 12.0483 71.2972 4.89254 56.6676C2.85314 52.4977 0.859943 47.6916 1.77602 42.9713C2.59574 38.7473 5.7743 36.0664 9.69602 34.7279C17.484 32.0681 29.8287 33.0832 37.944 35.281C39.1505 35.607 40.357 35.9093 41.5635 36.2353C42.2169 36.4122 42.4439 35.4816 41.8407 35.2308C32.421 31.7248 22.2425 30.7686 12.3347 32.4588C1.5107 34.654 -2.01502 42.075 1.2467 51.7612C6.44882 67.188 22.0684 81.7925 30.8543 96.925C35.5509 105.197 39.1101 114.064 41.4354 123.288C41.7932 124.372 42.0387 124.956 42.3423 125.997C37.9519 131.725 31.1751 148.569 30.7263 152.925C30.7278 153.051 30.7702 153.174 30.8472 153.274C30.9243 153.374 31.0317 153.447 31.1535 153.481C31.2753 153.515 31.4049 153.509 31.5228 153.463C31.6406 153.417 31.7405 153.334 31.8073 153.227C32.3948 151.85 32.8736 150.43 33.2395 148.979C36.4815 137.79 41.0117 130.796 43.2174 126.082C43.2927 126.082 48.867 125.618 50.3797 125.43C54.4506 124.927 58.6482 124.418 62.8458 124.224C76.9263 123.574 77.486 124.691 80.9655 125.808C81.6308 126.014 81.9383 125.086 81.446 124.722Z" fill="#00020F"/>
<path d="M54.3273 135.026C51.9883 135.237 49.6545 135.494 47.2904 135.754C45.0514 135.855 42.8285 136.184 40.6561 136.735C40.5708 136.751 40.495 136.799 40.4447 136.87C40.3944 136.94 40.3736 137.028 40.3866 137.113C40.3996 137.199 40.4455 137.277 40.5145 137.329C40.5836 137.382 40.6703 137.405 40.7564 137.395C42.8829 137.585 43.9759 137.395 54.3273 136.439C55.2065 136.356 55.2315 134.944 54.3273 135.026Z" fill="#00020F"/>
<path d="M78.9014 136.488C77.9735 135.912 76.9024 135.607 75.81 135.609C74.3975 135.461 72.973 135.47 71.5622 135.634C71.4661 135.64 71.3759 135.682 71.3098 135.752C71.2438 135.822 71.207 135.915 71.207 136.011C71.207 136.107 71.2438 136.2 71.3098 136.27C71.3759 136.34 71.4661 136.382 71.5622 136.388C72.9281 136.478 74.2877 136.645 75.6344 136.891C76.6227 137.212 77.6654 137.332 78.7008 137.243C78.7748 137.219 78.8416 137.177 78.8951 137.121C78.9486 137.064 78.9871 136.995 79.007 136.92C79.027 136.845 79.0278 136.766 79.0093 136.691C78.9909 136.615 78.9538 136.545 78.9014 136.488Z" fill="#00020F"/>
<path d="M221.584 102.227C220.303 102.114 219.021 101.929 217.714 101.851C216.475 101.777 186.034 100.889 183.962 100.845C183.987 100.292 185.772 53.8231 185.822 52.6417C192.362 53.2357 200.342 53.3017 202.912 53.6224C204.987 53.906 207.076 54.0735 209.17 54.124C209.269 54.126 209.366 54.0919 209.442 54.0281C209.518 53.9643 209.568 53.875 209.584 53.7769C209.599 53.6787 209.578 53.5784 209.525 53.4944C209.472 53.4104 209.39 53.3485 209.295 53.3201C207.518 52.8294 205.702 52.4929 203.867 52.3143C202.009 52.0767 191.855 51.7995 189.969 51.6107C188.612 51.4787 187.229 51.3349 185.877 51.2346C186.153 44.7243 186.471 38.1666 186.204 31.6814C186.198 31.5688 186.149 31.4629 186.067 31.3854C185.985 31.3078 185.877 31.2646 185.764 31.2646C185.651 31.2646 185.543 31.3078 185.461 31.3854C185.379 31.4629 185.33 31.5688 185.324 31.6814C184.561 38.1032 184.595 44.6491 184.4 51.1091C167.326 49.6664 149.004 49.5251 131.696 49.3747C132.605 38.6827 133.093 33.7155 133.08 29.0678C133.08 28.7404 132.42 28.6388 132.35 28.9925C131.579 32.9605 131.492 35.9556 130.214 49.3747C124.358 49.3245 89.7758 48.3358 87.6651 48.4692C87.2876 48.4929 87.1622 49.0447 87.5648 49.1292C91.2225 49.7203 94.9179 50.048 98.6225 50.1099C102.292 50.2855 123.252 50.7699 130.064 50.8135C130.064 51.2583 128.513 67.6619 128.028 72.6291C127.505 76.7142 127.211 80.8254 127.148 84.9434C127.148 85.2945 127.856 85.4225 127.953 85.0437C128.695 81.4654 129.166 77.836 129.36 74.1867C129.714 70.5171 131.195 54.986 131.546 50.8636C148.31 50.8636 167.524 51.2491 184.325 52.6232C184.325 57.0029 182.642 94.3523 182.345 100.902C147.183 99.9254 147.066 99.7841 143.537 100.098C143.427 100.1 143.322 100.144 143.244 100.222C143.166 100.299 143.12 100.403 143.117 100.513C143.114 100.623 143.153 100.73 143.226 100.812C143.3 100.894 143.402 100.944 143.512 100.952C148.792 101.684 154.197 101.414 182.266 102.436C180.55 141.03 180.171 139.404 180.608 141.893C180.704 142.447 181.522 142.374 181.664 141.893C182.042 140.204 182.219 138.476 182.192 136.745C182.281 134.911 183.574 108.546 183.851 102.465C223.357 103.627 216.851 103.53 221.499 103.294C222.188 103.183 222.213 102.284 221.584 102.227Z" fill="#00020F"/>
<path d="M234.679 24.816C234.456 21.8248 233.867 14.5028 232.97 11.6463C232.937 11.5522 232.872 11.4725 232.787 11.421C232.702 11.3696 232.601 11.3495 232.503 11.3644C232.405 11.3793 232.314 11.4282 232.248 11.5026C232.182 11.577 232.144 11.6722 232.141 11.7717C232.185 13.177 232.311 14.5786 232.518 15.9693C235.203 37.2556 231.577 71.1044 242.847 132.182C240.14 132.061 237.428 132.22 234.754 132.659C233.858 132.804 234.102 134.111 235.006 134.111C237.917 133.669 240.869 133.568 243.803 133.808C243.924 133.81 244.043 133.784 244.152 133.732C244.261 133.68 244.357 133.604 244.432 133.509C244.507 133.415 244.56 133.304 244.586 133.186C244.612 133.069 244.61 132.946 244.582 132.829C234.857 81.9891 235.525 36.16 234.679 24.816Z" fill="#00020F"/>
<path d="M250.865 122.937C236.192 69.8068 242.813 37.9381 236.389 14.7668C236.23 14.1966 235.475 14.487 235.535 14.9938C237.504 31.8186 237.779 28.7733 238.625 50.0029C239.601 74.605 241.842 95.5521 249.206 122.586L243.979 123.51C243.144 123.658 243.34 124.917 244.204 124.917C244.421 124.917 243.771 124.908 250.312 123.861C250.505 123.807 250.67 123.681 250.773 123.509C250.876 123.337 250.909 123.132 250.865 122.937Z" fill="#00020F"/>
<path fill-rule="evenodd" clip-rule="evenodd" d="M174.65 6.68771L174.65 6.6877L174.65 6.6877C140.208 5.63755 97.5634 4.33732 95.5937 4.09203C95.478 4.08613 95.369 4.03609 95.2891 3.95222C95.2091 3.86836 95.1644 3.75704 95.1641 3.64118C95.1637 3.52533 95.2078 3.41375 95.2872 3.32942C95.3667 3.24509 95.4754 3.19442 95.5911 3.18784C99.3201 2.96329 103.121 3.07165 106.881 3.17885C107.962 3.20966 109.04 3.24038 110.111 3.26307C114.787 3.36867 208.505 6.23704 212.753 6.40468C216.814 6.35346 220.873 6.6054 224.897 7.1584C225.449 7.27192 225.248 8.00848 224.772 8.06392C222.355 8.24502 219.927 8.2362 217.512 8.03752C213.879 7.88379 195.814 7.33298 174.652 6.68776L174.651 6.68774L174.65 6.68771ZM228.054 10.7591C228.096 10.8224 228.119 10.8961 228.121 10.9719C228.244 13.2391 228.45 15.502 228.656 17.767L228.656 17.7674C228.936 20.847 229.217 23.9305 229.29 27.0336C229.287 27.1388 229.243 27.2388 229.168 27.3126C229.093 27.3864 228.993 27.4283 228.888 27.4296C221.745 27.3128 186.47 26.0982 152.922 24.9432L152.922 24.9432C119.781 23.8021 88.3253 22.7191 87.3413 22.8096C87.2366 22.805 87.1376 22.7609 87.0641 22.6862C86.9907 22.6115 86.9482 22.5118 86.9453 22.407C87.4792 17.2455 88.5661 12.1563 90.1872 7.22704C90.2079 7.16242 90.2438 7.10367 90.2918 7.05569C90.3397 7.00771 90.3985 6.97187 90.4631 6.95116C92.5342 6.571 102.62 6.31228 104.664 6.27268C118.465 5.99949 135.037 6.6595 167.932 7.96958C180.813 8.48255 196.195 9.09518 214.894 9.79048C219.096 9.84756 223.292 10.1415 227.461 10.6709C227.519 10.6225 227.59 10.5914 227.665 10.5814C227.74 10.5713 227.816 10.5827 227.885 10.6141C227.954 10.6455 228.013 10.6958 228.054 10.7591ZM53.3745 16.7847L53.3745 16.7847C53.2158 16.4049 53.0494 16.0066 52.8712 15.5708C52.6335 14.702 52.1944 13.9016 51.5895 13.2344C51.4991 13.15 51.3863 13.0935 51.2645 13.0717C51.1428 13.0498 51.0174 13.0636 50.9033 13.1112C50.7892 13.1589 50.6912 13.2384 50.6212 13.3403C50.5512 13.4422 50.512 13.5622 50.5084 13.6858C50.3963 14.5676 50.8589 15.6418 52.0865 18.4928L52.268 18.9143C52.6423 19.7808 53.0791 20.619 53.5748 21.4223C53.7893 21.7703 53.9742 22.1347 54.1587 22.4984L54.1587 22.4985C54.4284 23.03 54.6974 23.5602 55.0571 24.0359C55.117 24.1367 55.2115 24.2122 55.3229 24.2485C55.4343 24.2848 55.5552 24.2794 55.6629 24.2332C55.7706 24.187 55.8579 24.1032 55.9084 23.9975C55.9589 23.8917 55.9693 23.7712 55.9376 23.6584C55.8022 23.119 55.5926 22.6164 55.386 22.1212C55.2302 21.7475 55.076 21.378 54.9568 20.9999C54.4074 19.2569 53.9401 18.1384 53.3745 16.7848L53.3745 16.7847ZM56.8931 27.0475C56.9119 27.0538 56.9307 27.0601 56.9432 27.0601C57.1086 26.9841 57.2957 26.9696 57.4708 27.0192C57.6459 27.0689 57.7976 27.1794 57.8985 27.3309C57.9993 27.4824 58.0429 27.6649 58.0212 27.8456C57.9995 28.0263 57.914 28.1934 57.7801 28.3167C57.6202 28.4697 57.4074 28.555 57.1861 28.555C56.9648 28.555 56.752 28.4697 56.5921 28.3167C56.0918 27.8349 56.3308 27.035 56.8429 27.035C56.8555 27.035 56.8743 27.0412 56.8931 27.0475ZM66.7446 10.8465C66.569 10.4505 66.041 10.5706 65.839 10.8465C65.3908 11.7088 65.1499 12.6639 65.1355 13.6356C65.0325 14.3828 64.5454 18.5856 64.457 19.9439C64.4438 20.1489 64.4163 20.3683 64.3879 20.594L64.3879 20.594C64.2912 21.3637 64.1852 22.2074 64.6088 22.8096C64.6348 22.85 64.6691 22.8843 64.7094 22.9103C64.7498 22.9363 64.7952 22.9535 64.8426 22.9606C64.8901 22.9677 64.9385 22.9646 64.9847 22.9516C65.0308 22.9385 65.0737 22.9158 65.1104 22.8849C65.6737 22.422 65.7834 21.6208 65.8848 20.8814C65.91 20.6972 65.9347 20.5168 65.9658 20.3465C66.1611 19.2654 66.3538 18.187 66.4938 17.0795L66.5125 16.9309C67.0059 13.0164 67.1591 11.8007 66.7446 10.8465ZM63.8932 25.9454C63.958 25.9109 64.0044 25.8862 64.0044 25.8509C64.0575 25.7989 64.1234 25.7619 64.1954 25.7437C64.2674 25.7254 64.343 25.7265 64.4144 25.7469C64.4859 25.7673 64.5507 25.8062 64.6022 25.8597C64.6538 25.9132 64.6902 25.9794 64.7079 26.0516C65.4577 26.6139 64.836 27.794 63.9793 27.1828C63.877 27.1676 63.781 27.1242 63.7021 27.0574C63.5957 26.9614 63.5235 26.8333 63.4963 26.6925C63.4692 26.5518 63.4886 26.406 63.5516 26.2773C63.6349 26.083 63.7882 26.0013 63.8932 25.9454Z" fill="url(#paint0_linear_11784_201524)"/>
<defs>
<linearGradient id="paint0_linear_11784_201524" x1="169" y1="-34.5" x2="64.1003" y2="25.138" gradientUnits="userSpaceOnUse">
<stop stop-color="#E41B64"/>
<stop offset="1" stop-color="#4791FF"/>
</linearGradient>
</defs>
</svg>
