<svg width="251" height="180" viewBox="0 0 251 180" fill="none" xmlns="http://www.w3.org/2000/svg">
<path d="M5.85133 178.876C4.65631 178.846 3.50003 178.446 2.54201 177.731C1.58399 177.016 0.871453 176.021 0.502689 174.884C0.0208892 173.449 0.0855695 8.43197 0.134409 7.93037C0.530409 3.76841 4.59601 0.906652 8.50453 0.923812C27.4848 1.00037 183.801 0.86837 242.972 0.88289C244.726 0.718863 246.483 1.16455 247.946 2.14481C248.788 2.80609 249.472 3.64694 249.947 4.60605C250.423 5.56517 250.679 6.61835 250.695 7.68881C250.86 12.1201 250.9 120.756 250.9 170.634C250.9 173.465 250.281 175.978 247.939 177.825C246.768 178.727 245.316 179.186 243.839 179.121C237.481 179.1 8.02801 178.943 5.85133 178.876ZM110.368 177.16C110.491 177.183 110.617 177.18 110.739 177.151C110.861 177.122 110.975 177.068 111.075 176.992C111.174 176.916 111.257 176.82 111.317 176.71C111.377 176.6 111.413 176.479 111.424 176.354C112.802 170.767 116.404 160.514 114.959 147.101C114.854 145.959 114.851 144.811 114.951 143.669C114.976 143.327 115.394 143.009 115.633 142.685C116.257 143.698 116.123 142.338 116.888 148.921C116.991 149.801 117.039 150.682 117.114 151.644C117.796 150.669 118.678 149.85 119.701 149.243C120.725 148.637 121.866 148.256 123.049 148.126C124.231 147.996 125.428 148.12 126.559 148.49C127.69 148.861 128.728 149.468 129.605 150.273C130.444 151.071 131.104 152.039 131.542 153.111C131.98 154.183 132.185 155.336 132.145 156.493C132.105 157.651 131.819 158.787 131.308 159.826C130.797 160.865 130.071 161.784 129.179 162.523C128.287 163.261 127.248 163.802 126.131 164.11C125.015 164.417 123.846 164.485 122.701 164.308C121.556 164.131 120.462 163.713 119.491 163.083C118.52 162.452 117.693 161.623 117.065 160.649C115.859 166.086 114.636 171.598 113.43 177.07H140.754C138.322 172.182 136.656 166.95 135.815 161.556C134.633 155.955 133.916 150.266 133.672 144.548C133.518 137.323 134.631 133.744 131.605 129.035C131.436 128.565 131.371 128.065 131.415 127.567C131.616 127.598 131.811 127.665 131.988 127.765C134.022 129.692 135.309 132.275 135.623 135.058C135.828 136.957 135.894 138.867 135.821 140.775C135.953 146.204 135.704 148.881 138.004 161.222C138.865 166.498 140.465 171.626 142.756 176.456C142.84 176.679 142.994 176.869 143.197 176.995C143.399 177.12 143.637 177.176 143.874 177.152C179.986 177.117 175.347 177.169 176.58 177.07C174.376 172.421 169.341 167.236 165.583 163.685C165.488 163.616 165.376 163.573 165.258 163.559C165.141 163.546 165.023 163.564 164.914 163.61C164.218 164.163 163.577 164.77 162.881 165.391C164.975 168.47 164.581 168.28 168.885 171.53C169.208 171.813 169.507 172.122 169.779 172.454C169.731 172.536 169.677 172.611 169.629 172.693C169.264 172.67 168.902 172.623 168.544 172.55C166.869 172.074 165.32 171.234 164.008 170.088C162.696 168.943 161.655 167.521 160.958 165.925C156.75 157.225 154.622 149.114 149.005 141.109C147.898 139.57 147.357 137.694 147.477 135.801C147.918 127.946 147.655 129.949 148.187 128.72C148.473 128.959 148.917 129.149 149.012 129.45C149.846 132.099 149.193 133.828 149.49 136.428C149.545 137.675 149.908 138.889 150.546 139.962C156.364 147.868 157.878 155.062 162.205 163.779C162.832 163.251 163.338 162.824 163.87 162.373C162.31 160.943 161.978 160.957 163.065 159.645C169.898 151.389 182.205 142.978 195.34 140.666C196.522 140.659 197.677 140.315 198.67 139.676V134.962C194.345 133.114 192.28 130.671 191.821 126.373C190.975 118.467 191.335 114.074 190.701 113.751C189.138 112.838 187.849 111.521 186.97 109.937C186.244 108.894 185.735 107.716 185.473 106.473C185.21 105.23 185.199 103.947 185.441 102.7C185.812 100.074 187.186 97.6942 189.276 96.0615C190.979 94.7271 192.958 93.7892 195.069 93.3158C197.181 92.8425 199.371 92.8456 201.481 93.3251C205.417 94.2399 208.873 95.9651 211.059 99.574C211.159 99.7885 211.325 99.9659 211.532 100.081C211.739 100.196 211.977 100.243 212.212 100.216C213.267 100.149 214.322 100.322 215.301 100.721C216.279 101.121 217.154 101.736 217.86 102.522C219.938 104.834 221.197 107.766 221.443 110.865C221.648 112.699 221.468 114.556 220.915 116.317C221.964 116.731 222.835 117.498 223.377 118.487C223.919 119.475 224.098 120.622 223.882 121.729C223.55 124.633 221.413 125.68 218.99 126.02C218.99 137.183 218.913 137.14 219.27 137.338C220.36 138.168 221.687 138.628 223.057 138.649C223.276 138.642 223.494 138.668 223.705 138.724C232.3 140.407 240.575 143.436 248.224 147.7C248.422 147.809 248.634 147.904 248.907 148.04C248.907 147.908 248.915 8.46365 248.743 7.74161C247.942 4.37957 246.922 2.90249 242.935 2.83649C240.698 2.79821 28.4563 2.81669 8.54941 2.77445C7.64766 2.76211 6.75252 2.93 5.91652 3.26824C5.08052 3.60648 4.32049 4.10828 3.68102 4.74419C3.04154 5.3801 2.53551 6.13731 2.19259 6.97141C1.84968 7.8055 1.6768 8.69968 1.68409 9.60149C1.63129 12.351 1.94809 88.7051 1.94809 88.985C4.01389 88.2972 1.28809 88.4398 14.5765 88.4398C14.5115 84.5356 15.5393 80.6909 17.5439 77.3399C17.6851 77.0865 18.0626 76.9571 18.3359 76.7736C18.4468 78.0461 19.0764 75.6503 15.1679 88.3896H31.462C31.7484 85.8724 32.0282 83.4027 32.3015 80.9541C31.1676 80.5224 25.7398 81.7817 17.2535 74.2815C17.1638 74.1964 17.0946 74.0921 17.0509 73.9764C17.0072 73.8607 16.9903 73.7367 17.0014 73.6136C18.0381 69.3701 19.8263 65.3466 22.2814 61.7336C26.7565 55.604 32.7065 50.7032 39.58 47.4855C42.417 45.8922 45.5531 44.9034 48.7909 44.5815C49.1275 44.5683 49.9499 43.6337 50.7419 43.21C50.9242 43.135 51.0745 42.9984 51.1666 42.824C51.2588 42.6497 51.2869 42.4486 51.2461 42.2556C50.8686 35.591 51.2065 35.9196 50.4541 34.3964C49.8311 33.1384 49.1618 31.8884 48.4741 30.6713C47.8986 29.6444 47.4049 30.8654 45.1174 28.9104C44.5406 28.4406 44.1084 27.8173 43.8707 27.1125C43.6329 26.4076 43.5993 25.6499 43.7736 24.9267C43.9074 24.2071 44.2568 23.5451 44.7754 23.0286C45.294 22.5121 45.9574 22.1654 46.6776 22.0346C47.8165 21.8202 48.9943 22.0416 49.9776 22.655C50.9465 23.6172 49.8205 23.6252 49.5605 23.5961C49.1315 23.5499 48.7144 23.3862 48.292 23.3163C47.7644 23.2414 47.2265 23.3193 46.7418 23.5406C46.2571 23.7619 45.8459 24.1174 45.5569 24.565C44.4244 26.4354 46.1707 28.525 48.0464 28.6728C48.3309 28.6539 48.6142 28.7245 48.8564 28.8749C49.0986 29.0252 49.2876 29.2477 49.3968 29.511C50.0383 33.339 55.0319 36.9268 55.1348 37.1314C54.2108 37.3624 54.6702 37.6 52.3378 36.2998C52.6717 43.1282 52.5688 43.408 52.9648 43.7565C54.4537 45.0633 55.9189 46.3965 57.4343 47.727C60.1324 44.8679 60.6485 44.4732 60.6604 43.9136C60.6854 42.818 60.5996 43.1915 60.5996 38.3867C59.6662 38.4184 58.7512 38.1218 58.0138 37.5485C62.6153 36.1414 66.9647 36.4265 68.3705 32.0362C69.3552 28.9566 69.1268 30.3888 69.1268 19.0804C61.9315 17.2892 58.9246 11.662 58.716 12.285C57.8778 16.5764 55.1137 19.3497 51.5048 21.4815C50.6284 22.0002 47.7362 19.4355 44.3082 21.7824C44.1098 21.3195 43.9787 20.8305 43.9188 20.3305C43.9253 18.8612 44.0418 17.3946 44.2673 15.9428C45.578 9.19097 50.371 5.47385 57.1478 5.74445C57.362 5.7626 57.5775 5.73701 57.7814 5.66921C59.774 4.81606 61.9743 4.57128 64.1056 4.96565C65.7945 5.21263 67.4123 5.81285 68.8536 6.72717C70.295 7.64149 71.5273 8.84938 72.4704 10.272C73.9649 12.6136 74.7337 15.3448 74.6801 18.1221C74.6497 19.776 74.4161 19.5068 70.369 19.5068C71.0131 23.1665 71.0914 26.9034 70.6013 30.5868C69.8093 34.5838 67.6009 37.1697 63.4733 37.8864C62.9136 37.9841 62.3684 38.132 61.9249 38.2336C61.9249 39.9496 61.9249 41.597 61.9315 43.2496C62.8691 44.1185 64.0593 44.666 65.3292 44.8125C67.7506 44.7773 70.1686 45.0062 72.5404 45.4949C77.6903 46.6014 82.6256 48.539 87.1528 51.2316C91.8187 53.642 95.6061 57.4618 97.9768 62.148C98.8493 63.9234 97.0871 64.7748 95.7869 65.6751C96.1365 66.163 96.6601 66.4981 97.2497 66.6111C97.8392 66.7241 98.4496 66.6064 98.9549 66.2823C102.044 64.1478 102.456 60.8399 103.287 58.0613C103.43 57.6225 103.48 57.159 103.434 56.6998C103.389 56.2407 103.249 55.7959 103.023 55.3936C100.41 50.4185 97.2349 50.598 96.1736 44.7914C96.1101 44.4971 96.1079 44.1929 96.167 43.8977C96.1782 43.7796 96.2263 43.668 96.3046 43.5788C96.3829 43.4896 96.4874 43.4274 96.6031 43.4011C96.7188 43.3748 96.8399 43.3856 96.9491 43.4321C97.0583 43.4786 97.15 43.5584 97.2112 43.6601C97.5794 44.0812 97.5042 46.3305 100.076 48.9678C101.215 50.1347 102.32 51.3438 103.35 52.6176C103.932 53.2383 104.372 53.977 104.642 54.7834C104.912 55.5899 105.004 56.445 104.913 57.2904C104.598 59.1066 104.191 60.9054 103.692 62.68C103.291 64.2289 102.334 65.5762 101.004 66.4658C99.8512 67.2512 98.6764 68.1474 97.1834 67.5785C96.3951 67.1934 95.6439 66.7365 94.9394 66.2136C90.826 68.9757 87.0246 72.176 83.602 75.7586C83.426 76.0186 83.3531 76.3348 83.3974 76.6456C83.5848 79.3067 84.2765 87.1106 84.3992 88.3527H123.487C123.487 84.2778 123.412 6.27641 123.494 5.83685C123.506 5.58694 123.615 5.35147 123.796 5.17939C123.978 5.00732 124.219 4.91186 124.469 4.91285C124.719 4.89962 124.964 4.98413 125.152 5.14848C125.341 5.31282 125.458 5.54409 125.479 5.79329C125.537 6.08633 125.487 85.3814 125.487 88.4042C126.543 88.4042 234.506 88.3698 245.579 88.3698C246.35 88.3698 247.065 88.4108 247.427 89.2437C247.244 90.2192 246.951 90.4739 245.954 90.5056C245.709 90.5135 125.882 90.5056 125.487 90.5056C125.487 91.2488 125.397 127.612 125.377 145.118C125.377 146.188 125.07 146.74 124.477 146.66C123.576 146.536 123.626 145.814 123.624 145.151C123.603 138.144 123.502 90.8673 123.502 90.503C123.071 90.503 27.4228 90.4304 3.80401 90.4066C3.16 90.326 2.52802 90.1682 1.92169 89.9367V171.687C6.40969 158.661 13.5654 149.837 20.2327 145.135C22.2048 143.624 24.4557 142.516 26.8565 141.876C27.2202 141.825 27.5876 141.805 27.9547 141.815C27.9758 141.904 27.9956 141.992 28.0102 142.079C27.6419 142.343 27.2736 142.607 26.904 142.871C22.152 146.208 9.64105 152.601 2.85625 174.186C2.72149 174.54 2.7136 174.93 2.83392 175.29C2.95424 175.649 3.19534 175.956 3.51625 176.158C4.65421 177.028 6.0623 177.47 7.49341 177.405C15.7276 177.433 50.895 177.083 110.368 177.156V177.16ZM177.901 177.14C178.27 177.14 234.133 177.14 243.157 177.16C244.448 177.3 245.745 176.942 246.78 176.158C247.816 175.374 248.514 174.224 248.73 172.944C249.101 171.46 248.78 169.835 248.915 150.731C248.955 150.378 248.873 150.023 248.683 149.724C248.493 149.425 248.206 149.199 247.871 149.086C239.428 144.991 230.573 141.807 221.455 139.59C219.463 144.17 220.858 141.76 214.558 153.364C213.502 155.319 212.314 153.232 208.473 148.022C206.965 149.898 205.437 151.806 203.895 153.705C203.205 154.557 202.981 154.577 202.311 153.698C198.764 149.091 198.251 145.831 197.173 141.766C190.864 143.114 184.798 145.417 179.183 148.595C173.67 151.799 168.704 155.864 164.474 160.636C172.699 168.539 169.803 165.394 176.768 174.056C176.768 171.064 176.636 170.465 177.402 170.492C178.07 170.512 177.917 171.276 177.921 171.761C177.928 173.52 177.904 175.28 177.904 177.136L177.901 177.14ZM49.0219 45.8144C44.3438 47.0303 39.8899 48.9857 35.8285 51.6065C27.6643 56.8218 21.4867 63.6185 18.9325 73.2387C18.7754 73.8327 18.8639 74.1627 19.3615 74.4267C26.3707 78.2732 27.0664 79.2328 32.4401 79.4427C33.3865 72.2223 33.0829 73.8525 33.7838 72.675C33.9277 73.0367 34.2155 73.4116 34.201 73.7667C33.9977 78.6639 33.6056 80.9739 32.7199 88.3593H82.7321C82.2041 82.7876 82.2252 78.0078 81.0887 70.3281C80.1568 64.0396 80.2888 65.5325 80.6174 64.495C80.822 64.7194 81.1454 64.9108 81.2048 65.1629C82.4166 70.1591 82.6357 72.0005 83.1083 74.762C87.0699 70.3702 91.6006 66.5275 96.5802 63.336C96.4848 63.0704 96.3688 62.8126 96.233 62.5652C94.5271 59.7601 92.3098 57.3002 89.6964 55.3131C83.6648 50.9131 76.6978 47.9667 69.3394 46.704C67.8174 46.4598 66.2756 46.3226 64.8976 46.1523C64.8976 48.321 64.9266 50.3618 64.8844 52.4012C64.8646 53.3634 64.5425 53.5601 63.6356 53.308C61.3068 52.6264 59.1908 51.361 57.4884 49.6318C55.7486 50.8594 54.1052 52.0078 52.4724 53.1852C52.3821 53.2721 52.2719 53.3355 52.1514 53.3699C52.031 53.4043 51.9039 53.4087 51.7813 53.3827C51.6588 53.3566 51.5445 53.3009 51.4484 53.2205C51.3523 53.1401 51.2775 53.0373 51.2303 52.9212C50.1281 50.969 50.2192 50.6178 49.0219 45.8144ZM207.231 109.712C205.437 111.875 203.003 113.413 200.279 114.105C197.66 114.965 194.852 115.074 192.175 114.419C192.27 115.388 193.017 123.628 193.273 126.882C193.318 128.071 193.673 129.228 194.304 130.237C194.934 131.246 195.818 132.072 196.867 132.633C201.118 135.048 206.068 135.095 211.242 131.849C212.014 131.366 212.818 130.942 213.794 130.389C213.796 130.92 213.661 131.442 213.401 131.904C213.142 132.367 212.767 132.754 212.314 133.029C207.212 136.461 204.098 135.832 199.883 135.391C200.124 140.179 200.038 140.04 200.456 140.33C203.303 142.208 206.042 144.244 208.66 146.429C211.231 143.417 214.066 140.643 217.133 138.139C217.361 137.862 217.476 137.509 217.454 137.15C217.223 125.917 217.182 125.812 216.969 125.27C216.617 124.372 217.569 124.398 218.881 124.226C222.601 123.738 222.73 120.719 221.336 118.591C221.154 118.25 220.873 117.971 220.53 117.792C220.186 117.613 219.797 117.542 219.413 117.588C218.761 117.676 218.138 117.912 217.592 118.278C217.045 118.645 216.59 119.131 216.261 119.7C215.657 120.777 215.429 120.839 214.295 120.294C213.263 119.654 212.374 118.808 211.683 117.809C210.993 116.809 210.517 115.678 210.284 114.486C210.099 113.476 209.997 112.445 209.855 111.368C209.314 111.33 208.792 111.159 208.334 110.87C207.876 110.581 207.497 110.183 207.231 109.712ZM117.184 156.226C117.172 157.125 117.341 158.017 117.679 158.851C118.017 159.684 118.518 160.441 119.153 161.078C119.788 161.714 120.544 162.218 121.376 162.558C122.208 162.899 123.1 163.07 123.999 163.061C125.811 163.061 127.549 162.341 128.83 161.06C130.112 159.778 130.832 158.04 130.832 156.228C130.832 154.416 130.112 152.679 128.83 151.397C127.549 150.116 125.811 149.396 123.999 149.396C123.1 149.387 122.209 149.557 121.377 149.897C120.545 150.237 119.789 150.74 119.154 151.376C118.519 152.013 118.018 152.769 117.68 153.602C117.341 154.435 117.173 155.327 117.184 156.226ZM218.956 138.61C215.77 141.514 212.62 144.368 209.493 147.219C210.824 148.993 212.154 150.774 213.552 152.631C213.907 151.888 217.765 143.864 219.406 140.556C219.974 139.422 220.023 139.45 218.956 138.61ZM207.167 147.213C204.513 145.167 201.804 143.085 199.13 141.026C198.128 141.25 198.273 141.884 198.563 142.581C198.846 143.255 199.091 143.951 199.39 144.614C200.582 147.259 201.774 149.899 202.964 152.534C204.455 150.638 205.833 148.898 207.17 147.213H207.167ZM52.12 51.4904C53.5324 50.4872 54.7428 49.6278 56.1143 48.659C54.4696 47.2334 52.9146 45.887 51.3623 44.5247C51.2659 44.6198 50.4092 44.6462 50.6112 45.4857C51.0785 47.4155 51.5801 49.3335 52.12 51.4904ZM63.2462 51.7016C63.2462 50.1664 63.171 48.8292 63.2674 47.5053C63.3014 46.9876 63.1741 46.472 62.903 46.0297C62.6318 45.5874 62.2301 45.2401 61.7533 45.0356C60.6617 46.2777 59.5964 47.4921 58.423 48.8292C60.0545 49.7981 61.6121 50.7261 63.2462 51.7016ZM208.998 99.8327C208.96 99.3442 208.797 98.8735 208.526 98.4652C208.255 98.0568 207.885 97.7243 207.45 97.499C205.365 96.1018 203.007 95.1645 200.532 94.7494C199.808 94.6597 199.076 94.6691 198.355 94.7771C198.109 94.8048 197.892 95.1256 197.659 95.3157C197.905 95.4477 198.137 95.68 198.396 95.7117C203.012 96.1592 205.826 98.1669 208.998 99.8327ZM46.403 15.2498L46.6142 15.23C47.5092 13.926 48.482 12.6772 49.5275 11.4904C50.6927 10.4237 51.9231 9.43049 53.2116 8.51645C53.1839 8.44781 53.1562 8.37257 53.1232 8.30525C52.7615 8.30992 52.4017 8.35778 52.0513 8.44781C50.7125 8.91939 49.5038 9.70023 48.5235 10.7269C47.5432 11.7535 46.8189 12.9969 46.4096 14.3561C46.3652 14.6522 46.363 14.9531 46.403 15.2498Z" fill="#191919"/>
<path d="M226.497 8.29202C228.864 5.29034 232.91 4.15118 235.946 5.9873C237.623 6.87225 239.024 8.20339 239.993 9.83387C240.962 11.4643 241.462 13.3308 241.437 15.2273C241.473 17.1264 240.859 18.9808 239.699 20.4842C238.538 21.9876 236.899 23.0499 235.052 23.4958C234.018 23.7108 232.957 23.7611 231.907 23.6449C231.691 23.5989 231.466 23.6296 231.271 23.7318C231.075 23.834 230.921 24.0012 230.836 24.2046C230.152 25.357 229.424 26.4909 228.681 27.6907C229.573 28.1057 230.265 28.8558 230.607 29.7781C230.95 30.7004 230.914 31.7206 230.509 32.617C230.024 33.395 229.284 33.9807 228.416 34.2741C227.547 34.5676 226.604 34.5506 225.746 34.2261C224.954 35.3731 224.182 36.4701 223.434 37.5894C223.088 38.1069 223.386 38.4197 223.406 46.5139C223.406 47.4947 222.755 47.8339 219.258 51.3781C219.169 51.4689 219.1 51.5782 219.056 51.6983C219.013 51.8184 218.996 51.9465 219.006 52.0738C219.306 53.2512 219.64 54.4141 219.969 55.5876C220.07 55.6008 220.173 55.6074 220.268 55.6219C220.74 54.9738 221.231 54.3389 221.666 53.6697C223.892 50.2614 224.057 49.7097 224.641 49.1817C224.773 49.0655 225.037 48.9177 225.119 48.9771C225.203 49.0348 225.272 49.1108 225.322 49.1993C225.371 49.2879 225.4 49.3866 225.406 49.4879C225.381 50.1379 225.233 50.7772 224.969 51.3715C223.753 53.3014 222.479 55.1995 221.134 57.0475C221.018 57.2539 220.845 57.4225 220.635 57.5335C220.426 57.6444 220.189 57.6931 219.953 57.6736C219.717 57.6542 219.491 57.5675 219.303 57.4238C219.115 57.28 218.971 57.0854 218.89 56.8627C217.961 55.3143 217.411 53.5679 217.286 51.7662C217.262 51.4687 217.314 51.1699 217.437 50.8979C217.56 50.6259 217.751 50.3896 217.99 50.2113C219.129 49.2433 220.25 48.2519 221.353 47.2373C221.605 47.008 221.765 46.6952 221.803 46.3569C221.847 43.9624 221.823 41.56 221.823 39.0507C219.577 40.6266 216.918 41.5087 214.175 41.5877C214.175 47.8392 213.72 46.3291 216.551 50.4225C216.761 50.6804 216.874 51.0032 216.872 51.3356C216.869 51.668 216.751 51.9892 216.538 52.2441C215.576 53.4928 214.641 54.7692 213.597 55.9493C212.916 56.7202 212.247 56.5565 211.831 55.614C210.998 53.5106 210.545 51.2758 210.494 49.014C210.474 48.721 210.739 48.4147 210.869 48.1138C211.892 48.9955 211.216 47.4406 212.963 54.4999C213.755 53.4347 214.46 52.5437 215.075 51.6065C215.178 51.4507 215.041 51.0402 214.897 50.829C212.257 46.9192 212.552 48.7566 212.552 41.3118C211.985 41.1798 211.187 41.0399 210.416 40.8076C203.343 38.6692 204.476 33.3324 204.705 25.5457C204.705 25.3002 205.005 25.0613 205.169 24.8224C205.332 25.0864 205.637 25.3504 205.647 25.6276C205.899 32.8876 205.56 34.3686 207.21 37.1512C208.28 38.9583 210.114 39.4863 212.046 39.8176C214.559 40.1878 217.124 39.7204 219.345 38.4874C221.565 37.2544 223.318 35.3245 224.333 32.9958C224.656 32.2038 225.131 32.1299 225.807 32.4837C226.222 32.7261 226.699 32.8418 227.179 32.8165C227.659 32.7911 228.121 32.6259 228.508 32.3411C228.673 32.2557 228.82 32.1381 228.939 31.9951C229.058 31.8522 229.147 31.6868 229.201 31.5087C229.256 31.3307 229.273 31.1435 229.254 30.9585C229.235 30.7734 229.178 30.594 229.089 30.4311C228.958 29.9987 228.698 29.6166 228.344 29.3361C227.99 29.0555 227.559 28.89 227.109 28.8616C226.864 28.8774 226.852 28.9131 225.505 29.5031C225.344 28.4247 225.373 28.7111 225.601 28.2887C219.897 25.0613 217.693 22.5784 216.472 18.5115C216.053 18.5891 215.639 18.6896 215.231 18.8124C211.322 20.1915 207.646 22.1584 204.329 24.6455C203.901 24.983 203.51 25.3649 203.162 25.7847C202.394 26.6664 201.38 26.6031 201.04 25.4771C200.658 24.4048 200.529 23.2585 200.665 22.1283C201.775 16.3295 204.361 11.3993 209.439 8.0531C211.528 6.68724 214.002 6.03174 216.493 6.18398C216.82 6.15784 217.149 6.19504 217.462 6.29354C218.638 6.87302 219.924 6.57074 221.125 6.79118C222.94 7.19888 224.734 7.69982 226.497 8.29202ZM229.191 11.0825C230.857 13.5686 231.795 16.4702 231.9 19.4605C232.467 19.1747 232.925 18.7115 233.205 18.1412C233.484 17.571 233.57 16.9251 233.448 16.3018C233.245 15.299 232.839 14.3485 232.254 13.5086C231.67 12.6687 230.92 11.9572 230.051 11.4178C229.776 11.2777 229.488 11.1649 229.191 11.0812V11.0825ZM210.376 10.8423C210.206 10.6416 210 10.3591 209.836 10.3723C209.701 10.3771 209.567 10.4048 209.44 10.4542C207.599 11.3033 206.083 12.7278 205.121 14.5132C205.026 14.6769 205.19 14.991 205.231 15.2299C205.442 15.153 205.641 15.0473 205.824 14.9158C210.256 10.668 208.329 12.2877 210.376 10.8423Z" fill="#191919"/>
<path d="M85.207 80.9282C89.7716 82.5306 94.7506 84.5806 102.345 83.6302C104.943 83.3652 107.393 82.2887 109.346 80.5535C111.298 78.8182 112.655 76.5122 113.224 73.9625C113.938 71.1623 114.332 68.2901 114.398 65.401C115.014 51.6836 113.026 45.9508 111.075 38.209C110.986 37.9523 110.924 37.6868 110.89 37.417C110.911 37.1483 110.962 36.8827 111.041 36.625C111.711 37.1028 111.595 36.6184 112.542 38.8492C114.483 43.5656 115.665 48.56 116.042 53.6464C116.478 58.399 116.522 63.1795 116.174 67.9394C115.464 77.0936 112.246 84.1648 103.014 85.4043C98.487 86.0957 93.8576 85.5605 89.6079 83.8546C87.9186 83.264 86.4051 82.2576 85.207 80.9282Z" fill="#191919"/>
<path d="M140.618 60.1275C140.631 60.3169 140.62 60.5073 140.584 60.6937C140.523 60.8917 140.42 61.1914 140.284 61.2125C140.17 61.2286 140.054 61.2177 139.945 61.1808C139.836 61.1439 139.737 61.082 139.656 61C139.284 60.5313 138.977 60.015 138.742 59.4648C137.015 54.8211 134.254 54.0647 131.906 49.0817C131.126 47.1312 130.706 45.0558 130.664 42.9556C130.643 42.7035 130.978 42.417 131.148 42.1504C131.346 42.3761 131.633 42.5675 131.721 42.8262C132.236 44.3152 132.633 45.849 133.216 47.3076C134.706 51.0353 137.294 52.6378 139.458 56.3338C140.023 57.5302 140.473 58.7775 140.803 60.0588C140.741 60.08 140.68 60.0998 140.618 60.1275Z" fill="#191919"/>
<path d="M146.513 40.0898C147.416 41.5722 148.114 42.1636 147.734 46.5446C147.509 49.1398 146.317 50.8294 147.188 54.7577C147.464 56.0011 147.212 56.0275 146.99 56.4842C146.772 56.314 146.417 56.1846 146.356 55.9721C145.963 54.8195 145.682 53.6317 145.517 52.4252C145.239 49.2163 146.847 48.0943 146.137 41.6593C146.111 41.1757 146.111 40.691 146.137 40.2073C146.253 40.1651 146.383 40.1308 146.513 40.0898Z" fill="#191919"/>
<path d="M106.125 42.9276C105.898 42.4872 105.721 42.0228 105.597 41.5429C105.098 38.8667 104.132 36.299 102.745 33.9569C102.648 33.6014 102.625 33.23 102.676 32.8652C103.031 32.9814 103.514 32.9893 103.714 33.2335C105.818 35.5544 106.949 38.5958 106.872 41.7277C106.795 42.1355 106.667 42.532 106.491 42.9078L106.125 42.9276Z" fill="#191919"/>
<path d="M136.947 34.646C137.148 35.0039 137.313 35.3811 137.439 35.772C138 38.2391 137.686 40.0131 139.199 43.2696C139.331 43.5494 139.199 43.952 139.199 44.2992C138.837 44.2041 138.375 44.216 138.143 43.9929C136.414 42.3324 135.92 38.4648 136.145 35.9898C136.244 35.5197 136.402 35.0639 136.614 34.6328C136.729 34.6328 136.839 34.6394 136.947 34.646Z" fill="#191919"/>
<path d="M64.1334 24.7191C64.1741 25.8711 63.8098 27.001 63.1038 27.9122C62.8614 28.2372 62.5445 28.4993 62.1798 28.6765C61.8788 28.7913 60.0797 28.6844 61.3403 27.536C63.3295 25.7263 62.3963 23.4347 61.8181 19.3837C61.306 17.7469 62.5336 18.8451 62.6431 19.084C63.5699 20.8215 64.08 22.7506 64.1334 24.7191Z" fill="#191919"/>
<path d="M132.705 39.6801C132.705 38.9818 132.705 38.3812 133.338 38.2888C133.516 38.2624 133.877 38.9646 134.035 39.3804C137.203 47.707 136.597 46.1969 136.818 47.4443C135.63 47.0101 135.408 47.1803 134.656 45.929C133.522 44.0288 132.853 41.8877 132.705 39.6801Z" fill="#191919"/>
<path d="M212.682 32.8439C212.375 32.8261 212.072 32.7666 211.781 32.6671C211.207 32.3229 210.751 31.8141 210.471 31.2068C210.192 30.5995 210.101 29.9221 210.212 29.2628C210.375 28.7546 212.479 22.4595 212.73 22.2285C212.888 22.1029 213.057 21.9911 213.234 21.8945C213.339 22.0646 213.413 22.2518 213.453 22.4476C213.453 22.907 211.876 28.5341 211.748 28.9763C211.643 29.2958 211.617 29.636 211.673 29.9676C211.729 30.2992 211.865 30.6122 212.068 30.8798C212.391 31.44 212.671 32.0238 212.907 32.6261C212.831 32.7014 212.752 32.77 212.682 32.8439Z" fill="#191919"/>
<path d="M103.518 45.0636C103.303 44.6118 103.117 44.1472 102.96 43.6723C102.454 41.6619 101.629 39.7456 100.516 37.9963C100.143 37.4036 99.3759 36.6301 99.6703 36.209C99.7499 36.1255 99.8489 36.0631 99.9586 36.0273C100.068 35.9916 100.185 35.9838 100.299 36.0044C100.657 36.1152 100.984 36.3092 101.253 36.5707C102.843 38.2329 103.88 40.3465 104.222 42.6216C104.313 43.0551 104.297 43.5044 104.174 43.9302C104.051 44.3559 103.826 44.7451 103.518 45.0636Z" fill="#191919"/>
<path d="M109.052 42.7702C107.66 37.1641 107.012 34.6443 107.025 34.5294C107.046 34.3314 107.128 34.0252 107.25 33.9909C107.361 33.9638 107.477 33.9615 107.589 33.9844C107.701 34.0072 107.806 34.0545 107.898 34.1229C108.198 34.4006 108.438 34.7377 108.601 35.1129C109.56 37.23 109.926 39.5677 109.66 41.8765C109.591 42.1794 109.498 42.476 109.38 42.7636C109.264 42.7636 109.161 42.7702 109.052 42.7702Z" fill="#191919"/>
<path d="M213.896 36.3923C213.207 36.1125 212.507 35.8485 211.843 35.5264C211.753 35.4564 211.683 35.3642 211.64 35.2588C211.597 35.1534 211.582 35.0386 211.597 34.9258C211.65 34.7753 211.965 34.6803 212.177 34.6328C212.367 34.6189 212.558 34.6349 212.743 34.6803C215.841 35.001 216.366 32.5155 216.898 31.6852C217.05 31.5141 217.228 31.3688 217.426 31.2549C217.558 31.4463 217.816 31.6443 217.801 31.8212C217.807 32.5654 217.689 33.3054 217.453 34.011C217.071 34.6449 216.555 35.1869 215.94 35.5985C215.326 36.0101 214.628 36.2811 213.896 36.3923Z" fill="#191919"/>
<path d="M140.775 34.6455C140.98 35.2461 141.216 35.8335 141.369 36.446C143.211 43.8472 142.932 42.5998 142.747 43.4116C142.494 43.3575 142.167 43.3786 142.017 43.2282C141.734 42.9397 141.514 42.596 141.369 42.2184C140.556 40.138 140.166 37.9161 140.222 35.683C140.261 35.3481 140.327 35.017 140.42 34.693C140.548 34.6732 140.659 34.6587 140.775 34.6455Z" fill="#191919"/>
<path d="M56.4866 28.165C56.6605 28.3211 56.82 28.4925 56.9631 28.6772C58.5709 31.3542 61.3878 31.0004 62.1111 31.2486C62.3157 31.3185 62.6286 31.5416 62.6101 31.6578C62.5865 31.7841 62.5373 31.9043 62.4656 32.011C62.3938 32.1177 62.3011 32.2086 62.193 32.2782C60.1047 33.3804 56.2371 30.9278 56.3124 28.5822C56.3613 28.4395 56.4195 28.3001 56.4866 28.165Z" fill="#191919"/>
<path d="M217.833 25.3548C217.825 27.3678 215.541 27.352 215.589 25.4432C215.632 23.6599 217.839 23.4725 217.833 25.3548Z" fill="#191919"/>
<path d="M208.924 24.1119C209.264 24.1639 209.571 24.3444 209.781 24.616C209.992 24.8876 210.091 25.2297 210.057 25.5718C210.062 25.9008 209.938 26.2188 209.713 26.4583C209.487 26.6979 209.177 26.8401 208.849 26.8548C207.377 26.806 207.51 24.067 208.924 24.1119Z" fill="#191919"/>
<path d="M58.3623 22.0452C58.0758 22.0308 57.8062 21.905 57.6112 21.6947C57.4161 21.4843 57.311 21.206 57.3182 20.9192C57.3148 20.6059 57.4332 20.3035 57.6484 20.0757C57.8636 19.8479 58.1589 19.7126 58.4719 19.6982C59.8183 19.7207 59.7536 22.028 58.3623 22.0452Z" fill="#191919"/>
<path d="M66.1001 22.0038C65.957 22.0013 65.8161 21.9678 65.6871 21.9058C65.5581 21.8438 65.444 21.7547 65.3527 21.6445C65.2613 21.5343 65.1948 21.4057 65.1577 21.2675C65.1206 21.1292 65.1138 20.9846 65.1378 20.8435C65.1254 20.6998 65.1433 20.5551 65.1904 20.4188C65.2375 20.2825 65.3127 20.1576 65.4111 20.0522C65.5095 19.9468 65.629 19.8632 65.7618 19.8069C65.8946 19.7507 66.0377 19.7229 66.1819 19.7255C67.5521 19.6291 67.5864 22.0276 66.1001 22.0038Z" fill="#191919"/>
<path d="M51.844 131.542C50.6643 131.735 49.4742 131.859 48.28 131.911C47.0879 131.838 45.9011 131.697 44.7252 131.488C44.7252 133.036 44.6869 134.579 44.7397 136.12C44.7648 136.864 44.5206 137.349 43.8052 137.519C41.5269 138.06 39.2459 138.583 36.9623 139.088C36.7498 139.134 36.4911 138.938 36.2521 138.856C36.4026 138.624 36.499 138.257 36.7023 138.187C38.2414 137.659 39.7871 137.116 41.3553 136.694C43.0713 136.229 43.1029 136.285 43.2521 134.551C43.3485 133.439 43.4079 132.321 43.4501 131.208C43.4452 131.105 43.4183 131.005 43.3711 130.914C43.324 130.823 43.2577 130.743 43.1769 130.68C42.6409 130.305 42.0905 129.953 41.5255 129.624C41.3356 129.537 41.1229 129.513 40.9183 129.555C35.704 130.42 30.3537 129.889 25.411 128.016C24.3251 127.519 23.2742 126.95 22.2654 126.311C21.9755 126.157 21.7396 125.919 21.5894 125.628C21.4393 125.336 21.3822 125.005 21.4259 124.68C21.4509 122.535 22.1987 120.461 23.5485 118.793C25.3001 116.602 27.1402 114.485 28.9789 112.366C32.6182 108.173 31.6005 107.35 32.9152 104.173C33.9626 101.459 35.8176 99.1327 38.2295 97.5069C41.5389 95.1744 45.5705 94.0958 49.6026 94.4644C51.5149 94.5671 53.3729 95.1363 55.0146 96.1223C56.1656 96.8117 57.4367 97.277 58.7608 97.4938C60.0919 97.8284 61.3155 98.4972 62.3159 99.4369C63.3164 100.377 64.0604 101.556 64.4777 102.864C64.8862 103.872 65.1922 104.918 65.3911 105.988C66.2848 111.366 70.3174 113.417 74.152 118.376C74.8886 119.365 75.3848 120.513 75.6013 121.727C75.8178 122.941 75.7487 124.189 75.3994 125.372C75.2635 125.848 75.0113 126.282 74.6656 126.636C74.32 126.989 73.8917 127.252 73.4194 127.398C66.2914 130.199 62.6627 129.654 55.1691 129.67C54.847 129.626 54.5193 129.649 54.2068 129.739C53.6273 130.024 53.1323 130.353 53.2933 131.226C53.9533 134.822 53.1851 135.493 54.3097 135.824C56.1102 136.352 57.9133 136.896 59.6993 137.475C60.1573 137.623 60.8873 137.686 60.7553 138.362C60.6233 139.022 59.896 138.919 59.4353 138.799C57.2283 138.228 55.034 137.621 52.8525 136.978C52.6413 136.916 52.4301 136.506 52.3957 136.241C52.1911 134.646 52.0169 133.051 51.844 131.542ZM55.9439 128.178C57.1174 128.178 58.4202 128.221 59.7165 128.178C64.4281 127.95 69.0832 127.051 73.5408 125.508C73.649 125.46 73.7444 125.387 73.8191 125.296C73.8939 125.204 73.946 125.096 73.9711 124.98C74.229 123.036 73.7522 121.065 72.634 119.453C67.8397 113.278 65.2063 112.168 63.9695 107.371C63.6548 105.937 63.2353 104.528 62.7142 103.155C62.2185 101.786 61.3082 100.604 60.1099 99.7764C58.9115 98.9483 57.4848 98.5145 56.0284 98.5352C55.2364 98.5128 54.1157 97.5466 52.7614 97.0199C50.8551 96.3343 48.8257 96.0582 46.8055 96.2094C44.7853 96.3606 42.8197 96.9358 41.0367 97.8975C39.2536 98.8592 37.6933 100.186 36.4572 101.791C35.2212 103.396 34.3372 105.243 33.8629 107.213C33.2359 110.16 31.3391 112.336 29.4013 114.513C27.6853 116.444 26.0749 118.473 24.4962 120.516C23.636 121.753 23.1202 123.196 23.002 124.698C23.0032 124.82 23.0329 124.94 23.0885 125.049C23.1442 125.158 23.2243 125.253 23.3227 125.326C24.1842 125.841 25.0825 126.293 26.0103 126.676C29.2075 127.787 32.5606 128.383 35.9446 128.444C37.2197 128.501 38.5159 128.321 39.8399 128.246C39.163 127.155 38.5611 126.02 38.0381 124.848C37.4156 122.834 36.4153 120.956 35.0905 119.316C33.1963 117.151 34.1019 114.615 36.5307 114.015C37.3649 109.969 37.0917 110.893 37.6421 110.319C37.9457 111.231 37.8969 109.945 37.5193 114.604C37.4771 115.132 37.2263 115.286 36.7009 115.217C35.8139 115.103 35.4126 115.512 35.3572 116.399C35.3176 117.084 35.4565 117.768 35.7603 118.384C36.0641 118.999 36.5223 119.526 37.0903 119.911C37.7779 120.481 38.2555 121.264 38.4473 122.136C39.0679 124.851 40.7162 127.22 43.0462 128.746C47.3454 131.323 51.1972 131.113 54.5302 127.294C55.5722 125.924 56.2486 124.312 56.4957 122.608C56.5386 122.349 56.6362 122.101 56.7821 121.882C56.928 121.663 57.1187 121.478 57.3418 121.338C58.2109 120.766 58.9184 119.979 59.3962 119.055C59.8739 118.13 60.1061 117.098 60.0702 116.058C60.0702 115.022 59.298 114.625 58.3991 115.151C57.9345 115.423 57.7021 115.253 57.6546 114.824C57.5094 113.504 57.4051 112.176 57.3075 110.846C57.2943 110.675 57.4711 110.498 57.5596 110.318C58.3027 110.776 58.1443 110.289 58.6921 113.73C60.6642 113.893 61.3321 114.576 61.2714 116.533C61.2108 117.653 60.9202 118.748 60.4176 119.751C59.915 120.753 59.2113 121.641 58.3503 122.36C57.7972 122.868 58.0731 122.192 55.9465 128.178H55.9439Z" fill="#191919"/>
<path fill-rule="evenodd" clip-rule="evenodd" d="M248.853 89.1695C248.607 89.1794 248.363 89.1913 248.12 89.2032C247.876 89.215 247.632 89.2269 247.386 89.2368C247.025 88.4052 246.309 88.3643 245.538 88.3643C241.576 88.3643 227.984 88.3668 212.16 88.3698L212.111 88.3698H212.105C183.739 88.3751 148.231 88.3817 148.143 88.3775C147.835 87.9937 147.525 87.6132 147.215 87.232C143.727 82.95 140.176 78.5911 138.299 68.7161C138.006 67.2499 137.79 65.7695 137.651 64.2809C137.531 62.8553 137.964 62.6969 139.322 62.3511C142.215 61.6139 144.864 59.8297 146.851 58.4914L146.851 58.4913C147.312 58.1808 147.738 57.8944 148.122 57.6505C149.25 56.9351 149.399 56.9404 150.251 57.9027C153.059 61.0714 155.885 63.4488 158.84 65.9339C162.285 68.832 165.905 71.8766 169.872 76.4935C170.054 76.7388 170.223 76.9939 170.377 77.2578C174.745 70.2345 180.329 64.0452 186.867 58.9798C193.402 54.0285 200.32 49.8388 208.664 48.2627C208.29 50.7375 208.436 53.2633 209.093 55.6785C209.549 57.0914 210.383 58.3525 211.505 59.3244C212.627 60.2963 213.995 60.9418 215.458 61.1908C217.603 61.585 219.817 61.2504 221.75 60.2403C223.682 59.2301 225.221 57.6024 226.121 55.6164C226.618 53.9248 226.963 52.1923 227.152 50.4394C227.204 50.1624 227.226 49.8821 227.25 49.5869C227.26 49.4601 227.271 49.3305 227.284 49.1973C229.624 49.2888 231.919 49.865 234.025 50.8895C239.532 53.5487 244.548 57.1244 248.857 61.464C248.859 70.6891 248.858 79.9242 248.853 89.1695ZM175.18 81.6719C175.221 81.6165 175.261 81.5623 175.312 81.5082C175.206 81.3117 175.078 81.1283 174.93 80.9617C171.484 77.9691 171.465 77.9696 171.069 77.9802C170.994 77.9822 170.904 77.9846 170.775 77.9667C170.788 78.052 170.791 78.1497 170.793 78.247C170.799 78.451 170.805 78.6536 170.907 78.7375C172.047 79.6483 173.214 80.5327 174.386 81.4119C174.635 81.541 174.903 81.6289 175.18 81.6719ZM21.5025 171.897L21.5042 171.89L21.5044 171.889C23.3593 163.788 26.7643 148.917 28.323 141.993C28.3714 141.516 28.5763 141.068 28.9057 140.719C29.2352 140.37 29.6707 140.139 30.1446 140.063C31.5297 139.741 32.5369 139.343 33.2722 139.053C34.3673 138.62 34.8593 138.426 35.0986 139.073C36.7367 143.511 40.3786 145.35 44.6224 146.428C47.6308 147.145 50.7662 147.138 53.7713 146.407C58.4869 145.372 60.3969 141.589 61.4533 139.496C61.6368 139.133 61.7946 138.821 61.9368 138.582C62.0128 138.474 62.1126 138.384 62.2286 138.32C62.3447 138.257 62.4738 138.22 62.6061 138.214C63.3277 138.318 64.0431 138.461 64.7602 138.604L64.7607 138.604C65.2726 138.706 65.7854 138.808 66.3021 138.897C67.3564 139.078 67.4811 139.392 69.1112 143.498C70.2322 146.321 72.0652 150.938 75.4022 158.538C77.1029 162.41 78.8957 166.24 80.6884 170.07L80.6886 170.07C81.5519 171.914 82.4151 173.758 83.268 175.607C83.4396 176.09 83.5655 176.588 83.6442 177.095C83.064 177.104 56.1601 177.149 37.5687 177.181L37.5275 177.181C28.3927 177.196 21.2736 177.208 20.2869 177.211C20.4295 176.583 20.878 174.625 21.5025 171.897ZM139.812 151.163C138.93 152.476 138.458 154.022 138.456 155.604C138.45 156.649 138.65 157.685 139.045 158.653C139.44 159.621 140.022 160.502 140.758 161.244C141.493 161.987 142.368 162.577 143.332 162.982C144.296 163.386 145.331 163.596 146.376 163.6C147.958 163.613 149.508 163.156 150.829 162.287C152.151 161.418 153.185 160.176 153.8 158.719C154.415 157.261 154.583 155.654 154.283 154.101C153.983 152.548 153.229 151.119 152.116 149.995C151.003 148.871 149.581 148.103 148.031 147.788C146.481 147.474 144.872 147.626 143.409 148.227C141.945 148.828 140.693 149.85 139.812 151.163ZM148.664 155.297C148.697 155.128 148.732 154.948 148.764 154.758V154.751C148.102 154.376 147.37 154.142 146.613 154.062C145.857 153.983 145.092 154.06 144.367 154.289C144.183 154.344 144.005 154.783 144.005 155.047C144.005 155.901 144.016 156.346 143.799 156.575C143.525 156.864 142.887 156.809 141.406 156.8C140.376 156.788 140.028 156.344 140.342 155.348C140.505 154.683 140.855 154.078 141.351 153.606C141.847 153.133 142.467 152.812 143.139 152.681C145.278 152.242 147.491 152.321 149.593 152.912C150.289 153.12 150.921 153.5 151.43 154.018C151.939 154.536 152.31 155.174 152.506 155.873C152.773 156.603 152.472 157.036 151.688 157.074C150.958 157.11 150.22 157.103 149.483 157.074C148.331 157.03 148.456 156.381 148.664 155.297Z" fill="url(#paint0_linear_16347_31616)"/>
<path d="M94.4445 162.44C94.7731 162.563 95.0121 162.572 95.1269 162.704C95.3803 162.989 95.911 163.086 95.6258 163.727C94.8787 165.404 92.7483 170.591 92.6981 170.723C92.5212 171.193 92.2123 171.497 91.7028 171.303C91.591 171.266 91.4891 171.205 91.4052 171.122C91.3213 171.04 91.2576 170.939 91.2192 170.828C91.1808 170.717 91.1687 170.599 91.184 170.482C91.1992 170.366 91.2412 170.254 91.3068 170.157C91.9747 168.665 92.6202 167.163 93.3053 165.687C93.4356 165.454 93.5064 165.191 93.5112 164.924C93.516 164.656 93.4548 164.392 93.333 164.153C88.2985 153.764 82.9855 148.721 73.2954 142.854C71.3286 141.666 69.6984 141.27 68.5685 140.029C68.1197 139.537 68.3045 139.133 68.9645 139.129C69.4245 139.129 69.8805 139.215 70.3096 139.381C74.2602 141.035 77.9578 143.238 81.2933 145.924C89.4641 152.193 90.8699 155.987 94.4445 162.44Z" fill="#191919"/>
<path d="M100.994 148.066C102.614 148.076 104.194 148.568 105.534 149.477C106.874 150.387 107.914 151.675 108.521 153.176C109.129 154.678 109.277 156.326 108.946 157.912C108.616 159.497 107.822 160.949 106.665 162.083C105.508 163.217 104.041 163.981 102.449 164.28C100.857 164.579 99.2117 164.398 97.7226 163.76C96.2336 163.123 94.9673 162.058 94.0846 160.699C93.2018 159.341 92.7422 157.752 92.7642 156.132C92.7951 153.974 93.6774 151.915 95.2188 150.405C96.7602 148.894 98.8361 148.053 100.994 148.066ZM100.824 163.069C102.171 163.091 103.495 162.715 104.629 161.988C105.763 161.261 106.657 160.215 107.198 158.981C107.74 157.747 107.904 156.381 107.671 155.054C107.439 153.727 106.819 152.498 105.89 151.522C104.961 150.546 103.764 149.867 102.45 149.569C101.136 149.271 99.7637 149.368 98.5048 149.848C97.2458 150.328 96.1568 151.169 95.3745 152.266C94.5922 153.363 94.1516 154.667 94.1079 156.013C94.0793 156.919 94.2309 157.822 94.5541 158.668C94.8773 159.515 95.3655 160.289 95.9903 160.946C96.6152 161.602 97.3643 162.128 98.1942 162.492C99.024 162.857 99.9179 163.053 100.824 163.069Z" fill="#191919"/>
<path d="M110.785 146.211C111.068 142.888 112.986 140.593 115.24 138.119C118.71 134.307 119.043 130.561 119.674 129.052C119.827 128.797 120.02 128.569 120.246 128.376C120.417 128.649 120.76 128.936 120.731 129.181C120.315 132.745 120.15 135.726 117.027 139.237C111.978 144.913 113.095 145.679 111.909 147.036C111.692 147.222 111.449 147.376 111.187 147.492C110.662 146.389 110.785 146.76 110.785 146.211Z" fill="#191919"/>
<path d="M101.363 147.527C102.086 145.897 102.772 144.238 103.539 142.622C104.534 140.396 104.766 137.905 104.199 135.534C103.85 133.638 103.659 131.716 103.626 129.789C103.71 128.872 103.948 127.975 104.329 127.136C104.43 126.835 104.731 126.608 105.106 126.126C105.202 126.476 105.266 126.835 105.297 127.197C104.912 129.928 105.023 132.706 105.625 135.398C106.252 137.904 105.942 140.553 104.752 142.846C102.489 147.436 102.966 148.344 101.363 147.527Z" fill="#191919"/>
<path d="M123.338 167.311C123.338 166.697 123.481 166.144 124.232 166.083C124.818 166.036 125.191 166.506 125.186 167.332C125.169 169.828 125.142 172.332 125.111 174.83C125.111 175.409 124.995 175.986 124.258 175.975C123.522 175.965 123.421 175.403 123.42 174.816C123.416 173.556 123.334 168.56 123.338 167.311Z" fill="#191919"/>
<path d="M114.796 120.888C114.993 121.283 115.142 121.7 115.24 122.129C115.489 124.44 115.122 126.775 114.175 128.897C113.894 129.452 113.518 129.953 113.063 130.378C112.893 130.548 112.484 130.48 112.183 130.521C112.111 130.231 112.088 129.932 112.115 129.635C112.556 128.072 113.092 126.537 113.493 124.967C113.732 124.026 113.75 123.03 113.936 122.063C114.061 121.645 114.228 121.24 114.435 120.855C114.551 120.879 114.676 120.888 114.796 120.888Z" fill="#191919"/>
<path d="M118.691 126.221C118.502 128.416 117.781 130.533 116.59 132.388C116.212 132.882 115.756 133.311 115.24 133.658C115.133 133.702 115.018 133.723 114.902 133.718C114.786 133.713 114.673 133.683 114.57 133.63C114.482 133.588 114.506 133.234 114.557 133.05C114.636 132.765 114.795 132.504 114.898 132.224C117.934 123.948 117.25 125.645 118.097 124.468C118.86 126.045 118.691 125.508 118.691 126.221Z" fill="#191919"/>
<path d="M138.858 123.151L139.287 122.436C139.551 122.634 139.938 122.775 140.058 123.036C141.085 124.96 141.716 127.069 141.914 129.24C142.128 130.075 142.195 130.941 142.112 131.798C142.071 131.906 142.005 132.001 141.918 132.076C141.831 132.151 141.727 132.204 141.615 132.229C141.502 132.207 141.395 132.158 141.305 132.087C141.215 132.015 141.143 131.923 141.096 131.818C140.945 131.416 140.926 130.972 140.809 130.55C138.568 122.418 139.15 124.79 138.858 123.151Z" fill="#191919"/>
<path d="M142.767 124.16C142.726 123.861 142.993 123.527 143.115 123.206C143.428 123.404 143.917 123.535 144.029 123.82C145.039 126.177 145.377 128.767 145.004 131.304C144.883 131.748 144.716 132.177 144.507 132.586C143.956 132.513 143.98 133.15 142.767 124.16Z" fill="#191919"/>
<path d="M137.821 131.965C137.686 131.845 137.571 131.705 137.48 131.549C136.587 129.252 135.764 126.929 134.832 124.644C134.78 124.512 134.778 124.551 134.908 123.512C135.181 123.724 135.548 123.875 135.713 124.147C136.933 126.007 137.811 128.07 138.305 130.238C138.328 130.822 138.255 131.405 138.088 131.965C138.006 131.976 137.908 131.965 137.821 131.965Z" fill="#191919"/>
<path d="M110.962 120.913C111.054 121.238 111.121 121.569 111.16 121.903C111.219 124.137 110.829 126.359 110.014 128.439C109.869 128.816 109.649 129.16 109.366 129.449C109.217 129.599 108.888 129.581 108.636 129.632C108.545 129.402 108.5 129.156 108.504 128.909C108.715 128.097 109.032 127.313 109.234 126.494C110.665 120.572 109.981 122.381 110.674 120.886C110.77 120.9 110.867 120.907 110.962 120.913Z" fill="#191919"/>
<path d="M175.18 81.6721C174.899 81.6275 174.627 81.5384 174.374 81.4081C173.186 80.5475 172.029 79.6617 170.895 78.7338C170.746 78.611 170.8 78.2295 170.763 77.9629C171.008 77.9972 171.321 77.9365 171.486 78.0725C175.578 81.4411 174.947 80.9765 175.3 81.5045C175.264 81.5625 175.221 81.6167 175.18 81.6721Z" fill="#191919"/>
<path d="M200.74 124.591C198.413 124.591 197.511 124.228 197.898 121.796C198.17 119.793 198.955 117.894 200.176 116.284C200.385 116.192 200.599 116.115 200.818 116.053C200.895 116.265 200.939 116.487 200.95 116.713C200.889 116.918 200.807 117.117 200.704 117.305C198.833 122.951 198.533 123.154 200.405 123.179C200.999 123.189 201.606 123.07 202.192 123.132C202.506 123.166 202.786 123.459 203.079 123.637C202.868 123.917 202.703 124.35 202.431 124.429C201.877 124.553 201.313 124.619 200.745 124.627C200.74 124.616 200.739 124.603 200.74 124.591Z" fill="#191919"/>
<path d="M207.483 124.434C207.476 124.843 207.426 125.25 207.333 125.648C206.854 126.785 205.972 127.704 204.857 128.232C203.742 128.759 202.472 128.857 201.289 128.507C201.025 128.439 200.831 128.071 200.607 127.838C200.879 127.737 201.152 127.524 201.418 127.539C202.424 127.655 203.442 127.476 204.348 127.024C205.254 126.572 206.009 125.867 206.522 124.994C206.692 124.714 206.856 124.427 207.019 124.147C207.17 124.243 207.327 124.339 207.483 124.434Z" fill="#191919"/>
<path d="M195.708 117.94C195.715 116.902 196.117 116.408 196.82 116.445C197.522 116.482 197.876 117.105 197.728 118.029C197.565 119.019 197.147 119.576 196.587 119.448C195.724 119.248 195.743 118.512 195.708 117.94Z" fill="#191919"/>
<path d="M206.5 117.496C206.524 115.363 208.499 115.36 208.499 117.509C208.512 117.671 208.498 117.835 208.458 117.993C208.288 118.482 208.158 119.068 207.483 119.016C206.668 118.956 206.493 118.29 206.5 117.496Z" fill="#191919"/>
<path d="M124.824 159.432C125.268 159.432 125.691 159.432 126.182 159.432V160.729H121.98V159.48H123.317C123.581 158.798 123.379 158.477 122.764 158.198C122.366 158.014 122.024 157.727 121.774 157.368C121.523 157.008 121.373 156.588 121.338 156.151C121.305 155.858 121.665 155.524 121.844 155.203C122.108 155.421 122.504 155.591 122.587 155.863C122.839 156.641 123.256 157.221 124.101 157.214C124.461 157.222 124.811 157.096 125.081 156.858C125.352 156.62 125.523 156.29 125.561 155.932C125.652 155.482 125.909 155.167 126.413 155.29C126.941 155.422 126.941 155.842 126.85 156.272C126.351 158.772 124.389 157.716 124.824 159.432Z" fill="#191919"/>
<path d="M125.236 155.462C125.246 155.606 125.224 155.751 125.174 155.887C125.123 156.023 125.044 156.147 124.942 156.25C124.84 156.353 124.718 156.433 124.583 156.486C124.447 156.538 124.303 156.561 124.158 156.553C124.013 156.567 123.867 156.549 123.73 156.501C123.593 156.453 123.468 156.375 123.364 156.274C123.259 156.173 123.178 156.051 123.125 155.915C123.073 155.78 123.05 155.634 123.059 155.489C123.033 154.213 123.036 152.93 123.053 151.655C123.062 150.972 123.531 150.692 124.13 150.692C124.772 150.692 125.239 150.972 125.243 151.709C125.236 151.841 125.236 155.183 125.236 155.462Z" fill="#191919"/>
<path d="M46.9891 109.932C43.9121 109.932 40.9448 109.952 37.9774 109.932C35.5486 109.911 35.1869 109.495 35.8958 107.148C36.3891 105.681 37.0074 104.259 37.7438 102.898C37.9118 102.532 38.189 102.227 38.5372 102.026C38.8853 101.824 39.2874 101.735 39.6882 101.772C38.6916 104.016 37.757 106.118 36.7841 108.321H58.2051C57.8019 106.577 57.009 104.947 55.8859 103.552C55.5849 103.13 54.9104 102.628 55.408 102.182C55.9743 101.677 56.3901 102.462 56.765 102.83C57.5812 103.569 58.2308 104.473 58.6707 105.482C59.1106 106.491 59.3308 107.582 59.3166 108.683C59.2043 109.7 58.8321 109.983 57.8025 109.986L48.2378 110.007C48.2378 122.25 48.2259 120.925 47.5963 121.611C47.0326 120.888 46.9891 122.46 46.9891 109.932Z" fill="#191919"/>
<path d="M50.4278 124.591C49.5606 127.047 44.0166 125.399 43.0873 121.766C42.9738 121.321 43.049 121.362 43.2708 120.818C43.43 120.897 43.5771 120.998 43.7077 121.118C43.8833 121.324 44.006 121.576 44.1644 121.794C44.7546 122.685 45.566 123.407 46.5194 123.891C47.4727 124.374 48.5353 124.601 49.6028 124.55C49.8784 124.548 50.1539 124.561 50.4278 124.591Z" fill="#191919"/>
<path d="M54.0301 113.689C54.0301 116.118 51.7861 115.545 51.765 113.791C51.7333 111.656 54.0301 111.528 54.0301 113.689Z" fill="#191919"/>
<path d="M44.6356 113.825C44.6224 114.637 44.2396 115.07 43.5571 115.052C41.7435 115.008 42.3507 112.038 43.5783 112.126C44.2066 112.176 44.6501 112.884 44.6356 113.825Z" fill="#191919"/>
<path d="M102.093 153.339V158.545C100.377 158.545 98.6949 158.586 97.0106 158.524C96.8376 158.525 96.6661 158.492 96.5063 158.426C96.3464 158.36 96.2015 158.262 96.08 158.139C95.9585 158.016 95.8629 157.87 95.799 157.709C95.7351 157.549 95.704 157.377 95.7077 157.204C95.6655 156.364 95.6589 155.512 95.6998 154.672C95.696 154.493 95.7293 154.316 95.7976 154.15C95.8659 153.985 95.9676 153.836 96.0965 153.712C96.2253 153.588 96.3785 153.492 96.5462 153.43C96.714 153.368 96.8928 153.341 97.0713 153.352C98.7292 153.33 100.387 153.339 102.093 153.339Z" fill="#191919"/>
<path d="M105.708 153.312V158.476C104.849 157.999 104.037 157.576 103.259 157.105C102.775 156.812 102.844 155.134 103.32 154.8C103.515 154.663 105.576 153.393 105.708 153.312Z" fill="#191919"/>
<defs>
<linearGradient id="paint0_linear_16347_31616" x1="239.201" y1="20.4158" x2="10.5292" y2="187.596" gradientUnits="userSpaceOnUse">
<stop stop-color="#E41B64"/>
<stop offset="1" stop-color="#4791FF"/>
</linearGradient>
</defs>
</svg>
