<svg width="259" height="274" viewBox="0 0 259 274" fill="none" xmlns="http://www.w3.org/2000/svg">
<path d="M60.8308 45.7667C59.1935 46.1699 57.7233 48.7907 58.8148 49.1708C59.5866 49.4416 59.5074 48.0563 61.1908 47.4025C62.1671 47.0223 61.8806 45.5089 60.8308 45.7667Z" fill="#00020F"/>
<path d="M62.7099 52.0404C63.2715 51.4197 62.6552 49.133 61.6054 49.83C60.8422 50.4204 61.7437 53.1132 62.7099 52.0404Z" fill="#00020F"/>
<path d="M43.9223 62.408C44.1326 65.7206 44.1326 69.0431 43.9223 72.3556C43.9223 73.1951 45.0268 73.2196 45.2183 72.3556C45.6256 69.1196 45.7585 65.855 45.6158 62.5967C48.1027 62.0653 50.1028 59.2847 50.8876 57.5668C51.2912 58.1214 51.8925 58.4996 52.5672 58.6231C53.2418 58.7467 53.9382 58.6062 54.5121 58.2306C55.2522 57.5452 54.6892 56.6178 53.7604 56.949C53.0404 57.2039 52.4644 56.7704 52.0814 56.1196C51.5745 55.2671 50.974 52.0256 52.2355 51.4223C53.4235 50.8549 55.2335 52.2863 55.5071 51.058C56.2746 48.6518 56.4417 46.0944 55.9938 43.6088C60.249 43.6088 69.9172 42.2495 70.6818 33.8053C71.5631 24.068 41.0078 31.4221 36.1334 38.0605C31.6219 44.2021 40.0646 60.0349 43.9223 62.408Z" fill="#00020F"/>
<path d="M65.937 56.6638C67.341 56.5644 67.521 55.3476 67.341 54.0992C66.796 50.6177 65.8002 47.222 64.3789 43.9976C64.3154 43.8581 64.2006 43.7484 64.0584 43.6913C63.9161 43.6342 63.7574 43.6341 63.6151 43.691C63.4728 43.7479 63.3578 43.8574 63.2941 43.9968C63.2304 44.1362 63.2229 44.2948 63.273 44.4397C64.33 47.8621 65.2082 51.3372 65.9039 54.8508C65.9572 55.1172 65.9816 55.0942 65.7052 55.1273C64.5762 55.2627 62.8511 54.6132 62.9692 56.9072C62.9517 57.4467 62.985 57.9867 63.0685 58.52C61.9189 58.7313 60.7321 58.4898 59.7565 57.8461C58.9314 57.2945 58.3741 57.99 58.5844 58.952C58.8055 59.9614 59.3468 60.8724 60.1275 61.5493C60.9083 62.2263 61.8868 62.633 62.9173 62.7089C62.9173 64.0467 62.8511 65.55 61.3333 65.9475C59.5519 66.1676 57.7469 66.1044 55.9852 65.7603C55.3688 65.6465 54.9412 66.5523 55.5647 66.8648C56.1316 67.1446 56.7399 67.3313 57.3661 67.4177C57.5089 69.3126 57.8007 71.1933 58.2388 73.0424C58.2529 73.1335 58.2859 73.2207 58.3356 73.2984C58.3853 73.3761 58.4506 73.4425 58.5274 73.4936C58.6042 73.5446 58.6909 73.5791 58.7817 73.5948C58.8726 73.6105 58.9658 73.6071 59.0553 73.5848C59.1447 73.5625 59.2286 73.5218 59.3015 73.4653C59.3744 73.4088 59.4347 73.3377 59.4786 73.2566C59.5225 73.1755 59.549 73.0861 59.5564 72.9942C59.5639 72.9023 59.5521 72.8098 59.5218 72.7227C59.2554 71.0652 58.9242 69.307 58.7586 67.5617C59.8699 67.6953 60.9968 67.6012 62.0706 67.2852C64.281 66.4443 64.4351 64.3448 64.281 62.3115C64.281 61.8248 64.281 61.1393 63.3968 61.2833C63.3968 61.2833 61.738 61.7484 60.2792 59.5265C61.1402 59.8981 62.0842 60.0352 63.0152 59.924C65.1047 59.6691 64.4624 58.9923 64.4624 56.7848C64.9461 56.6773 65.4423 56.6366 65.937 56.6638Z" fill="#00020F"/>
<path d="M8.39601 81.1775C8.51899 81.3875 8.72037 81.5401 8.95586 81.6017C9.19134 81.6632 9.44164 81.6287 9.65169 81.5058C9.86174 81.3828 10.0143 81.1814 10.0759 80.9459C10.1375 80.7104 10.103 80.4601 9.98001 80.2501C8.68401 78.2485 6.99633 77.5299 5.55921 76.3376C4.37442 75.1335 3.3878 73.7493 2.63601 72.2365C1.87425 71.132 0.918088 71.42 1.44225 72.9003C2.84337 76.8301 4.66497 77.2736 8.39601 81.1775Z" fill="#00020F"/>
<path d="M12.1473 70.3476C11.7803 66.8581 11.9068 63.3343 12.5232 59.8802C12.7449 58.6015 12.0984 58.3754 11.4172 59.572C10.3056 61.5232 10.0795 68.2394 10.8096 70.5348C11.0486 71.2879 12.1804 70.9322 12.1473 70.3476Z" fill="#00020F"/>
<path d="M9.06422 74.3803C7.39526 68.2243 7.8719 65.7705 8.4335 59.8795C8.49974 59.184 7.5335 59.2085 7.32902 59.747C5.6903 64.0454 6.12374 70.5225 7.66022 74.8008C7.74995 74.9395 7.88228 75.0454 8.03732 75.1025C8.19236 75.1595 8.36173 75.1648 8.52 75.1174C8.67828 75.07 8.81689 74.9725 8.91502 74.8396C9.01316 74.7067 9.06551 74.5455 9.06422 74.3803Z" fill="#00020F"/>
<path d="M15.9821 69.7165C15.9872 67.1564 16.2238 64.602 16.6891 62.0845C16.9454 60.7568 16.1707 59.9634 15.4622 61.6525C14.6663 64.2126 14.348 66.8972 14.5234 69.5725C14.6328 71.3365 15.9648 71.541 15.9821 69.7165Z" fill="#00020F"/>
<path d="M21.176 80.0615C21.4784 75.586 18.9598 72.8327 19.9059 65.6946C20.0154 64.8652 19.1859 64.2157 18.7237 65.6946C17.2448 70.4322 19.3501 76.0209 19.8282 79.9506C19.9765 81.1761 21.068 81.6196 21.176 80.0615Z" fill="#00020F"/>
<path d="M133.332 143.048C130.174 142.079 127.296 140.361 124.944 138.041C121.855 134.506 120.322 140.975 132.946 144.233C133.103 144.285 133.274 144.271 133.422 144.196C133.569 144.121 133.68 143.991 133.732 143.834C133.783 143.677 133.769 143.506 133.695 143.358C133.62 143.211 133.489 143.1 133.332 143.048Z" fill="#00020F"/>
<path d="M130.691 145.434C127.848 144.535 125.119 143.311 122.556 141.787C122.124 141.526 120.928 141.931 121.916 143.002C124.375 144.934 127.298 146.187 130.393 146.638C131.973 146.662 132.029 145.784 130.691 145.434Z" fill="#00020F"/>
<path d="M117.396 135.919C117.074 136.57 118.018 137.359 118.501 136.702C121.193 133.058 126.591 135.598 129.939 133.122C130.137 133.002 130.278 132.808 130.333 132.584C130.387 132.359 130.351 132.122 130.231 131.925C130.111 131.727 129.917 131.585 129.693 131.53C129.469 131.475 129.231 131.511 129.034 131.631C125.517 133.626 119.462 131.718 117.396 135.919Z" fill="#00020F"/>
<path d="M122.081 132.26C122.955 132.16 123.357 131.666 123.032 131.155C122.559 130.409 120.687 130.827 119.72 130.978C117.816 131.266 116.012 131.142 115.951 132.006C115.843 133.485 120.037 132.493 122.081 132.26Z" fill="#00020F"/>
<path d="M123.22 149.182C118.939 147.576 114.761 145.708 110.71 143.589C110.17 143.309 109.126 143.676 110.145 144.693C111.782 146.317 120.391 149.855 122.817 150.22C123.364 150.22 123.827 149.405 123.22 149.182Z" fill="#00020F"/>
<path d="M128.845 147.822C125.533 146.913 123.949 146.822 120.637 144.926C119.907 144.507 119.154 145.515 119.874 146.03C122.46 147.875 125.539 148.903 128.715 148.981C128.843 148.955 128.959 148.89 129.047 148.794C129.134 148.699 129.19 148.578 129.204 148.449C129.218 148.319 129.191 148.189 129.127 148.076C129.062 147.964 128.964 147.874 128.845 147.822Z" fill="#00020F"/>
<path d="M205.192 60.9078C205.192 65.4395 207.391 67.1603 209.537 70.6566C210.284 71.8748 211.396 71.2326 211.216 70.3902C210.715 68.0459 207.303 66.9529 206.431 60.8416C206.415 60.6823 206.339 60.535 206.218 60.4306C206.096 60.3261 205.939 60.2726 205.78 60.2812C205.62 60.2897 205.469 60.3597 205.36 60.4765C205.251 60.5932 205.19 60.7478 205.192 60.9078Z" fill="#00020F"/>
<path d="M215.35 58.7756C215.804 54.9596 214.047 48.602 212.211 45.3922C212.128 45.2415 211.99 45.1287 211.826 45.0777C211.662 45.0267 211.485 45.0414 211.331 45.1188C211.178 45.1962 211.061 45.3301 211.004 45.4923C210.948 45.6546 210.956 45.8325 211.029 45.9884C212.751 50.001 213.642 54.3211 213.648 58.6878C213.621 60.0471 215.18 60.2329 215.35 58.7756Z" fill="#00020F"/>
<path d="M222.812 70.2026C221.719 64.3202 222.701 53.621 221.044 48.3751C220.813 47.645 219.46 47.2692 219.741 48.6516C221.24 55.8516 219.958 63.2949 221.143 70.3466C221.317 71.3964 223.011 71.2855 222.812 70.2026Z" fill="#00020F"/>
<path d="M218.544 59.3055C219.317 57.0288 217.892 48.9951 217.162 46.9388C216.432 44.8824 215.041 44.7788 215.759 47.6026C216.698 51.3903 217.147 55.2826 217.095 59.1845C217.132 59.3421 217.217 59.4841 217.339 59.59C217.462 59.6958 217.614 59.7601 217.776 59.7736C217.937 59.7871 218.098 59.749 218.236 59.6648C218.374 59.5807 218.482 59.4549 218.544 59.3055Z" fill="#00020F"/>
<path d="M207.79 48.3307C209.925 52.853 210.677 57.9052 209.95 62.8531C209.787 63.9576 211.439 64.2658 211.596 63.1958C212.396 57.8845 211.46 52.457 208.928 47.7201C208.847 47.5693 208.709 47.4568 208.545 47.4074C208.381 47.3579 208.204 47.3757 208.054 47.4566C207.903 47.5376 207.79 47.6752 207.741 47.8391C207.691 48.003 207.709 48.1799 207.79 48.3307Z" fill="#00020F"/>
<path d="M198.263 44.5291C195.251 38.8786 187.607 38.1788 182.095 39.9975C176.78 41.7485 174.732 48.0226 174.358 53.1605C174.012 57.8923 174.274 65.3199 175.684 69.1863C176.181 70.8542 177.16 72.3384 178.496 73.4531C179.833 74.5678 181.469 75.2635 183.199 75.4531V79.3411C183.222 79.5025 183.302 79.6503 183.425 79.7573C183.548 79.8643 183.705 79.9232 183.868 79.9232C184.031 79.9232 184.188 79.8643 184.311 79.7573C184.434 79.6503 184.514 79.5025 184.537 79.3411C184.681 78.0451 184.703 76.7333 184.78 75.4287C187.41 75.1407 191.201 73.008 191.887 70.2346C191.937 70.0892 191.929 69.9298 191.864 69.7903C191.799 69.6509 191.682 69.5423 191.538 69.4876C191.394 69.4329 191.234 69.4364 191.093 69.4973C190.952 69.5583 190.84 69.6719 190.781 69.8141C188.438 74.8541 178.812 76.3459 176.513 66.2227C175.361 58.7895 174.65 46.9167 180.734 42.5276C183.971 40.1933 193.942 39.5035 196.904 45.3903C198.193 48.636 198.224 52.2459 196.992 55.5135C196.227 55.2852 195.405 55.3484 194.685 55.691C193.964 56.0336 193.396 56.6312 193.091 57.3682C192.702 58.0522 193.633 58.7405 194.099 58.0983C197.347 53.5853 199.074 63.1383 195.7 63.2146C195.292 63.2247 193.789 62.5968 193.789 63.7906C193.789 64.4098 194.43 64.8187 194.993 64.9627C194.877 69.0455 195.399 73.1212 196.541 77.0429C196.593 77.2132 196.71 77.3562 196.866 77.441C197.023 77.5259 197.206 77.5458 197.377 77.4965C197.548 77.4471 197.693 77.3325 197.781 77.1773C197.868 77.0222 197.891 76.8389 197.844 76.6671C197.032 72.8081 196.529 68.8903 196.342 64.9512C199.867 64.1333 199.569 58.6959 198.342 56.7072C199.225 55.7021 200.82 49.3229 198.263 44.5291Z" fill="#00020F"/>
<path d="M187.388 62.5528C187.148 61.4469 186.163 61.3489 185.719 62.0776C185.181 62.8763 184.436 63.5146 183.565 63.925C182.693 64.3354 181.727 64.5026 180.768 64.4089C180.204 64.4089 179.976 64.9158 180.204 65.5149C182.204 70.7608 188.788 69.0054 187.388 62.5528ZM186.161 63.8675C186.272 67.4488 183.376 68.3877 181.795 65.8677C182.619 65.8396 183.429 65.6487 184.178 65.3059C184.927 64.9631 185.602 64.4752 186.161 63.8704V63.8675Z" fill="#00020F"/>
<path d="M183.851 58.8303C184.956 58.754 184.859 55.5601 183.553 55.8913C182.501 56.1591 182.558 58.9196 183.851 58.8303Z" fill="#00020F"/>
<path d="M177.707 55.9287C176.603 56.1433 176.369 58.7886 177.707 58.7252C178.899 58.6647 178.712 55.7286 177.707 55.9287Z" fill="#00020F"/>
<path d="M185.804 51.7024C183.068 50.9277 182.147 53.3829 184.014 53.1943C184.422 53.0958 184.848 53.0988 185.254 53.203C185.661 53.3072 186.035 53.5094 186.346 53.7919C188.028 55.3269 188.913 52.5852 185.804 51.7024Z" fill="#00020F"/>
<path d="M178.424 51.7686C178.053 51.7697 177.687 51.8572 177.355 52.0241C177.024 52.1911 176.735 52.4329 176.513 52.7305C175.894 53.426 176.513 54.2223 177.01 53.7572C177.205 53.5311 177.455 53.3586 177.735 53.2563C178.016 53.154 178.318 53.1251 178.613 53.1726C179.519 53.2489 179.918 51.7657 178.424 51.7686Z" fill="#00020F"/>
<path d="M182.537 62.6326C183.156 62.4382 183.332 61.4403 182.537 61.4489C181.753 61.4637 180.971 61.3898 180.204 61.2286C180.535 59.3379 181.256 56.802 180.768 56.5529C179.877 56.1008 178.853 60.3776 178.745 61.1292C178.407 63.4822 182.172 62.7449 182.537 62.6326Z" fill="#00020F"/>
<path d="M176.755 196.638C180.835 198.208 187.112 199.014 193.764 199.335C192.18 191.271 190.29 182.018 190.195 173.915C190.186 173.153 191.29 172.922 191.378 173.716C192.388 182.376 193.967 190.96 196.107 199.412C203.414 199.643 210.729 199.444 218.012 198.816C218.61 191.875 219.405 168.567 219.847 150.374C207.031 155.613 183.376 155.392 169.549 151.48C171.329 167.085 174.114 184.57 176.755 196.638Z" fill="#00020F"/>
<path d="M49.8236 176.357C48.4356 176.551 47.0296 176.581 45.6346 176.446C50.3064 186.02 54.3189 195.901 57.6442 206.021C62.5402 222.223 66.9063 253.645 67.1828 258.938C68.7524 259.778 83.6276 259.359 87.2866 258.938C87.2866 255.38 89.4624 215.253 88.3911 200.618C87.8151 192.816 84.6471 168.999 82.1688 151.16C65.5138 156.167 43.4876 156.389 27.1191 149.734C28.3892 170.015 30.5924 189.126 26.5215 200.309C20.64 214.908 13.6725 229.046 5.67749 242.604C6.51845 243.656 17.3041 250.341 23.4831 253.923C41.3866 228.723 51.7071 213.737 55.081 204.619C52.1711 194.868 48.4481 185.379 43.9512 176.251C42.1301 175.949 40.3424 175.471 38.6132 174.825C37.9608 174.58 37.9968 173.368 39.0322 173.719C42.5345 174.851 46.2072 175.363 49.8855 175.234C50.6199 175.215 50.7639 176.222 49.8236 176.357Z" fill="#00020F"/>
<path d="M20.9241 253.928C20.8111 253.74 20.6278 253.604 20.4146 253.55C20.2014 253.497 19.9757 253.531 19.7872 253.644C19.5987 253.757 19.4629 253.94 19.4096 254.153C19.3562 254.366 19.3898 254.592 19.5028 254.781C19.5907 254.925 28.9017 269.816 28.042 270.749C26.9275 271.957 4.07466 257.35 2.10186 254.17C0.846182 252.145 4.4145 249.761 6.79914 246.611C7.3665 245.863 6.39882 244.672 5.62842 245.34C3.9095 246.893 2.3675 248.632 1.0305 250.524C-2.02374 254.668 2.45754 257.332 5.37354 259.52C10.9021 263.63 16.7113 267.349 22.7587 270.649C26.1383 272.513 32.1187 274.547 29.0947 268.085C26.7486 263.158 24.0165 258.424 20.9241 253.928Z" fill="#00020F"/>
<path d="M101.658 267.752C96.8251 264.976 91.7895 262.569 86.5939 260.552C86.4744 260.502 86.346 260.476 86.2163 260.476C86.0866 260.475 85.9582 260.501 85.8386 260.551C85.719 260.602 85.6106 260.675 85.5198 260.768C85.429 260.86 85.3575 260.97 85.3096 261.09C85.2617 261.211 85.2383 261.34 85.2409 261.469C85.2434 261.599 85.2717 261.727 85.3243 261.846C85.3768 261.964 85.4525 262.071 85.5469 262.16C85.6413 262.249 85.7524 262.318 85.8739 262.364C89.8152 263.911 93.6873 265.658 97.4457 267.536C99.1521 268.388 105.181 271.117 99.9096 271.25L69.9259 271.98C66.4555 272.056 66.4699 271.515 67.151 268.255C67.6589 266.003 68.3997 263.81 69.3614 261.711C69.7358 260.864 68.3909 260.06 67.9142 260.895C66.7556 262.961 65.9295 265.196 65.4662 267.519C64.0262 274.467 67.0027 273.84 72.4617 273.729L100.81 273.099C105.282 272.985 105.236 270.214 101.658 267.752Z" fill="#00020F"/>
<path d="M143.069 240.659C172.477 245.159 210.605 248.189 240.471 250.262C241.676 250.346 241.675 248.472 240.471 248.39C207.943 246.279 172.239 242.63 143.213 239.161C142.417 239.071 142.218 240.528 143.069 240.659Z" fill="#00020F"/>
<path d="M255.922 34.6162C255.759 27.0015 255.077 13.4007 245.764 11.6727C245.001 11.5287 244.661 12.77 245.378 12.9874C253.506 15.4556 253.7 27.6423 254.142 34.8164C254.148 34.8415 254.148 34.8676 254.142 34.8927C254.882 111.892 257.365 171.053 256.795 246.473C256.727 255.315 252.728 263.638 246.251 265.726C245.609 265.932 245.721 267.129 246.527 267.008C255.023 265.732 259.005 254.11 258.994 246.495C258.887 175.592 257.525 109.868 255.922 34.6162Z" fill="#00020F"/>
<path d="M184.757 18.6674C180.623 19.4392 181.445 26.7314 185.289 26.3152C189.499 25.8544 189.388 17.8034 184.757 18.6674ZM184.956 20.4472C186.658 20.0397 187.237 23.5274 185.199 24.315C183.611 24.9299 183.476 20.8014 184.956 20.4472Z" fill="#00020F"/>
<path d="M140.991 38.0425C171.682 34.5865 203.98 29.8979 235.033 25.8846C236.337 25.7161 236.329 23.6727 235.033 23.8398C203.827 27.8862 169.025 32.1817 140.748 36.2626C139.743 36.4081 139.986 38.1548 140.991 38.0425Z" fill="#00020F"/>
<path d="M245.61 34.0069C245.486 17.9595 246.173 3.29024 224.887 6.55472C201.479 10.1432 177.307 14.7627 153.956 17.7061C133.807 20.2405 134.91 33.9306 135.013 51.4366C135.141 73.2973 135.301 94.6222 135.576 117.926C135.586 118.732 137.016 118.666 137.001 117.926C136.63 93.9094 136.897 70.4058 136.88 47.1253C136.869 31.592 137.276 21.944 154.32 19.496C178.132 16.0746 201.899 12.0382 225.694 8.444C241.344 6.07952 243.635 15.2192 243.753 29.3096C244.363 101.425 245.808 173.528 246.66 245.642C246.847 261.524 243.421 268.518 226.468 266.177C202.452 262.865 176.184 261.901 152.906 257.843C138.539 255.339 138.519 244.581 138.538 232.954C138.582 206.087 137.936 176.681 137.433 149.28C137.417 148.396 136.094 148.529 136.095 149.368C136.15 176.479 136.333 206.319 136.627 233.928C136.756 246.168 137.731 257.289 152.74 259.689C177.055 263.577 201.811 265.218 226.788 268.089C243.046 269.961 248.964 263.436 248.82 246.604C248.192 175.671 246.155 104.839 245.61 34.0069Z" fill="#00020F"/>
<path fill-rule="evenodd" clip-rule="evenodd" d="M136.269 9.99235C136.37 9.00448 134.421 3.34464 133.686 1.21049L133.685 1.20834C133.6 0.960531 133.531 0.760402 133.484 0.62083C133.407 0.47299 133.284 0.354057 133.134 0.281919C132.984 0.209781 132.814 0.188338 132.651 0.220816C132.488 0.253293 132.339 0.337936 132.228 0.462012C132.117 0.586087 132.049 0.742889 132.035 0.90883C132.048 2.64403 133.803 9.30835 135.042 10.4128C135.137 10.5091 135.257 10.5766 135.389 10.6076C135.521 10.6385 135.659 10.6316 135.787 10.5877C135.915 10.5438 136.028 10.4647 136.113 10.3593C136.199 10.254 136.252 10.1268 136.269 9.99235ZM113.759 8.65116C113.153 8.10683 114.004 7.06716 114.698 7.54524C116.328 8.67132 124.568 14.8331 125.629 16.4646C125.693 16.5879 125.72 16.7271 125.706 16.8653C125.693 17.0034 125.64 17.1348 125.553 17.2434C125.467 17.3521 125.351 17.4334 125.219 17.4777C125.088 17.5219 124.946 17.5271 124.812 17.4928C122.932 16.7627 115.26 9.999 113.759 8.65116ZM210.099 74.1268C212.896 73.5076 220.919 71.8934 223.848 72.0374C226.92 77.4532 232.831 113.086 231.774 119.926C230.799 126.292 225.696 129.721 221.109 128.436C216.489 127.141 210.205 117.042 206.54 111.152C205.926 110.166 205.386 109.298 204.94 108.609C204.567 108.032 203.723 108.609 204.034 109.217C206.917 114.849 213.982 127.827 220.192 130.215C220.214 133.862 220.114 140.361 219.949 148.009C207.501 153.456 182.793 153.269 169.341 149.28C167.278 129.773 167.819 117.947 170.925 98.4959C171.116 97.6233 170.013 97.4447 169.82 98.3303C167.934 107.191 166.724 116.182 166.201 125.227C157.472 132.526 147.594 138.329 136.969 142.402C135.468 137.709 133.23 133.286 130.338 129.298C142.494 119.887 150.341 113.306 154.53 107.647C155.325 106.572 156.318 105.023 157.491 103.193C162.492 95.3901 170.761 82.4888 180.922 79.5527C182.794 84.5697 184.149 86.1062 186.106 87.5102C187.944 86.8721 191.322 83.9617 194.386 81.3214L194.386 81.3214C196.681 79.3436 198.8 77.5174 199.965 76.9118C202.844 77.4712 205.6 78.5443 208.099 80.0798C208.43 86.8103 209.375 96.2006 211.657 102.45C211.888 103.081 213.053 102.891 212.851 102.207C210.568 93.0313 209.641 83.5709 210.099 74.1268ZM89.8825 106.379L89.8826 106.379L89.8827 106.379L89.8828 106.379L89.8834 106.381L89.8838 106.381L89.884 106.382C90.7683 108.103 91.4777 109.484 91.999 110.361C94.3433 114.311 112.909 128.702 115.507 130.471C111.874 134.733 109.326 139.81 108.079 145.27C94.7998 140.935 82.5651 133.889 72.15 124.58C66.8531 120.076 63.6076 113.768 60.4424 107.616L60.4389 107.609L60.202 107.148L59.9921 106.741C59.6163 106.012 58.7091 106.499 59.0302 107.239C65.4123 121.926 68.5659 124.55 79.7417 133.19C79.966 134.81 80.2697 136.973 80.6294 139.534L80.6298 139.537L80.6309 139.545C81.0166 142.292 81.4667 145.497 81.9521 148.982C62.5668 155.017 38.6182 153.128 27.0564 147.469C25.952 128.361 26.911 109.615 31.4772 90.9212C31.5095 90.7895 31.4881 90.6503 31.4178 90.5343C31.3474 90.4183 31.2339 90.335 31.1021 90.3027C30.9704 90.2705 30.8312 90.2919 30.7152 90.3622C30.5992 90.4326 30.5159 90.5461 30.4836 90.6779C27.0229 103.813 25.2 117.325 25.0563 130.907C21.8854 131.211 17.8563 130.164 16.3587 128.171C12.8105 123.451 6.931 107.769 8.39548 83.4548C11.8544 82.7262 20.9566 81.8852 23.2606 82.5159C23.923 85.2231 24.3766 86.9252 24.7308 88.1737C23.3692 91.3998 22.3503 94.76 21.691 98.199C21.4592 99.0601 22.5968 99.2041 22.7969 98.3531C25.1729 88.2399 31.1028 75.9956 42.2873 73.5908C45.3156 77.6919 54.0867 77.2715 60.7107 74.1323C74.3828 76.2059 84.903 96.6854 89.8825 106.379ZM159.823 203.06C144.074 203.06 146.562 233.809 160.687 234.724C176.756 235.765 174.147 203.06 159.823 203.06ZM157.846 211.106C158.681 208.732 161.471 208.707 162.267 211.371C162.709 212.852 162.908 218.489 162.145 220.003C161.92 220.339 161.613 220.612 161.252 220.794C160.891 220.977 160.49 221.063 160.086 221.044C159.682 221.025 159.29 220.902 158.948 220.687C158.605 220.471 158.325 220.171 158.133 219.815C157.259 218.244 157.198 212.942 157.846 211.106ZM160.785 225.584C160.809 226.036 160.815 226.482 160.822 226.928C160.835 227.746 160.848 228.568 160.962 229.44C161.139 230.788 159.437 230.646 159.234 229.607C159.064 228.236 159.009 226.853 159.069 225.473C154.36 224.534 153.834 218.705 154.272 215.305C154.35 214.698 155.499 214.61 155.532 215.305C155.549 215.654 155.56 216.011 155.571 216.372L155.571 216.373L155.571 216.374L155.571 216.375L155.571 216.376C155.671 219.591 155.779 223.105 159.842 223.657C164.362 224.272 164.5 218.056 164.44 215.026C164.417 213.855 165.819 213.922 165.88 215.026C166.076 219.031 166.123 225.164 160.785 225.584ZM187.806 204.661C171.228 205.185 173.177 234.997 187.343 236.646C205.229 238.727 203.754 204.158 187.806 204.661ZM180.513 224.71C181.165 225.493 187.033 226.511 188.061 225.76L188.04 225.803C188.912 225.168 188.994 218.755 188.624 217.968C188.169 216.996 181.177 215.857 180.347 216.597C179.518 217.337 179.529 223.526 180.513 224.71ZM190.028 221.857C190.04 222.632 193.012 228.079 194.239 228.079L194.217 228.124C195.179 228.091 195.709 217.072 194.924 216.762C193.875 216.42 190.017 221.082 190.028 221.857ZM216.543 206.484C200.494 205.802 200.041 238.508 217.194 238.74C233.364 238.952 233.972 207.227 216.543 206.484ZM225.683 222.576C225.915 223.328 225.759 226.003 224.799 226.699C222.963 227.336 220.953 227.245 219.183 226.445C218.699 226.022 218.895 223.727 218.928 223.361C219.119 221.574 212.85 221.725 213.038 223.217C213.227 224.709 213.125 225.846 212.695 226.136C212.075 226.553 208.826 226.732 207.975 225.815C207.431 224.537 207.326 223.114 207.677 221.77C210.661 216.311 224.123 217.271 225.703 222.576H225.683ZM109.958 30.1844C111.285 29.8301 119.441 28.9791 120.391 29.4989C120.506 29.562 120.603 29.6536 120.672 29.7651C120.742 29.8765 120.781 30.004 120.786 30.1351C120.792 30.2662 120.763 30.3965 120.704 30.5133C120.644 30.6302 120.555 30.7297 120.446 30.8021C119.462 31.5538 110.964 31.754 110.035 31.6532C109.872 31.6169 109.725 31.5284 109.618 31.401C109.51 31.2736 109.447 31.1144 109.438 30.9478C109.43 30.7812 109.476 30.6163 109.57 30.4784C109.664 30.3406 109.8 30.2373 109.958 30.1844Z" fill="url(#paint0_linear_16347_31973)"/>
<defs>
<linearGradient id="paint0_linear_16347_31973" x1="170.694" y1="0.206058" x2="23.5507" y2="164.211" gradientUnits="userSpaceOnUse">
<stop stop-color="#E41B64"/>
<stop offset="1" stop-color="#4791FF"/>
</linearGradient>
</defs>
</svg>
